<?xml version="1.0" encoding="UTF-8"?> <!-- Generator: Adobe Illustrator 22.0.0, SVG Export Plug-In . SVG Version: 6.00 Build 0) --> <svg xmlns="http://www.w3.org/2000/svg" xmlns:xlink="http://www.w3.org/1999/xlink" id="Layer_1" x="0px" y="0px" viewBox="0 0 261.6 119.5" style="enable-background:new 0 0 261.6 119.5;" xml:space="preserve"> <style type="text/css"> .st0{fill-rule:evenodd;clip-rule:evenodd;fill:#B12325;} .st1{fill-rule:evenodd;clip-rule:evenodd;fill:#D63727;} .st2{fill-rule:evenodd;clip-rule:evenodd;fill:#FFFFFF;} .st3{fill:#FFFFFF;} .st4{fill-rule:evenodd;clip-rule:evenodd;fill:#D93127;} .st5{fill-rule:evenodd;clip-rule:evenodd;fill:#BB2026;} </style> <path class="st0" d="M178,66.8v26.6c0.9-0.4,1.8-0.7,2.7-1.1c0.9-0.4,1.8-0.7,2.7-1.1V66.8h-2.7H178z"></path> <path class="st1" d="M157.5,106.7v-40h-2.7h-2.7v41.7c0.9-0.3,1.8-0.6,2.7-0.9C155.7,107.3,156.6,107,157.5,106.7"></path> <path class="st2" d="M232.3,63.7H25.8c39.7,18.2,78.4,53.7,103.3,53.7C153.8,117.4,192.6,81.9,232.3,63.7 M37.6,66.8h13.9h25.8h25.8 H129h25.8h25.8h25.8h13.9c-4.7,2.1-9.3,4.6-13.9,7.1c-8.8,4.9-17.5,10.4-25.8,15.8c-9.1,5.8-17.8,11.4-25.8,15.8 c-9.7,5.3-18.4,8.8-25.8,8.8c-7.4,0-16.1-3.5-25.8-8.8c-8-4.4-16.7-10-25.8-15.8c-8.3-5.3-17-10.8-25.8-15.8 C47,71.3,42.3,68.9,37.6,66.8"></path> <path class="st2" d="M2.8,115.8c92.3,1.7,180.6,2.7,255,0C183.4,113.1,95.1,114.1,2.8,115.8"></path> <path class="st3" d="M119.8,30.9c0,1.2-0.3,2.3-0.9,3.3c-0.6,1-1.5,1.7-2.8,2.3c-1.2,0.5-2.6,0.8-4.3,0.8c-2,0-3.6-0.4-4.9-1.1 c-0.9-0.5-1.7-1.3-2.2-2.2c-0.6-0.9-0.9-1.8-0.9-2.6c0-0.5,0.2-0.9,0.5-1.3c0.3-0.4,0.8-0.5,1.3-0.5c0.4,0,0.8,0.1,1.1,0.4 c0.3,0.3,0.5,0.7,0.8,1.2c0.3,0.6,0.5,1.2,0.8,1.6c0.3,0.4,0.7,0.8,1.3,1.1c0.5,0.3,1.2,0.4,2.1,0.4c1.2,0,2.2-0.3,2.9-0.8 c0.8-0.6,1.1-1.3,1.1-2.1c0-0.7-0.2-1.2-0.6-1.6c-0.4-0.4-0.9-0.7-1.6-1c-0.6-0.2-1.5-0.5-2.6-0.7c-1.4-0.3-2.7-0.7-3.6-1.2 c-1-0.5-1.8-1.1-2.3-1.9c-0.6-0.8-0.9-1.8-0.9-2.9c0-1.1,0.3-2.1,0.9-3c0.6-0.9,1.5-1.5,2.6-2c1.1-0.5,2.5-0.7,4-0.7 c1.2,0,2.3,0.2,3.2,0.5c0.9,0.3,1.7,0.7,2.2,1.2c0.6,0.5,1,1,1.3,1.6c0.3,0.6,0.4,1.1,0.4,1.6c0,0.5-0.2,0.9-0.5,1.3 c-0.3,0.4-0.8,0.6-1.3,0.6c-0.5,0-0.8-0.1-1.1-0.4c-0.2-0.2-0.5-0.6-0.8-1.1c-0.4-0.8-0.8-1.4-1.3-1.8c-0.5-0.4-1.3-0.6-2.5-0.6 c-1.1,0-1.9,0.2-2.5,0.7c-0.6,0.5-1,1-1,1.7c0,0.4,0.1,0.8,0.3,1c0.2,0.3,0.5,0.6,0.9,0.8c0.4,0.2,0.8,0.4,1.2,0.5 c0.4,0.1,1,0.3,2,0.5c1.1,0.3,2.2,0.6,3.1,0.9c0.9,0.3,1.7,0.7,2.4,1.2c0.6,0.5,1.1,1,1.5,1.7C119.6,29,119.8,29.9,119.8,30.9 M101.1,30.9c0,1.2-0.3,2.3-0.9,3.3c-0.6,1-1.5,1.7-2.8,2.3c-1.2,0.5-2.6,0.8-4.3,0.8c-2,0-3.6-0.4-4.9-1.1 c-0.9-0.5-1.7-1.3-2.2-2.2c-0.6-0.9-0.9-1.8-0.9-2.6c0-0.5,0.2-0.9,0.5-1.3c0.3-0.4,0.8-0.5,1.3-0.5c0.4,0,0.8,0.1,1.1,0.4 c0.3,0.3,0.5,0.7,0.8,1.2c0.3,0.6,0.5,1.2,0.8,1.6c0.3,0.4,0.7,0.8,1.3,1.1c0.5,0.3,1.2,0.4,2.1,0.4c1.2,0,2.2-0.3,2.9-0.8 c0.8-0.6,1.1-1.3,1.1-2.1c0-0.7-0.2-1.2-0.6-1.6c-0.4-0.4-0.9-0.7-1.6-1c-0.6-0.2-1.5-0.5-2.6-0.7c-1.4-0.3-2.7-0.7-3.6-1.2 c-1-0.5-1.7-1.1-2.3-1.9c-0.6-0.8-0.9-1.8-0.9-2.9c0-1.1,0.3-2.1,0.9-3c0.6-0.9,1.5-1.5,2.6-2c1.1-0.5,2.5-0.7,4-0.7 c1.2,0,2.3,0.2,3.2,0.5c0.9,0.3,1.7,0.7,2.2,1.2c0.6,0.5,1,1,1.3,1.6c0.3,0.6,0.4,1.1,0.4,1.6c0,0.5-0.2,0.9-0.5,1.3 c-0.3,0.4-0.8,0.6-1.3,0.6c-0.5,0-0.8-0.1-1.1-0.4c-0.2-0.2-0.5-0.6-0.8-1.1c-0.4-0.8-0.8-1.4-1.3-1.8c-0.5-0.4-1.3-0.6-2.5-0.6 c-1.1,0-1.9,0.2-2.5,0.7c-0.6,0.5-1,1-1,1.7c0,0.4,0.1,0.8,0.3,1c0.2,0.3,0.5,0.6,0.9,0.8c0.4,0.2,0.8,0.4,1.2,0.5 c0.4,0.1,1,0.3,2,0.5c1.1,0.3,2.2,0.6,3.1,0.9c0.9,0.3,1.7,0.7,2.4,1.2c0.6,0.5,1.1,1,1.5,1.7C100.9,29,101.1,29.9,101.1,30.9 M70.3,29h6l-3-8.3L70.3,29z M78.4,34.6l-1-2.5h-8.2l-1,2.6c-0.4,1-0.7,1.7-1,2c-0.3,0.4-0.7,0.5-1.3,0.5c-0.5,0-1-0.2-1.4-0.6 c-0.4-0.4-0.6-0.8-0.6-1.3c0-0.3,0-0.6,0.1-0.8c0.1-0.3,0.2-0.7,0.5-1.2l5.2-13.1c0.1-0.4,0.3-0.8,0.5-1.4c0.2-0.5,0.4-1,0.7-1.3 c0.2-0.3,0.5-0.6,0.9-0.8c0.4-0.2,0.8-0.3,1.4-0.3c0.6,0,1,0.1,1.4,0.3c0.4,0.2,0.7,0.5,0.9,0.8c0.2,0.3,0.4,0.7,0.6,1.1 c0.2,0.4,0.4,0.9,0.6,1.6l5.3,13c0.4,1,0.6,1.7,0.6,2.2c0,0.5-0.2,0.9-0.6,1.3c-0.4,0.4-0.9,0.6-1.4,0.6c-0.3,0-0.6-0.1-0.8-0.2 c-0.2-0.1-0.4-0.3-0.6-0.5c-0.2-0.2-0.3-0.5-0.5-0.9C78.7,35.3,78.5,35,78.4,34.6 M52.9,18.9v14.7h8.3c0.7,0,1.2,0.2,1.5,0.5 c0.4,0.3,0.5,0.7,0.5,1.2c0,0.5-0.2,0.9-0.5,1.2c-0.3,0.3-0.9,0.5-1.5,0.5h-9.9c-0.9,0-1.5-0.2-1.9-0.6c-0.4-0.4-0.6-1-0.6-1.9V18.9 c0-0.8,0.2-1.4,0.6-1.9c0.4-0.4,0.9-0.6,1.5-0.6c0.6,0,1.1,0.2,1.5,0.6C52.7,17.5,52.9,18.1,52.9,18.9 M45,28.7v3.9 c0,0.5-0.1,0.9-0.2,1.2c-0.1,0.3-0.3,0.6-0.6,0.8c-0.3,0.2-0.6,0.5-1,0.7c-1.2,0.7-2.4,1.1-3.5,1.4c-1.1,0.3-2.4,0.5-3.7,0.5 c-1.6,0-3-0.2-4.2-0.7c-1.3-0.5-2.4-1.2-3.3-2.1c-0.9-0.9-1.6-2-2.1-3.3c-0.5-1.3-0.7-2.7-0.7-4.3c0-1.6,0.2-3,0.7-4.3 c0.5-1.3,1.2-2.4,2.1-3.3c0.9-0.9,2-1.6,3.3-2.1c1.3-0.5,2.8-0.7,4.4-0.7c1.4,0,2.6,0.2,3.6,0.5c1,0.4,1.9,0.8,2.5,1.4 c0.7,0.5,1.1,1.1,1.5,1.7c0.3,0.6,0.5,1.2,0.5,1.6c0,0.5-0.2,0.9-0.6,1.3c-0.4,0.4-0.8,0.5-1.4,0.5c-0.3,0-0.6-0.1-0.8-0.2 c-0.3-0.1-0.5-0.3-0.7-0.6C40.4,22,40,21.4,39.6,21c-0.3-0.4-0.8-0.7-1.4-1c-0.6-0.3-1.3-0.4-2.3-0.4c-0.9,0-1.8,0.2-2.5,0.5 c-0.7,0.3-1.4,0.8-1.9,1.4c-0.5,0.6-0.9,1.4-1.2,2.3c-0.3,0.9-0.4,1.9-0.4,3c0,2.4,0.5,4.2,1.6,5.5c1.1,1.3,2.6,1.9,4.5,1.9 c0.9,0,1.8-0.1,2.7-0.4c0.8-0.2,1.7-0.6,2.5-1.1v-3.3h-3.2c-0.8,0-1.3-0.1-1.7-0.3c-0.4-0.2-0.6-0.6-0.6-1.2c0-0.4,0.2-0.8,0.5-1.1 c0.3-0.3,0.8-0.4,1.3-0.4h4.6c0.6,0,1.1,0.1,1.4,0.2c0.4,0.1,0.7,0.3,1,0.7C44.9,27.5,45,28,45,28.7"></path> <path class="st4" d="M131.4,28.2c6.6,5.4,17.6,4.9,24-3.7c0.1,2.6,2.2,2.6,3.6,0.4c1.6,2.1,2.9,5,4.4,7.5c1.1,1.8,2.6,1.8,3.2-0.2 c0.3-0.8,0.5-2.1,0.6-3.6c0.3-3.9,0.1-9.6-0.1-14.7c-0.1-3.3,0.1-5.9,0.5-6.4c1.1,3.5,2,8.9,2.7,15.2c0.3,2.9,0.9,5.8,1.1,8.7 c0.1,2.2,0,4.4,0,6.6c0.2,7.6,0.1,18.7,5.8,19.4c2.2,0.3,2-2.3,0.2-2.2c-3.5-0.4-3.8-12.2-3.8-18.3c0.1-3,0-5.8-0.3-8.3 c-0.5-4-1.2-9.9-2-14.6c-0.7-4.2-1.6-7.4-2-8.2c-0.9-2-2.6-2.1-3.5,0.1c-1,2.4-0.9,6.6-0.8,11.2c0.2,5,0.4,10.2-0.1,13.2l0,0 c-3.3-5.8-4.9-9.4-6.9-7.5l0.6-3.9c0.2-1.3-1.6-1.9-2.3-0.7c-0.3,0.5-0.5,1-0.7,1.5c-3.7,9.8-15.6,12.8-22.7,6.8 C131.7,25.7,130.1,27.1,131.4,28.2"></path> <path class="st4" d="M175.9,26.9c-1.8,3.2-1.3,8,1.6,8.6c1.2,0.1,2.2-1,2.8-2.9c0.7,3.6,3.6,5.9,5.6,5.6c3.4-0.4,6-4.6,9.2-12.3 c0.6-1.4,1.2-2.8,1.8-4.4c0.5-1.2-1.5-2.2-2-1c-1.6,3.6-2.6,6.2-3.7,8.6c-4.2,8.8-6.3,8-8.4,4.2c-0.6-1.1-0.5-3.5-0.8-5.2 c-0.1-1.2-2.1-1.4-2.5-0.3c-0.7,2.2-1.4,4.6-1.9,5.3c-1.5-2.3,0-7.1,2.9-6.3c1.5,0.3,2.2-1.9,0.2-2.2 C178.7,24.2,176.9,25.1,175.9,26.9"></path> <path class="st5" d="M194.4,35.4l-0.4,2.2c14.3,2.2,22.7-1.4,25.2-7.5c2-5.1,0.6-10.8-2.8-15.7c-3.1-4.5-7.7-8.2-14-9.2 c-0.2-0.8-0.4-1.5-0.7-2.3l-2.1,0.8l0.5,1.3c-1.6,0-3.2,0.3-4.5,0.7l0.7,2.1c1.4-0.5,3.2-0.7,4.5-0.6c0.4,2,0.7,3.9,0.9,5.7 c1.4,13-0.8,19.7-2.2,21.1l1.7,1.5c2.8-3.3,4.5-14.6,1.9-28C219.7,11.2,229.1,41.1,194.4,35.4"></path> <path class="st5" d="M226.6,26.7c-4.9,1-8.4,5.1-8.2,7.7c0.1,0.7,0.3,1.2,0.9,1.6c1.8,1,6,0,13-1.9l-0.6-2.1 c-3.8,1.1-9.5,2.5-11.1,2.2c2.8-0.9,5.7-2.1,8.3-3.5C232.3,28.7,230.3,25.9,226.6,26.7 M227.5,28.8c-1.5,0.9-3.2,1.6-4.8,2.2 C224.1,29.8,225.7,29,227.5,28.8"></path> </svg> 