<?xml version="1.0" encoding="UTF-8"?> <!-- Generator: Adobe Illustrator 22.0.0, SVG Export Plug-In . SVG Version: 6.00 Build 0) --> <svg xmlns="http://www.w3.org/2000/svg" xmlns:xlink="http://www.w3.org/1999/xlink" id="Layer_1" x="0px" y="0px" viewBox="0 0 135.6 28.6" style="enable-background:new 0 0 135.6 28.6;" xml:space="preserve"> <style type="text/css"> .st0{fill:#FFFFFF;} </style> <path class="st0" d="M79,7.3l7.2,5.5L79,18.3V7.3z M76.1,3.8v22.5l2.8,0v-8l10.4,8h4.6l-10.4-8l7.1-5.5L79,3.8H76.1z"></path> <polygon class="st0" points="107.8,3.8 107.8,20.6 97.3,3.8 94.7,3.8 94.7,26.3 97.5,26.3 97.5,9.4 108,26.3 110.7,26.3 110.7,3.8 "></polygon> <rect x="21.7" y="3.8" class="st0" width="2.8" height="22.5"></rect> <polygon class="st0" points="35.7,3.8 24.5,18.3 35,26.3 39.6,26.3 28.5,17.7 39.2,3.8 "></polygon> <polygon class="st0" points="40.5,26.3 54.1,26.3 54.1,23.5 43.3,23.5 43.3,3.8 40.5,3.8 "></polygon> <polygon class="st0" points="120.7,3.4 111.8,26.3 115.2,26.3 121.8,9.3 124.6,16.4 120.8,16.4 119.6,18.1 120.8,19.6 125.8,19.6 128.4,26.3 131.9,26.3 129.3,19.6 130.6,19.6 131.7,18.1 130.6,16.4 128,16.4 122.9,3.4 "></polygon> <polygon class="st0" points="16.4,3.8 5.2,18.3 12,23.5 3.5,23.5 3.5,26.3 20.3,26.3 9.2,17.7 19.9,3.8 "></polygon> <polygon class="st0" points="70,18 74.5,18 73.4,16.4 71,16.4 "></polygon> <polygon class="st0" points="63.6,3.4 54.6,26.3 58,26.3 64.7,9.3 67.3,16.2 69.7,17.9 70.8,16.3 65.7,3.4 "></polygon> <polygon class="st0" points="70.3,18.2 72.3,19.6 73.4,19.6 74.5,18.2 "></polygon> <polygon class="st0" points="62.5,18 69.5,18 67.2,16.4 63.6,16.4 "></polygon> <polygon class="st0" points="69.8,18.2 69.8,18.2 68.7,19.8 71.3,26.3 74.7,26.3 72.2,19.8 "></polygon> <polygon class="st0" points="69.5,18.2 62.6,18.2 63.6,19.6 68.5,19.6 "></polygon> </svg> 