<svg width="241" height="80" viewBox="0 0 241 80" fill="none" xmlns="http://www.w3.org/2000/svg">
<g clip-path="url(#clip0_47_586)">
<path fill-rule="evenodd" clip-rule="evenodd" d="M44.1952 0.149414L0 80H30.0422L70.7773 0.149414H44.1952Z" fill="white"/>
<path fill-rule="evenodd" clip-rule="evenodd" d="M73.2006 56.9401L101.506 0.149414H76.311L36.2505 80H95.9852L102.543 56.9401H73.2006Z" fill="white"/>
<path fill-rule="evenodd" clip-rule="evenodd" d="M148.125 38.0016L124.991 22.8607H151.923L158.83 0.149414H120.844C110.138 1.18288 103.305 9.22646 101.856 19.7603C100.657 28.4763 102.543 35.9346 110.138 40.7533L135.684 57.2763H108.077L101.519 79.9875H137.77C148.612 79.1657 156.519 72.056 158.481 61.3977C160.279 51.5984 156.607 43.2934 148.125 38.0016Z" fill="white"/>
<path fill-rule="evenodd" clip-rule="evenodd" d="M193.695 0.149414H168.487L162.278 80H187.486V68.6444H208.547L215.792 80H241L193.695 0.149414ZM187.137 51.4366V27.6794L201.639 51.4241H187.137V51.4366Z" fill="white"/>
<path fill-rule="evenodd" clip-rule="evenodd" d="M211.258 2.77665C210.058 3.98444 209.459 5.42879 209.459 7.13463C209.459 8.85292 210.058 10.3097 211.245 11.5175C212.444 12.7253 213.906 13.3354 215.617 13.3354C217.328 13.3354 218.79 12.7253 219.989 11.5175C221.188 10.3097 221.788 8.84047 221.788 7.13463C221.788 5.42879 221.188 3.97198 219.989 2.77665C218.778 1.56887 217.328 0.958755 215.617 0.958755C213.931 0.971206 212.469 1.56887 211.258 2.77665ZM220.714 12.2148C219.315 13.6218 217.616 14.3191 215.63 14.3191C213.643 14.3191 211.945 13.6218 210.546 12.2148C209.159 10.8202 208.459 9.12685 208.459 7.13463C208.459 5.16732 209.159 3.48638 210.558 2.07938C211.957 0.684825 213.643 -0.0124512 215.617 -0.0124512C217.603 -0.0124512 219.302 0.684825 220.701 2.07938C222.1 3.47393 222.8 5.15486 222.8 7.13463C222.825 9.12685 222.113 10.8202 220.714 12.2148ZM216.979 4.43268C216.629 4.23346 216.079 4.13385 215.305 4.13385H214.118V6.98521H215.367C215.954 6.98521 216.392 6.92296 216.691 6.81089C217.229 6.59922 217.503 6.18833 217.503 5.57821C217.503 5.00545 217.328 4.61946 216.979 4.43268ZM215.492 3.18755C216.467 3.18755 217.191 3.28716 217.641 3.47393C218.453 3.81012 218.865 4.47004 218.865 5.46615C218.865 6.16342 218.603 6.68638 218.09 7.01012C217.816 7.18444 217.428 7.30895 216.941 7.39611C217.566 7.49572 218.016 7.74475 218.303 8.16809C218.59 8.57899 218.728 8.98988 218.728 9.38833V9.96109C218.728 10.1479 218.74 10.3346 218.753 10.5463C218.765 10.758 218.79 10.8949 218.815 10.9572L218.865 11.0568H217.566L217.541 10.9821L217.516 10.8949L217.491 10.6459V10.0233C217.491 9.1144 217.241 8.51673 216.741 8.2179C216.454 8.05603 215.929 7.96887 215.192 7.96887H214.093V11.0693H212.707V3.18755H215.492Z" fill="white"/>
</g>
<defs>
<clipPath id="clip0_47_586">
<rect width="241" height="80" fill="white"/>
</clipPath>
</defs>
</svg>
