<svg width="306" height="48" viewBox="0 0 306 48" fill="none" xmlns="http://www.w3.org/2000/svg">
<g clip-path="url(#clip0_42_749)">
<mask id="mask0_42_749" style="mask-type:luminance" maskUnits="userSpaceOnUse" x="0" y="0" width="306" height="48">
<path d="M306 0H0V48H306V0Z" fill="white"/>
</mask>
<g mask="url(#mask0_42_749)">
<path d="M306 5.86046V0H303.527C296.783 0 293.497 5.02326 290.938 10.4651H290.765V0.156977H284.349V47.686H290.765V20.3721C293.255 13.7616 297.613 4.69186 306 5.86046ZM252.08 25.5H279.455C280.354 14.3721 276.585 0.348837 263.511 0.348837C253.395 0.348837 245.336 7.36047 245.336 24.4186C245.336 41.4767 253.395 47.4942 263.511 47.4942C271.328 47.4942 277.415 43.1163 279.87 37.2733L275.27 34.2209C272.97 38.1802 268.941 42.0523 264.168 42.0523C257.597 42.0523 252.08 38.5291 252.08 25.5ZM252.236 20.0581C252.322 13.6221 255.764 5.7907 263.01 5.7907C269.754 5.7907 272.884 14.1977 272.711 20.0581H252.236ZM232.487 47.5116L246.304 0.261628H240.217L228.372 41.2326L216.284 0.261628H210.041L224.118 47.5116H232.487ZM209.937 25.5C210.837 14.3721 207.067 0.348837 193.993 0.348837C183.877 0.348837 175.818 7.36047 175.818 24.4186C175.818 41.4767 183.877 47.4942 193.993 47.4942C201.81 47.4942 207.879 43.1163 210.352 37.2733L205.752 34.2209C203.452 38.1802 199.423 42.0523 194.65 42.0523C188.079 42.0523 182.562 38.5291 182.562 25.5H209.937ZM203.193 20.0581H182.718C182.805 13.6221 186.246 5.7907 193.492 5.7907C200.236 5.7907 203.366 14.1977 203.193 20.0581ZM96.0108 12.5581C96.0108 7.93605 99.9537 5.7907 104.156 5.7907C108.929 5.7907 111.972 8.02326 114.514 11.8081L119.028 8.26744C115.5 2.98256 110.226 0.348837 103.896 0.348837C96.4086 0.348837 89.9929 5.12791 89.9929 12.9593C89.9929 29.2849 113.926 22.8314 113.926 34.3081C113.926 39.5058 109.724 42.0523 105.038 42.0523C99.6078 42.0523 95.665 39.4186 93.1921 34.7093L88.0906 37.9186C91.7914 44.2674 97.7056 47.4767 105.021 47.4767C113.563 47.4767 119.91 42.0349 119.91 33.1221C119.927 17.8081 96.0108 23.686 96.0108 12.5581ZM79.2193 46.6744H86.2057C84.8914 43.4477 85.0471 39.9942 84.9779 36.6105V14.0233C84.9779 3.62791 76.0893 0.348837 69.933 0.348837C63.0331 0.348837 58.0873 4.13372 54.3174 9.57558L58.8481 12.9593C61.4767 9.08721 64.9353 5.7907 69.9503 5.7907C75.0517 5.7907 78.5795 8.09302 78.5795 13.2907V15.8547L76.5216 16.4302C66.4917 19.1512 52.8475 21.9593 52.8475 34.9884C52.8475 42.157 58.4331 48.0174 65.4195 48.0174C70.763 48.0174 74.8788 44.5465 78.5795 40.9186L79.2193 46.6744ZM78.5622 34.4826C75.4322 38.3546 70.7458 41.9128 65.6616 41.9128C61.788 41.9128 58.8309 38.1105 58.8309 34.3256C58.8309 26.1628 69.933 23.686 76.0201 21.8721L78.5622 21.1221V34.4826ZM42.2468 47.5116H48.6626V0.261628H42.2468V47.5116ZM35.4161 5.7907H37.8025V0.104651C33.9289 -0.313953 30.4876 1.34302 27.5305 3.57558C24.5734 1.41279 21.2704 0.348837 17.6562 0.348837C8.52546 0.348837 1.62554 6.78488 1.62554 16.0116C1.62554 21.3663 3.35485 24.0872 6.64052 27.9767C4.09845 31.0291 0.968409 32.2674 0.968409 36.2965C0.968409 39.593 3.92552 41.5814 6.64052 42.6453C4.13303 43.7442 1.50449 45.2616 0 47.5116H6.62323C8.4217 45.7849 11.275 44.7907 13.4713 44.3721L20.2155 45.0349C22.6884 45.2093 27.2711 45.5756 29.6575 47.5116H36.8687C32.9086 34.8837 7.14202 40.6395 7.14202 35.3023C7.14202 33.0698 9.61492 31.5872 10.9984 30.436C13.3848 31.343 15.6848 31.8314 18.3133 31.8314C27.1155 31.8314 33.6003 24.9942 33.6003 16.1686C33.6003 12.7849 32.7011 9.57558 30.7989 6.76744C32.459 5.86047 33.6176 5.7907 35.4161 5.7907ZM27.444 16.1686C27.444 22.4302 23.8298 26.9651 17.2411 26.9651C11.3269 26.9651 7.78186 21.9419 7.78186 16.2384C7.78186 10.3779 11.6382 5.18023 17.8118 5.18023C24.2448 5.21512 27.444 10.2384 27.444 16.1686Z" fill="white"/>
</g>
<mask id="mask1_42_749" style="mask-type:luminance" maskUnits="userSpaceOnUse" x="0" y="0" width="306" height="48">
<path d="M306 0H0V48H306V0Z" fill="white"/>
</mask>
<g mask="url(#mask1_42_749)">
<path d="M130.32 12.4709C130.32 7.84881 134.263 5.70346 138.465 5.70346C143.238 5.70346 146.282 7.93601 148.824 11.7209L153.337 8.1802C149.809 2.89532 144.535 0.261597 138.206 0.261597C130.735 0.261597 124.32 5.04067 124.32 12.8721C124.32 29.1976 148.253 22.7442 148.253 34.2209C148.253 39.4186 144.051 41.9651 139.382 41.9651C133.952 41.9651 130.009 39.3314 127.536 34.6221L122.435 37.8314C126.135 44.1802 132.049 47.3895 139.364 47.3895C147.907 47.3895 154.236 41.9476 154.236 33.0349C154.236 17.7383 130.32 23.5988 130.32 12.4709Z" fill="white"/>
</g>
<mask id="mask2_42_749" style="mask-type:luminance" maskUnits="userSpaceOnUse" x="0" y="0" width="306" height="48">
<path d="M306 0H0V48H306V0Z" fill="white"/>
</mask>
<g mask="url(#mask2_42_749)">
<path d="M158.404 6.73254H171.461V15.6977H169.282V9.47092H165.806V15.2267H163.627V9.47092H158.404V6.73254Z" fill="white"/>
</g>
<mask id="mask3_42_749" style="mask-type:luminance" maskUnits="userSpaceOnUse" x="0" y="0" width="306" height="48">
<path d="M306 0H0V48H306V0Z" fill="white"/>
</mask>
<g mask="url(#mask3_42_749)">
<path d="M162.226 28.1511C160.047 28.1511 158.196 26.7558 158.196 22.6744C158.196 18.5755 160.047 17.1802 162.226 17.1802H167.638C169.817 17.1802 171.668 18.5755 171.668 22.6744C171.668 26.7732 169.817 28.1511 167.638 28.1511H162.226ZM162.364 19.9185C161.119 19.9185 160.375 20.6162 160.375 22.6569C160.375 24.6976 161.119 25.3953 162.364 25.3953H167.5C168.728 25.3953 169.489 24.6976 169.489 22.6569C169.489 20.6162 168.745 19.9185 167.5 19.9185H162.364Z" fill="white"/>
</g>
<mask id="mask4_42_749" style="mask-type:luminance" maskUnits="userSpaceOnUse" x="0" y="0" width="306" height="48">
<path d="M306 0H0V48H306V0Z" fill="white"/>
</mask>
<g mask="url(#mask4_42_749)">
<path d="M158.404 38.8954L162.728 35.564V32.9477H158.404V30.2094H171.478V36.157C171.478 39.5233 170.25 40.7791 167.95 40.7791H166.238C164.664 40.7791 163.575 40.1163 163.073 38.5989L158.404 42.1919V38.8954ZM169.282 36.0524V32.9652H164.855V36.0524C164.855 37.5524 165.339 38.0407 166.446 38.0407H167.743C168.832 38.0233 169.282 37.5 169.282 36.0524Z" fill="white"/>
</g>
</g>
<defs>
<clipPath id="clip0_42_749">
<rect width="306" height="48" fill="white"/>
</clipPath>
</defs>
</svg>
