<?xml version="1.0" encoding="UTF-8"?> <!-- Generator: Adobe Illustrator 22.0.0, SVG Export Plug-In . SVG Version: 6.00 Build 0) --> <svg xmlns="http://www.w3.org/2000/svg" xmlns:xlink="http://www.w3.org/1999/xlink" id="Layer_1" x="0px" y="0px" viewBox="0 0 252.3 46.6" style="enable-background:new 0 0 252.3 46.6;" xml:space="preserve"> <style type="text/css"> .st0{fill:#FFFFFF;} .st1{fill:#2F3690;} </style> <path class="st0" d="M147.9,8.7l14,10.6l-14,10.6V8.7z M142.5,1.8v43.7l5.5,0V30l20.3,15.5h9l-20.1-15.5l13.8-10.6l-23-17.6H142.5z"></path> <polygon class="st0" points="204,1.8 204,34.4 183.5,1.8 178.5,1.7 178.5,45.5 183.9,45.5 183.9,12.6 204.4,45.5 209.5,45.5 209.5,1.7 "></polygon> <rect x="36.7" y="1.8" class="st0" width="5.5" height="43.7"></rect> <polygon class="st0" points="63.9,1.7 42.2,30 62.6,45.5 71.5,45.5 49.9,28.8 70.8,1.7 "></polygon> <polygon class="st0" points="73.2,45.5 99.6,45.5 99.6,40 78.7,40 78.7,1.8 73.2,1.7 "></polygon> <polygon class="st1" points="229,1 211.7,45.5 218.3,45.5 231.2,12.5 236.5,26.3 229.1,26.3 226.9,29.6 229.2,32.5 239,32.5 244,45.5 250.7,45.4 245.6,32.5 248.1,32.5 250.4,29.6 248.2,26.3 243.2,26.3 233.3,1 "></polygon> <polygon class="st0" points="26.4,1.7 4.7,30 17.9,40 1.3,40 1.3,45.5 34,45.5 12.4,28.8 33.3,1.7 "></polygon> <polygon class="st1" points="130.5,29.3 139.2,29.3 137.1,26.3 132.5,26.3 "></polygon> <polygon class="st1" points="118,1 100.7,45.5 107.3,45.5 120.1,12.5 125.4,25.9 130,29.1 132.1,26.1 122.3,1 "></polygon> <polygon class="st1" points="131.1,29.8 135,32.5 137.1,32.5 139.2,29.8 "></polygon> <polygon class="st1" points="116.1,29.3 129.5,29.3 125.1,26.3 118.1,26.3 "></polygon> <polygon class="st1" points="130.2,29.8 130.1,29.8 128.1,32.8 133,45.5 139.7,45.4 134.8,32.9 "></polygon> <polygon class="st1" points="129.5,29.8 116.1,29.8 118.2,32.5 127.7,32.5 "></polygon> </svg> 