<?xml version="1.0" encoding="UTF-8"?> <!-- Generator: Adobe Illustrator 26.1.0, SVG Export Plug-In . SVG Version: 6.00 Build 0) --> <svg xmlns="http://www.w3.org/2000/svg" xmlns:xlink="http://www.w3.org/1999/xlink" id="Layer_1" x="0px" y="0px" viewBox="0 0 216.72 79.32" style="enable-background:new 0 0 216.72 79.32;" xml:space="preserve"> <style type="text/css"> .st0{fill:#E52629;} .st1{fill-rule:evenodd;clip-rule:evenodd;fill:#FFFFFF;} .st2{fill:#FFFFFF;} </style> <g> <rect x="4.81" y="46.95" class="st0" width="206.77" height="9.7"></rect> <polyline class="st1" points="101.82,33.68 78.74,16.3 78.75,37.25 73.94,37.25 73.94,4.32 78.75,4.32 105.81,24.68 132.81,4.32 142.45,4.32 142.45,37.25 132.74,37.25 132.73,10.39 "></polyline> <path class="st2" d="M142.58,37.38h-9.97l0-26.73l-30.78,23.19l-0.08-0.06L78.87,16.56l0.01,20.82h-5.06V4.19h4.98l0.03,0.03 l26.98,20.29l26.96-20.32h9.81V37.38z M132.87,37.12h9.45V4.45h-9.46l-27.04,20.38l-0.08-0.06L78.71,4.45h-4.63v32.67h4.54 l-0.01-21.08l23.21,17.48l31.04-23.39L132.87,37.12z"></path> <polyline class="st1" points="4.81,4.32 58.58,4.32 58.58,9.12 14.52,9.12 14.52,18.39 37.46,18.39 37.46,23.19 14.52,23.19 14.52,32.45 58.58,32.45 58.58,37.25 4.81,37.25 "></polyline> <path class="st2" d="M58.67,37.34H4.72V4.23h53.94v4.98H14.61v9.09h22.93v4.97H14.61v9.09h44.06V37.34z M4.9,37.16h53.59v-4.62 H14.44V23.1h22.93v-4.62H14.44V9.03h44.06V4.41H4.9V37.16z"></path> <polyline class="st1" points="211.58,4.32 157.81,4.32 157.81,9.12 201.87,9.12 201.87,18.39 178.93,18.39 178.93,23.19 201.87,23.19 201.87,32.45 157.81,32.45 157.81,37.25 211.58,37.25 "></polyline> <path class="st2" d="M211.67,37.34h-53.95v-4.97h44.06v-9.09h-22.93V18.3h22.93V9.21h-44.06V4.23h53.95V37.34z M157.9,37.16h53.59 V4.41H157.9v4.62h44.06v9.44h-22.93v4.62h22.93v9.44H157.9V37.16z"></path> <polyline class="st2" points="5.19,74.94 5.19,66.36 6.86,66.36 11.07,71.45 15.26,66.36 16.94,66.36 16.94,74.94 15,74.94 15,69.04 11.16,73.91 10.75,73.91 6.86,69.17 6.86,74.94 "></polyline> <path class="st2" d="M25.01,74.94l5.1-8.59h2.02l5.18,8.59h-2.35l-1.08-1.88h-5.69l-1.08,1.88 M29.08,71.49h3.94l-2-3.58 L29.08,71.49z"></path> <path class="st2" d="M45,74.94v-8.58h5.78c1.66,0,2.93,0.37,3.83,1.1c0.89,0.74,1.33,1.79,1.33,3.16c0,1.44-0.47,2.52-1.41,3.24 c-0.94,0.72-2.36,1.08-4.27,1.08 M47.11,73.34h2.7c1.48,0,2.51-0.22,3.1-0.65c0.59-0.43,0.88-1.15,0.88-2.17 c0-0.89-0.25-1.54-0.73-1.98c-0.49-0.43-1.24-0.65-2.25-0.65h-3.69V73.34z"></path> <polyline class="st2" points="64.65,74.94 64.65,66.36 73.86,66.36 73.86,67.88 66.76,67.88 66.76,69.75 70.9,69.75 70.9,71.23 66.76,71.23 66.76,73.34 73.97,73.34 73.97,74.94 "></polyline> <rect x="95.96" y="66.36" class="st2" width="2.08" height="8.59"></rect> <polyline class="st2" points="107.43,74.94 107.43,66.36 108.86,66.36 116.16,72.06 116.16,66.36 118.05,66.36 118.05,74.94 116.6,74.94 109.33,69.15 109.33,74.94 "></polyline> <rect x="140.86" y="66.36" class="st2" width="2.08" height="8.59"></rect> <polyline class="st2" points="157.44,67.9 157.44,74.94 155.35,74.94 155.35,67.9 151.2,67.9 151.2,66.36 161.6,66.36 161.6,67.9 "></polyline> <path class="st2" d="M167.07,74.94l5.1-8.59h2.01l5.18,8.59h-2.35l-1.08-1.88h-5.69l-1.08,1.88 M171.13,71.49h3.94l-2-3.58 L171.13,71.49z"></path> <polyline class="st2" points="187.05,74.94 187.05,66.36 189.16,66.36 189.16,73.34 195.9,73.34 195.9,74.94 "></polyline> <polyline class="st2" points="204.83,74.94 204.83,71.09 200.13,66.36 202.96,66.36 206.03,69.56 209.13,66.36 211.59,66.36 206.92,71.05 206.92,74.94 "></polyline> </g> </svg> 