<?xml version="1.0" encoding="UTF-8"?> <!-- Generator: Adobe Illustrator 22.0.0, SVG Export Plug-In . SVG Version: 6.00 Build 0) --> <svg xmlns="http://www.w3.org/2000/svg" xmlns:xlink="http://www.w3.org/1999/xlink" id="Layer_1" x="0px" y="0px" viewBox="0 0 182.3 167.2" style="enable-background:new 0 0 182.3 167.2;" xml:space="preserve"> <style type="text/css"> .st0{fill:#FFFFFF;} </style> <path class="st0" d="M111.4,98.8C104.6,88.6,97.8,78.6,91,68.3c-6.8,10.2-13.6,20.3-20.4,30.5C48.6,66.1,26.8,33.5,4.9,0.7h172.2 C155.2,33.4,133.4,66.1,111.4,98.8 M70.5,87.3c0.2-0.2,0.3-0.3,0.4-0.4c5.3-7.9,10.6-15.8,15.9-23.7c0.4-0.7,0.1-1-0.2-1.5 c-12.1-18-24.2-35.9-36.2-53.9C49.9,7.2,49.5,7,48.8,7C38.5,7,28.2,7,17.9,7c-0.3,0-0.6,0-1.1,0.1C34.8,33.9,52.6,60.5,70.5,87.3 M111.4,87.3c17.9-26.8,35.8-53.4,53.7-80.2c-0.4,0-0.5-0.1-0.7-0.1c-10.5,0-21,0-31.5,0c-0.4,0-1,0.4-1.3,0.8 c-12.1,18-24.2,35.9-36.3,53.9c-0.4,0.6-0.4,1,0,1.6c5.2,7.6,10.3,15.3,15.4,23C110.9,86.6,111.2,86.9,111.4,87.3 M91,56.8 c0.3-0.5,0.6-0.8,0.8-1.1c5.2-7.7,10.3-15.4,15.5-23.1c0.5-0.7,0.5-1.2,0-2C102,23.1,96.8,15.7,91.5,8.3c-0.2-0.2-0.4-0.4-0.6-0.7 c-0.2,0.2-0.3,0.3-0.3,0.4c-5.4,7.6-10.8,15.2-16.2,22.8c-0.4,0.6-0.2,1,0.1,1.5c3.3,5,6.7,10,10,14.9C86.7,50.4,88.8,53.5,91,56.8 M57.7,7.1c4.3,6.1,8.6,12.1,12.9,18.2c4.3-6.1,8.5-12.1,12.9-18.2H57.7z M98.5,7.1c4.4,6.2,8.6,12.1,12.9,18.2 c4.3-6.1,8.5-12.1,12.9-18.2H98.5z"></path> <path class="st0" d="M36.1,141.8c-0.9,2.7-1.8,5.3-2.6,7.8c-1.7,5.2-3.5,10.3-5.1,15.5c-0.2,0.7-0.5,1-1.3,1c-1-0.1-1.9,0-3,0 c-0.9-2.7-1.8-5.4-2.7-8.1c-0.9-2.7-1.8-5.4-2.9-8c-0.5,1.5-1,3-1.5,4.5c-1.2,3.6-2.4,7.1-3.6,10.7c-0.2,0.7-0.5,1-1.3,1 c-1-0.1-2.2,0.3-2.9-0.2c-0.6-0.4-0.7-1.7-1-2.6c-2.2-6.7-4.5-13.4-6.7-20.1c-0.1-0.4-0.2-0.8-0.4-1.3c1.6,0,3.1,0,4.7,0 c0.2,0,0.6,0.5,0.7,0.9c1.4,4.5,2.7,9,4.1,13.5c0.1,0.5,0.3,1,0.6,1.8c0.5-1.5,0.9-2.7,1.3-3.9c1.3-3.8,2.6-7.7,3.9-11.5 c0.2-0.7,0.5-0.8,1.2-0.8c3.1,0,3.1,0,4,2.9c1.5,4.3,2.9,8.6,4.5,13.2c0.2-0.4,0.3-0.7,0.4-0.9c1.4-4.7,2.9-9.5,4.3-14.2 c0.2-0.7,0.5-1,1.3-1C33.3,141.8,34.6,141.8,36.1,141.8"></path> <path class="st0" d="M37.7,153.9c-0.1-7.1,5.5-12.5,12.9-12.5c7.4,0,13,5.3,13.1,12.4c0.1,7.1-5.4,12.6-12.7,12.7 C43.3,166.5,37.7,161.3,37.7,153.9 M50.6,162.2c4.6,0,8-3.5,8.1-8.2c0-4.7-3.4-8.3-7.9-8.3c-4.7,0-8.1,3.4-8.1,8.1 C42.6,158.6,45.9,162.2,50.6,162.2"></path> <path class="st0" d="M67,154c0-7.2,5.5-12.6,13-12.6c7.4,0,13,5.4,13,12.5c0,7.1-5.5,12.5-12.9,12.5C72.6,166.5,67.1,161.2,67,154 M80,162.2c4.6,0,8-3.5,8-8.3c0-4.7-3.4-8.3-8-8.3c-4.5,0-8,3.5-8,8.2C72,158.6,75.4,162.2,80,162.2"></path> <path class="st0" d="M97.1,141.8c4.2,0.2,8.4-0.4,12.5,0.6c5.2,1.3,8.5,5.4,8.6,10.8c0.1,4.1-0.9,7.7-4.3,10.3 c-2.2,1.7-4.8,2.4-7.6,2.5c-3,0.1-6.1,0-9.2,0V141.8z M102,161.7c1.6,0,3.1,0.1,4.5,0c3.8-0.4,6-2.6,6.7-6.3c0.6-3.6-0.9-7-3.8-8.5 c-2.3-1.2-4.8-1-7.4-0.9V161.7z"></path> <path class="st0" d="M136.2,156.7h-8.2v5.2h10.1v4.1h-15v-24.1c0.2,0,0.5-0.1,0.7-0.1c4.4,0,8.7,0,13.1,0c0.8,0,1.1,0.2,1,1 c-0.1,1,0.2,2.4-0.3,3c-0.5,0.5-1.9,0.2-2.9,0.2c-2,0-4.1,0-6.1,0c-0.2,0-0.3,0-0.6,0v6.5h8.2V156.7z"></path> <path class="st0" d="M148.6,156.7v5.2h10.1v4.1h-15v-24.1c0.3,0,0.6-0.1,0.9-0.1c4.3,0,8.6,0,12.9,0c0.8,0,1.1,0.2,1.1,1.1 c-0.1,1,0,2,0,3.1h-9.9v6.6h8.2v4.1H148.6z"></path> <path class="st0" d="M181,161.9v4.1h-17.3c-0.1-1.7-0.1-3.2,0.9-4.8c3.1-4.6,6-9.3,9-14c0.2-0.3,0.4-0.7,0.7-1.2 c-0.5,0-0.8-0.1-1.1-0.1c-2.7,0-5.4,0-8.1,0c-0.8,0-1.1-0.2-1-1c0.1-1-0.3-2.3,0.2-2.9c0.5-0.5,1.9-0.3,2.9-0.3c4.1,0,8.1,0,12.2,0 h1.2c0.2,1.8,0.1,3.3-0.9,4.8c-3.1,4.7-6.1,9.4-9.1,14.2c-0.2,0.3-0.3,0.6-0.6,1.1H181z"></path> </svg> 