<svg width="200" height="200" viewBox="0 0 200 200" fill="none" xmlns="http://www.w3.org/2000/svg">
<path d="M183.523 154.315C183.777 154.061 184.03 153.553 184.284 153.3C185.044 152.03 185.805 151.015 186.312 149.746C186.565 149.239 186.819 148.985 187.072 148.477C187.833 147.208 188.34 145.939 189.1 144.67C189.354 144.416 189.354 143.909 189.607 143.655C190.368 142.132 191.128 140.609 191.635 139.086C191.635 139.086 191.635 138.832 191.888 138.832C192.649 137.056 193.156 135.533 193.916 133.756C193.916 133.503 194.17 133.249 194.17 132.741C194.677 131.472 195.184 129.949 195.437 128.68C195.691 128.173 195.691 127.411 195.944 126.904C196.198 125.888 196.705 124.619 196.958 123.35C197.212 122.589 197.212 122.081 197.465 121.32C197.719 120.305 197.972 119.036 198.226 118.02C198.479 117.259 198.479 116.751 198.479 115.99C198.733 114.975 198.733 113.706 198.986 112.69C198.986 111.929 199.24 111.421 199.24 110.66C199.493 109.391 199.493 108.122 199.493 106.853C199.493 106.345 199.493 105.584 199.747 105.076C199.747 103.299 200 101.269 200 99.4924C200 98.731 200 97.7157 200 96.9543C198.226 43.401 154.119 0 99.8733 0C98.3523 0 96.5779 -2.45831e-07 95.057 0.253807H94.8035C94.0431 0.253807 93.2826 0.253807 92.5222 0.507614C91.5082 0.507614 90.4943 0.761421 89.2269 0.761421C88.9734 0.761421 88.7199 0.761421 88.4664 0.761421C85.1711 1.26903 81.8758 1.77665 78.5805 2.28426C74.0177 3.04569 69.455 4.06091 65.1458 5.58376C56.0203 8.62944 47.6553 12.9442 40.3042 18.5279C32.9531 24.1117 26.3625 30.7107 20.7858 38.3249C16.4766 43.9086 13.1812 50 10.1394 56.3452C8.36502 59.8985 6.84411 63.7056 5.57668 67.7665C5.57668 68.0203 5.32319 68.2741 5.32319 68.2741C4.81622 69.5431 4.30925 71.066 4.05577 72.5888C4.05577 72.8426 3.80228 73.3503 3.80228 73.6041C3.5488 74.8731 3.04182 76.1421 2.78834 77.4112C2.78834 77.9188 2.53485 78.4264 2.53485 78.6802C2.28137 79.9492 2.02788 81.2183 1.7744 82.2335C1.7744 82.7411 1.52091 83.2487 1.52091 83.7563C1.26743 85.0254 1.26743 86.0406 1.01394 87.3096C1.01394 87.8173 0.760456 88.3249 0.760456 89.0863C0.506971 90.3553 0.506971 91.6244 0.506971 92.8934C0.506971 93.401 0.506971 93.9086 0.506971 94.4162C1.13317e-07 96.4467 0 98.2233 0 100V200H98.6058H98.8593C99.1128 200 99.6198 200 99.8733 200C100.127 200 100.634 200 100.887 200H101.141H160.456H161.724V178.426C168.821 172.843 175.158 166.244 180.735 158.629C180.989 158.376 180.989 158.122 181.242 157.868C182.003 156.853 182.763 155.584 183.523 154.315ZM20.7858 68.0203C22.0532 60.4061 24.8416 53.2995 28.6439 46.1929C32.4461 39.0863 37.0089 32.7411 42.5855 27.1574C48.1622 21.5736 54.4994 16.7513 61.3435 12.9442C68.1876 9.13706 75.5387 6.85279 83.1432 6.09137C88.2129 5.58376 93.2826 5.58376 98.3523 6.59898V98.2233H19.0114C18.5044 88.3249 19.0114 77.9188 20.7858 68.0203ZM196.705 98.4772H101.394V7.61421C102.408 7.86802 103.422 7.86802 104.436 8.37563C111.534 10.4061 117.871 13.9594 123.701 18.5279C129.531 23.3503 134.094 29.1878 137.643 36.5482C141.191 43.9086 142.966 52.2843 142.966 61.6751C146.008 61.9289 149.049 61.6751 151.584 61.1675C153.612 60.4061 155.64 59.1371 157.668 57.3604C159.442 55.5838 160.71 53.2995 160.963 49.7462C161.47 43.9086 160.456 38.8325 157.921 33.7563C155.387 28.934 151.584 24.1117 146.261 19.0355C139.417 12.9442 131.559 8.37563 122.433 5.32995C122.18 5.32995 121.926 5.32995 121.926 5.07614C164.005 15.2284 195.944 53.0457 196.705 98.4772ZM98.3523 101.523V190.102C96.8314 189.848 95.057 189.594 93.2826 189.34C83.3967 187.563 74.2712 184.01 65.6527 178.68C57.0342 173.604 49.4297 167.005 42.5855 159.391C35.7414 151.523 30.4182 142.893 26.3625 133.503C22.8137 124.112 20.2788 113.706 19.2649 102.284C19.2649 102.03 19.2649 101.777 19.2649 101.523H98.3523ZM3.04183 124.112C3.29531 124.873 3.29531 125.381 3.5488 126.142C3.5488 126.396 3.80228 126.65 3.80228 126.904C4.30925 128.934 5.06971 130.964 5.57668 132.741C5.57668 132.741 5.57668 132.741 5.57668 132.995C7.09759 137.31 8.87199 141.624 11.1534 145.685C15.2091 154.569 20.2788 162.69 26.616 169.797C34.474 178.68 43.853 185.787 54.4994 190.863C59.8226 193.401 64.6388 194.924 67.4271 195.685C68.1876 195.939 69.962 196.447 72.2433 196.701H3.04183V124.112ZM101.394 131.472C102.915 134.264 105.45 136.548 108.492 137.817C110.52 138.579 112.548 138.832 114.829 138.579C116.857 138.325 119.138 137.563 120.659 136.041C122.18 134.518 123.194 132.487 123.447 130.457C123.701 128.426 122.687 126.142 120.913 124.873C119.138 123.35 116.603 123.858 115.082 125.635C113.561 127.157 113.815 129.695 115.082 131.218C113.815 129.695 113.815 127.157 115.336 125.888C116.603 124.365 119.138 124.112 120.659 125.381C122.18 126.65 122.94 128.426 122.687 130.457C122.433 132.234 121.42 134.264 120.152 135.533C117.364 138.071 112.801 138.325 109.252 136.802C105.703 135.279 102.915 131.98 101.901 128.426C101.394 127.411 101.394 126.65 101.394 125.888V120.812C102.155 115.482 104.943 110.406 108.999 107.107C114.575 102.792 122.18 101.777 129.024 103.046C129.785 103.046 130.292 103.299 131.052 103.553C132.826 104.061 135.361 104.569 138.15 106.345C144.487 110.66 146.008 117.513 146.515 119.797V174.873C144.994 176.904 142.459 179.442 139.163 181.98C137.389 183.249 132.826 186.802 125.729 188.832C117.871 190.863 109.759 190.609 104.183 190.355C103.169 190.355 102.155 190.355 100.887 190.102V131.472H101.394ZM107.478 105.584C104.689 107.868 102.662 110.66 101.394 113.959V101.523H114.829C112.041 102.284 109.506 103.553 107.478 105.584ZM159.696 108.629C157.668 104.315 154.626 102.284 153.105 101.523H196.705C196.198 130.964 182.763 157.107 161.724 174.619V117.259C161.724 113.198 160.456 110.152 159.696 108.629ZM147.275 188.832C149.049 190.102 150.824 191.371 152.598 192.893C154.119 194.162 155.64 195.685 157.161 196.954H124.208C124.968 196.701 125.729 196.447 126.489 196.447C126.996 196.447 127.25 196.193 127.757 196.193C129.785 195.685 131.812 194.924 133.84 194.162C135.868 193.401 137.896 192.64 140.177 191.624C140.431 191.624 140.684 191.371 140.938 191.371C142.966 190.355 144.994 189.594 146.768 188.579C146.768 188.325 147.022 188.579 147.275 188.832Z" fill="#9EA08A"/>
</svg>
