<svg width="200" height="200" viewBox="0 0 200 200" fill="none" xmlns="http://www.w3.org/2000/svg">
<path d="M12.1492 153.929V162.752H10.4511V158.875H6.2057V162.752H4.50757V153.929H6.2057V157.731H10.4511V153.929H12.1492Z" fill="#1D1D1B"/>
<path d="M23.3356 158.359C23.3356 159.023 23.2249 159.614 23.0034 160.167C22.7819 160.721 22.4865 161.201 22.0805 161.607C21.6744 162.013 21.1945 162.309 20.6407 162.567C20.087 162.788 19.4594 162.899 18.758 162.899C18.0566 162.899 17.429 162.788 16.8753 162.567C16.3216 162.345 15.8416 162.013 15.4356 161.607C15.0295 161.201 14.7342 160.721 14.5127 160.167C14.2912 159.614 14.1804 159.023 14.1804 158.359C14.1804 157.694 14.2912 157.103 14.5127 156.55C14.7342 155.996 15.0295 155.516 15.4356 155.11C15.8416 154.704 16.3216 154.409 16.8753 154.15C17.429 153.929 18.0566 153.818 18.758 153.818C19.201 153.818 19.644 153.855 20.0501 153.966C20.4562 154.076 20.8253 154.224 21.1576 154.409C21.4898 154.593 21.7851 154.815 22.0805 155.11C22.3389 155.368 22.5973 155.701 22.7819 156.033C22.9665 156.365 23.1141 156.734 23.2249 157.103C23.2618 157.509 23.3356 157.916 23.3356 158.359ZM21.6006 158.359C21.6006 157.879 21.5267 157.436 21.416 157.066C21.2683 156.697 21.0837 156.365 20.8622 156.07C20.6038 155.811 20.3085 155.59 19.9762 155.442C19.6071 155.295 19.2379 155.221 18.7949 155.221C18.3519 155.221 17.9459 155.295 17.6136 155.442C17.2445 155.59 16.9491 155.774 16.7276 156.07C16.4692 156.328 16.2846 156.66 16.137 157.066C15.9893 157.436 15.9524 157.879 15.9524 158.359C15.9524 158.838 16.0262 159.281 16.137 159.651C16.2846 160.02 16.4692 160.352 16.7276 160.61C16.9861 160.869 17.2814 161.09 17.6136 161.238C17.9828 161.386 18.3519 161.459 18.7949 161.459C19.2379 161.459 19.644 161.386 19.9762 161.238C20.3454 161.09 20.6407 160.906 20.8622 160.61C21.1206 160.352 21.3052 160.02 21.416 159.651C21.5267 159.281 21.6006 158.838 21.6006 158.359Z" fill="#1D1D1B"/>
<path d="M30.1273 155.553C30.0903 155.627 30.0165 155.7 29.9796 155.737C29.9427 155.774 29.8688 155.774 29.7581 155.774C29.6843 155.774 29.5735 155.737 29.4628 155.663C29.352 155.59 29.2413 155.516 29.0936 155.442C28.9459 155.368 28.7983 155.294 28.6137 155.22C28.4291 155.147 28.2076 155.11 27.9492 155.11C27.7277 155.11 27.5062 155.147 27.3216 155.184C27.1371 155.22 26.9894 155.331 26.8787 155.405C26.7679 155.516 26.6572 155.627 26.6202 155.774C26.5464 155.922 26.5464 156.07 26.5464 156.217C26.5464 156.439 26.6202 156.586 26.731 156.734C26.8417 156.882 26.9894 156.992 27.2109 157.103C27.3955 157.214 27.617 157.288 27.8754 157.362C28.1338 157.435 28.3922 157.509 28.6506 157.62C28.909 157.694 29.1674 157.805 29.4259 157.915C29.6843 158.026 29.9058 158.174 30.0903 158.358C30.2749 158.543 30.4595 158.764 30.5703 159.023C30.681 159.281 30.7548 159.577 30.7548 159.946C30.7548 160.352 30.681 160.721 30.5333 161.053C30.3857 161.385 30.2011 161.718 29.9058 161.976C29.6474 162.235 29.3151 162.456 28.909 162.604C28.503 162.751 28.06 162.825 27.5801 162.825C27.2847 162.825 26.9894 162.788 26.731 162.751C26.4357 162.714 26.1772 162.604 25.9188 162.53C25.6604 162.419 25.4389 162.308 25.1805 162.161C24.959 162.013 24.7375 161.865 24.5898 161.681L25.0698 160.906C25.1067 160.832 25.1805 160.795 25.2174 160.758C25.2913 160.721 25.3651 160.684 25.4389 160.684C25.5497 160.684 25.6604 160.721 25.7712 160.795C25.8819 160.869 26.0296 160.979 26.2142 161.09C26.3987 161.201 26.5833 161.275 26.8048 161.385C27.0263 161.459 27.2847 161.496 27.617 161.496C28.0969 161.496 28.466 161.385 28.7245 161.164C28.9829 160.942 29.1305 160.61 29.1305 160.204C29.1305 159.983 29.0567 159.798 28.9459 159.65C28.8352 159.503 28.6506 159.392 28.466 159.281C28.2815 159.171 28.06 159.097 27.8016 159.023C27.5431 158.949 27.2847 158.875 27.0263 158.801C26.7679 158.728 26.5095 158.617 26.2511 158.506C25.9927 158.395 25.7712 158.248 25.5866 158.063C25.402 157.878 25.2174 157.657 25.1067 157.362C24.9959 157.103 24.9221 156.734 24.9221 156.328C24.9221 155.996 24.9959 155.7 25.1067 155.368C25.2543 155.073 25.4389 154.777 25.6973 154.556C25.9558 154.334 26.2511 154.113 26.6202 154.002C26.9894 153.855 27.3955 153.781 27.8754 153.781C28.3922 153.781 28.909 153.855 29.352 154.039C29.795 154.187 30.2011 154.445 30.4964 154.741L30.1273 155.553Z" fill="#1D1D1B"/>
<path d="M35.6276 153.929C36.2183 153.929 36.772 154.003 37.215 154.15C37.658 154.298 38.0271 154.482 38.3225 154.741C38.6178 154.999 38.8393 155.295 38.9501 155.627C39.0977 155.959 39.1715 156.365 39.1715 156.771C39.1715 157.214 39.0977 157.583 38.9501 157.953C38.8024 158.322 38.5809 158.617 38.2856 158.875C37.9902 159.134 37.6211 159.318 37.1781 159.466C36.7351 159.614 36.2183 159.688 35.6276 159.688H34.3725V162.789H32.6743V153.929H35.6276ZM35.6276 158.396C35.9229 158.396 36.2183 158.359 36.4398 158.285C36.6613 158.211 36.8458 158.1 37.0304 157.953C37.1781 157.805 37.2888 157.657 37.3627 157.436C37.4365 157.251 37.4734 156.993 37.4734 156.771C37.4734 156.55 37.4365 156.328 37.3627 156.144C37.2888 155.959 37.1781 155.775 37.0304 155.664C36.8828 155.516 36.6982 155.442 36.4767 155.368C36.2552 155.295 35.9598 155.258 35.6645 155.258H34.4094V158.432H35.6276V158.396Z" fill="#1D1D1B"/>
<path d="M42.6427 162.789H40.9446V153.929H42.6427V162.789Z" fill="#1D1D1B"/>
<path d="M51.5023 155.295H48.7705V162.789H47.0724V155.295H44.3406V153.929H51.5023V155.295Z" fill="#1D1D1B"/>
<path d="M60.0659 162.788H58.7738C58.6262 162.788 58.5154 162.751 58.4047 162.678C58.2939 162.604 58.257 162.53 58.1832 162.419L57.5187 160.61H53.7533L53.0888 162.419C53.0519 162.53 52.978 162.604 52.9042 162.678C52.7934 162.751 52.6827 162.788 52.535 162.788H51.2061L54.7869 153.965H56.522L60.0659 162.788ZM57.1126 159.429L56.0051 156.476C55.9682 156.328 55.8944 156.18 55.8206 155.996C55.7467 155.811 55.7098 155.627 55.636 155.405C55.5991 155.627 55.5252 155.811 55.4514 155.996C55.3776 156.18 55.3406 156.328 55.2668 156.476L54.1593 159.392H57.1126V159.429Z" fill="#1D1D1B"/>
<path d="M66.8218 161.423V162.789H61.5059V153.929H63.204V161.423H66.8218Z" fill="#1D1D1B"/>
<path d="M70.2179 162.789H68.5198V153.929H70.2179V162.789Z" fill="#1D1D1B"/>
<path d="M79.0775 155.295H76.3457V162.789H74.6476V155.295H71.9158V153.929H79.0775V155.295Z" fill="#1D1D1B"/>
<path d="M84.6908 159.355V162.789H82.9926V159.355L79.6702 153.929H81.1468C81.2945 153.929 81.4052 153.966 81.479 154.039C81.5529 154.113 81.6267 154.187 81.7005 154.298L83.3618 157.251C83.4725 157.436 83.5464 157.583 83.6202 157.731C83.694 157.879 83.7678 158.026 83.8048 158.211C83.8417 158.063 83.9155 157.916 83.9893 157.731C84.0632 157.583 84.137 157.399 84.2478 157.251L85.909 154.298C85.9459 154.224 86.0197 154.113 86.1305 154.039C86.2043 153.966 86.352 153.929 86.4996 153.929H87.9763L84.6908 159.355Z" fill="#1D1D1B"/>
<path d="M33.6712 171.722C33.6343 171.796 33.5604 171.87 33.5235 171.907C33.4497 171.944 33.4128 171.981 33.302 171.981C33.2282 171.981 33.1175 171.944 33.0067 171.87C32.896 171.796 32.7852 171.722 32.6375 171.648C32.4899 171.574 32.3422 171.501 32.1576 171.427C31.9731 171.353 31.7516 171.316 31.4932 171.316C31.2717 171.316 31.0502 171.353 30.8656 171.39C30.681 171.427 30.5333 171.538 30.4226 171.611C30.3118 171.722 30.2011 171.833 30.1642 171.981C30.0903 172.128 30.0903 172.276 30.0903 172.424C30.0903 172.645 30.1642 172.793 30.2749 172.94C30.3857 173.088 30.5333 173.199 30.7548 173.309C30.9763 173.42 31.1609 173.494 31.4193 173.568C31.6777 173.642 31.9361 173.716 32.1946 173.826C32.453 173.9 32.7114 174.011 32.9698 174.122C33.2282 174.232 33.4497 174.38 33.6343 174.565C33.8189 174.749 34.0034 174.971 34.1142 175.229C34.2249 175.488 34.2988 175.783 34.2988 176.152C34.2988 176.558 34.2249 176.927 34.0773 177.26C33.9296 177.592 33.745 177.924 33.4497 178.182C33.1913 178.441 32.859 178.662 32.453 178.81C32.0469 178.958 31.6039 179.031 31.124 179.031C30.8287 179.031 30.5333 178.995 30.2749 178.958C29.9796 178.921 29.7212 178.81 29.4628 178.736C29.2043 178.625 28.9829 178.515 28.7244 178.367C28.5029 178.219 28.2815 178.072 28.1338 177.887L28.6137 177.112C28.6506 177.038 28.7244 177.001 28.7614 176.964C28.8352 176.927 28.909 176.89 28.9829 176.89C29.0936 176.89 29.2044 176.927 29.3151 177.001C29.4259 177.075 29.5735 177.186 29.7581 177.296C29.9427 177.407 30.1273 177.481 30.3487 177.592C30.5702 177.666 30.8287 177.703 31.1609 177.703C31.6408 177.703 32.01 177.592 32.2684 177.37C32.5268 177.149 32.6745 176.817 32.6745 176.41C32.6745 176.189 32.6006 176.004 32.4899 175.857C32.3791 175.709 32.1946 175.598 32.01 175.488C31.8254 175.377 31.6039 175.303 31.3455 175.229C31.0871 175.155 30.8287 175.081 30.5702 175.008C30.3118 174.934 30.0534 174.823 29.795 174.712C29.5366 174.602 29.3151 174.454 29.1305 174.269C28.9459 174.085 28.7614 173.863 28.6506 173.568C28.5399 173.309 28.466 172.94 28.466 172.534C28.466 172.202 28.5399 171.907 28.6506 171.574C28.7983 171.279 28.9829 170.984 29.2413 170.762C29.4997 170.541 29.795 170.319 30.1642 170.209C30.5333 170.061 30.9394 169.987 31.4193 169.987C31.9361 169.987 32.453 170.061 32.896 170.245C33.3389 170.393 33.745 170.652 34.0404 170.947L33.6712 171.722Z" fill="#1D1D1B"/>
<path d="M39.8737 177.629C40.206 177.629 40.5013 177.592 40.7597 177.481C41.0181 177.37 41.2396 177.222 41.4242 177.038C41.6088 176.853 41.7195 176.632 41.8303 176.336C41.941 176.078 41.978 175.746 41.978 175.414V170.135H43.6761V175.414C43.6761 175.93 43.6023 176.41 43.4177 176.853C43.2331 177.296 43.0116 177.702 42.6794 177.998C42.3471 178.33 41.9779 178.588 41.498 178.773C41.0181 178.957 40.5013 179.031 39.9476 179.031C39.3569 179.031 38.8401 178.957 38.3602 178.773C37.8803 178.588 37.5111 178.33 37.1789 177.998C36.8466 177.665 36.5882 177.296 36.4405 176.853C36.256 176.41 36.1821 175.93 36.1821 175.414V170.135H37.8803V175.414C37.8803 175.746 37.9172 176.041 38.0279 176.336C38.1387 176.595 38.2494 176.853 38.434 177.038C38.6186 177.222 38.8401 177.37 39.0985 177.481C39.2831 177.592 39.5415 177.629 39.8737 177.629Z" fill="#1D1D1B"/>
<path d="M48.9919 170.135C49.5825 170.135 50.1363 170.208 50.5793 170.356C51.0222 170.504 51.3914 170.688 51.6867 170.947C51.9821 171.205 52.2036 171.5 52.3143 171.833C52.462 172.165 52.5358 172.571 52.5358 172.977C52.5358 173.42 52.462 173.789 52.3143 174.158C52.1666 174.528 51.9451 174.823 51.6498 175.081C51.3545 175.34 50.9853 175.524 50.5423 175.672C50.0993 175.82 49.5825 175.893 48.9919 175.893H47.7367V178.994H46.0386V170.171H48.9919V170.135ZM48.9919 174.564C49.2872 174.564 49.5825 174.528 49.804 174.454C50.0255 174.38 50.2101 174.269 50.3947 174.121C50.5423 173.974 50.6531 173.826 50.7269 173.605C50.8008 173.42 50.8377 173.162 50.8377 172.94C50.8377 172.719 50.8008 172.497 50.7269 172.313C50.6531 172.128 50.5423 171.943 50.3947 171.833C50.247 171.685 50.0624 171.611 49.8409 171.537C49.6194 171.464 49.3241 171.427 49.0288 171.427H47.7736V174.601H48.9919V174.564Z" fill="#1D1D1B"/>
<path d="M57.2616 170.135C57.8523 170.135 58.406 170.208 58.849 170.356C59.292 170.504 59.6612 170.688 59.9565 170.947C60.2518 171.205 60.4733 171.5 60.5841 171.833C60.7317 172.165 60.8056 172.571 60.8056 172.977C60.8056 173.42 60.7317 173.789 60.5841 174.158C60.4364 174.528 60.2149 174.823 59.9196 175.081C59.6243 175.34 59.2551 175.524 58.8121 175.672C58.3691 175.82 57.8523 175.893 57.2616 175.893H56.0065V178.994H54.3083V170.171H57.2616V170.135ZM57.2616 174.564C57.557 174.564 57.8523 174.528 58.0738 174.454C58.2953 174.38 58.4799 174.269 58.6644 174.121C58.8121 173.974 58.9228 173.826 58.9967 173.605C59.0705 173.383 59.1074 173.162 59.1074 172.94C59.1074 172.719 59.0705 172.497 58.9967 172.313C58.9228 172.128 58.8121 171.943 58.6644 171.833C58.5168 171.685 58.3322 171.611 58.1107 171.537C57.8892 171.464 57.5939 171.427 57.2985 171.427H56.0434V174.601H57.2616V174.564Z" fill="#1D1D1B"/>
<path d="M67.8928 177.592V178.957H62.5769V170.135H64.275V177.629H67.8928V177.592Z" fill="#1D1D1B"/>
<path d="M71.2885 178.957H69.5903V170.135H71.2885V178.957Z" fill="#1D1D1B"/>
<path d="M75.4975 171.427V173.863H78.6722V175.118H75.4975V177.629H79.5213V178.957H73.7993V170.135H79.5213V171.427H75.4975Z" fill="#1D1D1B"/>
<path d="M86.3506 171.722C86.3137 171.796 86.2399 171.87 86.203 171.907C86.1291 171.944 86.0922 171.981 85.9815 171.981C85.9076 171.981 85.7969 171.944 85.6862 171.87C85.5754 171.796 85.4646 171.722 85.317 171.648C85.1693 171.574 85.0217 171.501 84.8371 171.427C84.6525 171.353 84.431 171.316 84.1726 171.316C83.9511 171.316 83.7296 171.353 83.545 171.39C83.3604 171.427 83.2128 171.538 83.102 171.611C82.9913 171.722 82.8805 171.833 82.8436 171.981C82.7698 172.128 82.7698 172.276 82.7698 172.424C82.7698 172.645 82.8436 172.793 82.9544 172.94C83.0651 173.088 83.2128 173.199 83.4343 173.309C83.6189 173.42 83.8403 173.494 84.0988 173.568C84.3572 173.642 84.6156 173.716 84.874 173.826C85.1324 173.9 85.3908 174.011 85.6492 174.122C85.9076 174.232 86.1291 174.38 86.3137 174.565C86.4983 174.749 86.6829 174.971 86.7936 175.229C86.9044 175.488 86.9782 175.783 86.9782 176.152C86.9782 176.558 86.9044 176.927 86.7567 177.26C86.609 177.592 86.4245 177.924 86.1291 178.182C85.8707 178.441 85.5385 178.662 85.1324 178.81C84.7263 178.958 84.2833 179.031 83.8034 179.031C83.5081 179.031 83.2128 178.995 82.9544 178.958C82.659 178.921 82.4006 178.81 82.1422 178.736C81.8838 178.625 81.6623 178.515 81.4039 178.367C81.1824 178.219 80.9609 178.072 80.8132 177.887L81.2931 177.112C81.33 177.038 81.4039 177.001 81.4408 176.964C81.5146 176.927 81.5885 176.89 81.6623 176.89C81.773 176.89 81.8838 176.927 81.9945 177.001C82.1053 177.075 82.253 177.186 82.4375 177.296C82.6221 177.407 82.8067 177.481 83.0282 177.592C83.2497 177.666 83.5081 177.703 83.8403 177.703C84.3203 177.703 84.6894 177.592 84.9478 177.37C85.2062 177.149 85.3539 176.817 85.3539 176.41C85.3539 176.189 85.2801 176.004 85.1693 175.857C85.0586 175.709 84.874 175.598 84.6894 175.488C84.5048 175.377 84.2833 175.303 84.0249 175.229C83.7665 175.155 83.5081 175.081 83.2497 175.008C82.9913 174.934 82.7329 174.823 82.4744 174.712C82.216 174.602 81.9945 174.454 81.81 174.269C81.6254 174.085 81.4408 173.863 81.3301 173.568C81.2193 173.309 81.1455 172.94 81.1455 172.534C81.1455 172.202 81.2193 171.907 81.3301 171.574C81.4777 171.279 81.6623 170.984 81.9207 170.762C82.1791 170.541 82.4745 170.319 82.8436 170.209C83.2128 170.061 83.6189 169.987 84.0988 169.987C84.6156 169.987 85.1324 170.061 85.5754 170.245C86.0184 170.393 86.4245 170.652 86.7198 170.947L86.3506 171.722Z" fill="#1D1D1B"/>
<path d="M70.1477 0.46875H69.4094V125.651H70.1477V0.46875Z" fill="#1D1D1B"/>
<path d="M70.2212 125.688H69.3352V0.394775H70.2212V125.688ZM69.4829 125.577H70.1104V0.542436H69.4829V125.577Z" fill="#1D1D1B"/>
<path d="M110.569 62.709H11.5603V63.4473H110.569V62.709Z" fill="#1D1D1B"/>
<path d="M110.644 63.521H11.5239V62.635H110.681V63.521H110.644ZM11.6347 63.4102H110.533V62.7827H11.6347V63.4102Z" fill="#1D1D1B"/>
<path d="M110.719 36.8308H69.4094V63.4842H110.755V37.2738C110.755 37.1261 110.755 36.9785 110.719 36.8308ZM110.017 62.709H70.1477V37.5322H110.017V62.709Z" fill="#1D1D1B"/>
<path d="M110.829 63.521H69.3352V36.72H110.792V36.7938C110.792 36.9415 110.829 37.0891 110.829 37.2368V63.521ZM69.4829 63.4103H110.718V37.2368C110.718 37.126 110.718 37.0153 110.681 36.8676H69.4829V63.4103ZM110.091 62.7827H70.0735V37.4952H110.054V62.7827H110.091ZM70.2212 62.672H109.943V37.6429H70.2212V62.672Z" fill="#1D1D1B"/>
<path d="M69.4094 36.8308V63.4842H86.6492V36.8308H69.4094ZM85.9109 62.709H70.1477V37.5322H85.9109V62.709Z" fill="#1D1D1B"/>
<path d="M86.7227 63.521H69.3352V36.72H86.7227V63.521ZM69.4829 63.4103H86.575V36.9045H69.4829V63.4103ZM85.9844 62.7827H70.1104V37.4952H85.9844V62.7827ZM70.2212 62.672H85.8367V37.6429H70.2212V62.672Z" fill="#1D1D1B"/>
<path d="M80.3718 44.9155C80.4456 45.6538 81.184 46.0968 81.3316 46.1706C81.8115 46.429 82.4022 46.5767 82.8821 46.4291C83.362 46.3183 83.8419 45.986 84.1742 45.58C85.6877 43.9926 84.5802 41.3346 82.9928 40.1902C82.1807 39.6365 81.2209 39.415 80.1134 39.4519C79.0797 39.4519 78.083 39.7472 77.197 40.2641C76.311 40.7809 75.4989 41.4823 74.9082 42.2944C74.3176 43.1066 73.9484 44.0295 73.8007 45.0262C73.6531 45.9861 73.6531 47.1674 73.7638 48.1641C73.8746 49.1978 74.2068 50.2314 74.6129 51.1912C74.7606 51.5235 75.9419 54.1076 78.4891 55.9534C81.8854 58.3529 85.7246 58.0576 87.4228 57.9099C95.5443 57.2824 100.38 50.6744 100.897 49.973C104.626 44.7309 104.478 39.2304 104.441 36.5725C104.33 31.4042 102.669 27.6388 101.562 25.2023C99.7158 21.1415 97.0579 17.413 93.7723 14.4228C92.9602 13.6845 88.9363 10.1036 82.4022 7.70408C70.4044 3.31106 59.3296 6.33818 55.3427 7.48258C53.2016 8.11016 42.0529 11.4695 32.4916 21.5845C11.7448 43.5496 16.1009 78.5091 24.2593 93.0541C27.3972 98.6653 31.7533 103.612 31.7533 103.612C36.1094 108.522 41.0931 112.693 46.5936 115.905C46.5936 115.905 49.3623 117.529 52.3894 118.895C66.4914 125.208 96.5041 123.362 98.9406 123.178V84.305C98.9406 83.862 98.9037 83.419 98.9037 82.9391C98.6453 81.7577 98.2023 80.6133 97.6116 79.5797C95.9873 76.6633 93.477 75.0759 91.6312 74.2269C91.0775 74.0054 90.413 73.7839 89.7485 73.5254C89.5639 73.4885 89.3793 73.4147 89.2686 73.4147C89.0102 73.3409 88.8625 73.1194 88.8994 72.861C88.9363 72.6026 89.1578 72.418 89.4162 72.418H107.874C108.465 72.861 109.425 73.71 110.163 75.1128C111.012 76.7002 111.086 78.14 111.086 78.8783V129.859H98.7929H67.7465C67.082 129.859 66.4544 129.859 65.8638 129.859C64.1656 129.859 62.7628 129.786 61.6923 129.712C59.0343 129.601 56.1548 129.453 52.8693 128.9C51.1712 128.641 49.3623 128.235 47.4427 127.718C45.2277 127.091 43.0865 126.352 41.0192 125.503H40.9823C40.2809 125.208 39.6164 124.913 38.952 124.58C31.9748 121.295 25.8467 116.717 20.7154 110.921C18.9803 108.965 12.963 102.025 8.71768 91.2452C0.817634 71.1628 5.02607 53.037 5.91206 49.6038C9.01301 37.1631 14.8458 28.857 16.8023 26.199C20.014 21.8799 31.901 6.30127 53.4969 1.64984C57.41 0.800772 84.1372 -4.95814 100.122 11.6541C101.672 13.2784 112.046 24.4271 111.16 39.4888C110.975 42.4052 110.421 44.8047 109.942 46.466C109.942 46.5029 109.905 46.5767 109.868 46.6505C109.499 47.7211 108.317 50.7482 105.807 53.8492C104.478 55.5104 99.9373 60.6048 92.9233 62.5614C91.3359 63.0044 89.6377 63.2628 87.8288 63.2997C86.6106 63.3366 84.0634 63.3735 81.2578 62.5614C79.4489 62.0446 77.5662 61.1586 75.7942 59.6819C75.6465 59.5343 72.3241 56.7656 70.9582 52.7417C70.8105 52.2987 70.6629 51.8188 70.5521 51.3758C70.3306 50.4529 70.183 49.53 70.146 48.5702C70.1091 47.8688 70.146 47.0935 70.2199 46.466C70.2937 45.8015 70.3675 45.1001 70.589 44.3987V44.3617C70.9582 42.9589 71.6596 41.5561 72.6563 40.4856C73.6161 39.3781 74.8344 38.529 76.1265 37.9384H76.1634C77.4554 37.3846 78.9321 37.0893 80.3349 37.2369C81.184 37.3108 82.1438 37.5323 82.9928 37.9384C83.4727 38.1598 83.9157 38.4552 84.3218 38.8243C85.4293 39.8211 86.0938 41.1131 86.3153 42.5159C86.426 43.2174 86.3891 43.9557 86.2045 44.6571C85.983 45.3585 85.5401 45.9861 85.0232 46.4291C84.5064 46.872 83.8419 47.2412 83.1036 47.315C82.3653 47.3889 81.6639 47.0935 81.147 46.6875C80.8886 46.466 80.6302 46.2445 80.4456 45.9491C80.261 45.6538 80.1503 45.3216 80.1872 44.9524C80.261 44.4356 80.6302 44.0664 80.6671 44.1033C80.6302 44.0664 80.3349 44.4356 80.3718 44.9155Z" fill="#1D1D1B"/>
<path d="M195.81 200H174.989C174.804 200 174.657 199.926 174.546 199.741L139.993 144.921L137.999 141.746H110.94V187.005C110.94 187.928 111.013 189.146 111.383 190.475C111.604 191.325 111.973 192.211 112.49 193.097C115.037 197.49 119.652 198.745 121.018 199.003C121.276 199.04 121.461 199.298 121.424 199.557C121.387 199.815 121.165 200 120.907 200H89.2698C89.0114 200 88.7899 199.815 88.753 199.557C88.7161 199.298 88.9007 199.077 89.1591 199.003C90.4881 198.708 95.0287 197.453 97.5021 193.097C97.7605 192.617 97.982 192.137 98.2035 191.657C98.9049 189.885 99.0895 188.224 99.0526 187.042V135.249H110.94V135.323H136.301C142.724 135.323 148.225 134.548 152.618 133.108C156.974 131.631 160.592 129.601 163.287 127.054C165.981 124.543 167.975 121.479 169.23 118.046C170.485 114.576 171.076 110.737 171.076 106.75C171.076 102.726 170.448 98.9605 169.23 95.6011C168.012 92.2787 166.018 89.3254 163.323 86.852C160.629 84.3786 157.011 82.4221 152.655 80.9824C149.775 80.0595 146.416 79.395 142.614 79.0627C140.657 78.8781 138.553 78.8043 136.338 78.8043H118.692C118.692 77.8445 118.544 76.2571 117.695 74.522C117.252 73.5991 116.698 72.8608 116.255 72.344H142.65C155.497 72.344 165.538 75.4819 172.479 81.6838C179.419 87.9226 182.963 96.3025 182.963 106.676C182.963 111.475 182.225 115.868 180.711 119.855C179.308 123.584 177.278 126.906 174.62 129.896C169.23 135.877 161.441 139.642 151.51 141.082L153.319 143.998L180.194 186.747C181.006 188.002 181.818 189.11 182.594 190.106C183.295 190.992 183.996 191.768 184.698 192.432C186.359 194.019 187.873 195.016 188.796 195.57L188.832 195.644C189.903 196.161 191.047 196.788 192.266 197.563C193.632 198.375 194.776 199.225 195.81 200Z" fill="#1D1D1B"/>
</svg>
