<?xml version="1.0" encoding="UTF-8"?> <!-- Generator: Adobe Illustrator 22.0.0, SVG Export Plug-In . SVG Version: 6.00 Build 0) --> <svg xmlns="http://www.w3.org/2000/svg" xmlns:xlink="http://www.w3.org/1999/xlink" id="Layer_1" x="0px" y="0px" viewBox="0 0 83.3 85.2" style="enable-background:new 0 0 83.3 85.2;" xml:space="preserve"> <style type="text/css"> .st0{fill:#1D1D1B;} </style> <path class="st0" d="M74.4,64.7c0.1-0.1,0.2-0.3,0.3-0.4c0.3-0.5,0.6-0.9,0.8-1.4c0.1-0.2,0.2-0.3,0.3-0.5c0.3-0.5,0.5-1,0.8-1.5 c0.1-0.1,0.1-0.3,0.2-0.4c0.3-0.6,0.6-1.2,0.8-1.8c0,0,0-0.1,0.1-0.1c0.3-0.7,0.5-1.3,0.8-2c0-0.1,0.1-0.2,0.1-0.4 c0.2-0.5,0.4-1.1,0.5-1.6c0.1-0.2,0.1-0.5,0.2-0.7c0.1-0.4,0.3-0.9,0.4-1.4c0.1-0.3,0.1-0.5,0.2-0.8c0.1-0.4,0.2-0.9,0.3-1.3 c0.1-0.3,0.1-0.5,0.1-0.8c0.1-0.4,0.1-0.9,0.2-1.3c0-0.3,0.1-0.5,0.1-0.8c0.1-0.5,0.1-1,0.1-1.5c0-0.2,0-0.5,0.1-0.7 c0-0.7,0.1-1.5,0.1-2.2c0-0.3,0-0.7,0-1C80.2,21,62.8,3.9,41.4,3.9c-0.6,0-1.3,0-1.9,0.1c0,0-0.1,0-0.1,0c-0.3,0-0.6,0-0.9,0.1 c-0.4,0-0.8,0.1-1.3,0.1c-0.1,0-0.2,0-0.3,0c-1.3,0.2-2.6,0.4-3.9,0.6c-1.8,0.3-3.6,0.7-5.3,1.3c-3.6,1.2-6.9,2.9-9.8,5.1 c-2.9,2.2-5.5,4.8-7.7,7.8c-1.7,2.2-3,4.6-4.2,7.1c-0.7,1.4-1.3,2.9-1.8,4.5c0,0.1-0.1,0.2-0.1,0.2c-0.2,0.5-0.4,1.1-0.5,1.7 c0,0.1-0.1,0.3-0.1,0.4c-0.1,0.5-0.3,1-0.4,1.5c0,0.2-0.1,0.4-0.1,0.5c-0.1,0.5-0.2,1-0.3,1.4c0,0.2-0.1,0.4-0.1,0.6 c-0.1,0.5-0.1,0.9-0.2,1.4c0,0.2-0.1,0.4-0.1,0.7c-0.1,0.5-0.1,1-0.1,1.5c0,0.2,0,0.4,0,0.6C2,41.9,2,42.6,2,43.3v39.4v0h38.9 c0,0,0.1,0,0.1,0c0.1,0,0.3,0,0.4,0c0.1,0,0.3,0,0.4,0c0,0,0.1,0,0.1,0h23.4v0h0.5v-8.5c2.8-2.2,5.3-4.8,7.5-7.8 c0.1-0.1,0.1-0.2,0.2-0.3C73.8,65.7,74.1,65.2,74.4,64.7 M10.2,30.7c0.5-3,1.6-5.8,3.1-8.6c1.5-2.8,3.3-5.3,5.5-7.5 c2.2-2.2,4.7-4.1,7.4-5.6c2.7-1.5,5.6-2.4,8.6-2.7c2-0.2,4-0.2,6,0.2v36.1H9.5C9.3,38.7,9.5,34.6,10.2,30.7 M79.6,42.7H42V6.9 C42.4,7,42.8,7,43.2,7.2c2.8,0.8,5.3,2.2,7.6,4c2.3,1.9,4.1,4.2,5.5,7.1c1.4,2.9,2.1,6.2,2.1,9.9c1.2,0.1,2.4,0,3.4-0.2 c0.8-0.3,1.6-0.8,2.4-1.5c0.7-0.7,1.2-1.6,1.3-3c0.2-2.3-0.2-4.3-1.2-6.3c-1-1.9-2.5-3.8-4.6-5.8c-2.7-2.4-5.8-4.2-9.4-5.4 c-0.1,0-0.2,0-0.2-0.1C66.7,9.9,79.3,24.8,79.6,42.7 M40.8,43.9v34.9c-0.6-0.1-1.3-0.2-2-0.3c-3.9-0.7-7.5-2.1-10.9-4.2 c-3.4-2-6.4-4.6-9.1-7.6c-2.7-3.1-4.8-6.5-6.4-10.2C11,52.8,10,48.7,9.6,44.2c0-0.1,0-0.2,0-0.3H40.8z M3.2,52.8 c0.1,0.3,0.1,0.5,0.2,0.8c0,0.1,0.1,0.2,0.1,0.3c0.2,0.8,0.5,1.6,0.7,2.3c0,0,0,0,0,0.1c0.6,1.7,1.3,3.4,2.2,5 C8,64.8,10,68,12.5,70.8c3.1,3.5,6.8,6.3,11,8.3c2.1,1,4,1.6,5.1,1.9c0.3,0.1,1,0.3,1.9,0.4H3.2V52.8z M42,55.7 c0.6,1.1,1.6,2,2.8,2.5c0.8,0.3,1.6,0.4,2.5,0.3c0.8-0.1,1.7-0.4,2.3-1c0.6-0.6,1-1.4,1.1-2.2c0.1-0.8-0.3-1.7-1-2.2 c-0.7-0.6-1.7-0.4-2.3,0.3c-0.6,0.6-0.5,1.6,0,2.2c-0.5-0.6-0.5-1.6,0.1-2.1c0.5-0.6,1.5-0.7,2.1-0.2c0.6,0.5,0.9,1.2,0.8,2 c-0.1,0.7-0.5,1.5-1,2c-1.1,1-2.9,1.1-4.3,0.5c-1.4-0.6-2.5-1.9-2.9-3.3C42,54.1,42,53.8,42,53.5v-2c0.3-2.1,1.4-4.1,3-5.4 c2.2-1.7,5.2-2.1,7.9-1.6c0.3,0,0.5,0.1,0.8,0.2c0.7,0.2,1.7,0.4,2.8,1.1c2.5,1.7,3.1,4.4,3.3,5.3v21.7c-0.6,0.8-1.6,1.8-2.9,2.8 c-0.7,0.5-2.5,1.9-5.3,2.7c-3.1,0.8-6.3,0.7-8.5,0.6c-0.4,0-0.8,0-1.3-0.1V55.7z M44.4,45.5c-1.1,0.9-1.9,2-2.4,3.3v-4.9h5.3 C46.2,44.2,45.2,44.7,44.4,45.5 M65,46.7c-0.8-1.7-2-2.5-2.6-2.8h17.2c-0.2,11.6-5.5,21.9-13.8,28.8V50.1 C65.8,48.5,65.3,47.3,65,46.7 M60.1,78.3c0.7,0.5,1.4,1,2.1,1.6c0.6,0.5,1.2,1.1,1.8,1.6H51c0.3-0.1,0.6-0.2,0.9-0.2 c0.2,0,0.3-0.1,0.5-0.1c0.8-0.2,1.6-0.5,2.4-0.8c0,0,0,0,0,0c0.8-0.3,1.6-0.6,2.5-1c0.1,0,0.2-0.1,0.3-0.1c0.8-0.4,1.6-0.7,2.3-1.1 C59.9,78.1,60,78.2,60.1,78.3"></path> </svg> 