<svg width="79" height="79" viewBox="0 0 79 79" fill="none" xmlns="http://www.w3.org/2000/svg">
<path d="M72.4 60.8C72.5 60.7 72.6 60.5 72.7 60.4C73 59.9 73.3 59.5 73.5 59C73.6 58.8 73.7 58.7 73.8 58.5C74.1 58 74.3 57.5 74.6 57C74.7 56.9 74.7 56.7 74.8 56.6C75.1 56 75.4 55.4 75.6 54.8C75.6 54.8 75.6 54.7 75.7 54.7C76 54 76.2 53.4 76.5 52.7C76.5 52.6 76.6 52.5 76.6 52.3C76.8 51.8 77 51.2 77.1 50.7C77.2 50.5 77.2 50.2 77.3 50C77.4 49.6 77.6 49.1 77.7 48.6C77.8 48.3 77.8 48.1 77.9 47.8C78 47.4 78.1 46.9 78.2 46.5C78.3 46.2 78.3 46 78.3 45.7C78.4 45.3 78.4 44.8 78.5 44.4C78.5 44.1 78.6 43.9 78.6 43.6C78.7 43.1 78.7 42.6 78.7 42.1C78.7 41.9 78.7 41.6 78.8 41.4C78.8 40.7 78.9 39.9 78.9 39.2C78.9 38.9 78.9 38.5 78.9 38.2C78.2 17.1 60.8 0 39.4 0C38.8 0 38.1 -9.68575e-08 37.5 0.0999999H37.4C37.1 0.0999999 36.8 0.0999998 36.5 0.2C36.1 0.2 35.7 0.3 35.2 0.3C35.1 0.3 35 0.3 34.9 0.3C33.6 0.5 32.3 0.7 31 0.9C29.2 1.2 27.4 1.6 25.7 2.2C22.1 3.4 18.8 5.1 15.9 7.3C13 9.5 10.4 12.1 8.2 15.1C6.5 17.3 5.2 19.7 4 22.2C3.3 23.6 2.7 25.1 2.2 26.7C2.2 26.8 2.1 26.9 2.1 26.9C1.9 27.4 1.7 28 1.6 28.6C1.6 28.7 1.5 28.9 1.5 29C1.4 29.5 1.2 30 1.1 30.5C1.1 30.7 1 30.9 1 31C0.9 31.5 0.8 32 0.7 32.4C0.7 32.6 0.6 32.8 0.6 33C0.5 33.5 0.5 33.9 0.4 34.4C0.4 34.6 0.3 34.8 0.3 35.1C0.2 35.6 0.2 36.1 0.2 36.6C0.2 36.8 0.2 37 0.2 37.2C4.47035e-08 38 0 38.7 0 39.4V78.8H38.9H39C39.1 78.8 39.3 78.8 39.4 78.8C39.5 78.8 39.7 78.8 39.8 78.8H39.9H63.3H63.8V70.3C66.6 68.1 69.1 65.5 71.3 62.5C71.4 62.4 71.4 62.3 71.5 62.2C71.8 61.8 72.1 61.3 72.4 60.8ZM8.2 26.8C8.7 23.8 9.8 21 11.3 18.2C12.8 15.4 14.6 12.9 16.8 10.7C19 8.5 21.5 6.6 24.2 5.1C26.9 3.6 29.8 2.7 32.8 2.4C34.8 2.2 36.8 2.2 38.8 2.6V38.7H7.5C7.3 34.8 7.5 30.7 8.2 26.8ZM77.6 38.8H40V3C40.4 3.1 40.8 3.1 41.2 3.3C44 4.1 46.5 5.5 48.8 7.3C51.1 9.2 52.9 11.5 54.3 14.4C55.7 17.3 56.4 20.6 56.4 24.3C57.6 24.4 58.8 24.3 59.8 24.1C60.6 23.8 61.4 23.3 62.2 22.6C62.9 21.9 63.4 21 63.5 19.6C63.7 17.3 63.3 15.3 62.3 13.3C61.3 11.4 59.8 9.5 57.7 7.5C55 5.1 51.9 3.3 48.3 2.1C48.2 2.1 48.1 2.1 48.1 2C64.7 6 77.3 20.9 77.6 38.8ZM38.8 40V74.9C38.2 74.8 37.5 74.7 36.8 74.6C32.9 73.9 29.3 72.5 25.9 70.4C22.5 68.4 19.5 65.8 16.8 62.8C14.1 59.7 12 56.3 10.4 52.6C9 48.9 8 44.8 7.6 40.3C7.6 40.2 7.6 40.1 7.6 40H38.8ZM1.2 48.9C1.3 49.2 1.3 49.4 1.4 49.7C1.4 49.8 1.5 49.9 1.5 50C1.7 50.8 2 51.6 2.2 52.3C2.2 52.3 2.2 52.3 2.2 52.4C2.8 54.1 3.5 55.8 4.4 57.4C6 60.9 8 64.1 10.5 66.9C13.6 70.4 17.3 73.2 21.5 75.2C23.6 76.2 25.5 76.8 26.6 77.1C26.9 77.2 27.6 77.4 28.5 77.5H1.2V48.9ZM40 51.8C40.6 52.9 41.6 53.8 42.8 54.3C43.6 54.6 44.4 54.7 45.3 54.6C46.1 54.5 47 54.2 47.6 53.6C48.2 53 48.6 52.2 48.7 51.4C48.8 50.6 48.4 49.7 47.7 49.2C47 48.6 46 48.8 45.4 49.5C44.8 50.1 44.9 51.1 45.4 51.7C44.9 51.1 44.9 50.1 45.5 49.6C46 49 47 48.9 47.6 49.4C48.2 49.9 48.5 50.6 48.4 51.4C48.3 52.1 47.9 52.9 47.4 53.4C46.3 54.4 44.5 54.5 43.1 53.9C41.7 53.3 40.6 52 40.2 50.6C40 50.2 40 49.9 40 49.6V47.6C40.3 45.5 41.4 43.5 43 42.2C45.2 40.5 48.2 40.1 50.9 40.6C51.2 40.6 51.4 40.7 51.7 40.8C52.4 41 53.4 41.2 54.5 41.9C57 43.6 57.6 46.3 57.8 47.2V68.9C57.2 69.7 56.2 70.7 54.9 71.7C54.2 72.2 52.4 73.6 49.6 74.4C46.5 75.2 43.3 75.1 41.1 75C40.7 75 40.3 75 39.8 74.9V51.8H40ZM42.4 41.6C41.3 42.5 40.5 43.6 40 44.9V40H45.3C44.2 40.3 43.2 40.8 42.4 41.6ZM63 42.8C62.2 41.1 61 40.3 60.4 40H77.6C77.4 51.6 72.1 61.9 63.8 68.8V46.2C63.8 44.6 63.3 43.4 63 42.8ZM58.1 74.4C58.8 74.9 59.5 75.4 60.2 76C60.8 76.5 61.4 77.1 62 77.6H49C49.3 77.5 49.6 77.4 49.9 77.4C50.1 77.4 50.2 77.3 50.4 77.3C51.2 77.1 52 76.8 52.8 76.5C53.6 76.2 54.4 75.9 55.3 75.5C55.4 75.5 55.5 75.4 55.6 75.4C56.4 75 57.2 74.7 57.9 74.3C57.9 74.2 58 74.3 58.1 74.4Z" fill="white"/>
</svg>
