<svg width="140" height="146" viewBox="0 0 140 146" fill="none" xmlns="http://www.w3.org/2000/svg">
<path d="M5.94815 112.351V118.791H4.7087V115.962H1.61006V118.791H0.370605V112.351H1.61006V115.126H4.7087V112.351H5.94815Z" fill="#1D1D1B"/>
<path d="M14.1129 115.584C14.1129 116.069 14.0321 116.5 13.8704 116.905C13.7088 117.309 13.4932 117.659 13.1968 117.955C12.9004 118.252 12.5502 118.467 12.146 118.656C11.7418 118.818 11.2838 118.898 10.7718 118.898C10.2599 118.898 9.80179 118.818 9.39762 118.656C8.99345 118.494 8.64317 118.252 8.34678 117.955C8.05039 117.659 7.83483 117.309 7.67317 116.905C7.5115 116.5 7.43066 116.069 7.43066 115.584C7.43066 115.099 7.5115 114.668 7.67317 114.264C7.83483 113.86 8.05039 113.509 8.34678 113.213C8.64317 112.917 8.99345 112.701 9.39762 112.513C9.80179 112.351 10.2599 112.27 10.7718 112.27C11.0951 112.27 11.4185 112.297 11.7149 112.378C12.0113 112.459 12.2807 112.566 12.5232 112.701C12.7657 112.836 12.9813 112.998 13.1968 113.213C13.3854 113.402 13.5741 113.644 13.7088 113.887C13.8435 114.129 13.9513 114.399 14.0321 114.668C14.0591 114.964 14.1129 115.261 14.1129 115.584ZM12.8466 115.584C12.8466 115.234 12.7927 114.911 12.7118 114.641C12.6041 114.372 12.4693 114.129 12.3077 113.914C12.119 113.725 11.9035 113.563 11.661 113.456C11.3915 113.348 11.1221 113.294 10.7987 113.294C10.4754 113.294 10.179 113.348 9.93652 113.456C9.66707 113.563 9.45152 113.698 9.28985 113.914C9.10124 114.102 8.96652 114.345 8.85874 114.641C8.75096 114.911 8.72401 115.234 8.72401 115.584C8.72401 115.935 8.7779 116.258 8.85874 116.527C8.96652 116.797 9.10124 117.039 9.28985 117.228C9.47847 117.416 9.69402 117.578 9.93652 117.686C10.206 117.794 10.4754 117.848 10.7987 117.848C11.1221 117.848 11.4185 117.794 11.661 117.686C11.9304 117.578 12.146 117.443 12.3077 117.228C12.4963 117.039 12.631 116.797 12.7118 116.527C12.7927 116.258 12.8466 115.935 12.8466 115.584Z" fill="#1D1D1B"/>
<path d="M19.0705 113.537C19.0436 113.59 18.9897 113.644 18.9627 113.671C18.9358 113.698 18.8819 113.698 18.8011 113.698C18.7472 113.698 18.6663 113.671 18.5855 113.617C18.5047 113.563 18.4238 113.51 18.3161 113.456C18.2083 113.402 18.1005 113.348 17.9658 113.294C17.8311 113.24 17.6694 113.213 17.4808 113.213C17.3191 113.213 17.1574 113.24 17.0227 113.267C16.888 113.294 16.7802 113.375 16.6994 113.429C16.6186 113.51 16.5377 113.59 16.5108 113.698C16.4569 113.806 16.4569 113.914 16.4569 114.022C16.4569 114.183 16.5108 114.291 16.5916 114.399C16.6724 114.507 16.7802 114.587 16.9419 114.668C17.0766 114.749 17.2383 114.803 17.4269 114.857C17.6155 114.911 17.8041 114.965 17.9927 115.045C18.1813 115.099 18.37 115.18 18.5586 115.261C18.7472 115.342 18.9088 115.45 19.0436 115.584C19.1783 115.719 19.313 115.881 19.3939 116.069C19.4747 116.258 19.5286 116.473 19.5286 116.743C19.5286 117.039 19.4747 117.309 19.3669 117.551C19.2591 117.794 19.1244 118.036 18.9088 118.225C18.7202 118.413 18.4777 118.575 18.1813 118.683C17.885 118.791 17.5616 118.845 17.2113 118.845C16.9958 118.845 16.7802 118.818 16.5916 118.791C16.376 118.764 16.1874 118.683 15.9988 118.629C15.8102 118.548 15.6485 118.467 15.4599 118.36C15.2983 118.252 15.1366 118.144 15.0288 118.009L15.3791 117.443C15.406 117.39 15.4599 117.363 15.4869 117.336C15.5408 117.309 15.5947 117.282 15.6485 117.282C15.7294 117.282 15.8102 117.309 15.891 117.363C15.9719 117.417 16.0797 117.497 16.2144 117.578C16.3491 117.659 16.4838 117.713 16.6455 117.794C16.8072 117.848 16.9958 117.875 17.2383 117.875C17.5886 117.875 17.858 117.794 18.0466 117.632C18.2352 117.47 18.343 117.228 18.343 116.932C18.343 116.77 18.2891 116.635 18.2083 116.527C18.1274 116.42 17.9927 116.339 17.858 116.258C17.7233 116.177 17.5616 116.123 17.373 116.069C17.1844 116.015 16.9958 115.962 16.8072 115.908C16.6185 115.854 16.4299 115.773 16.2413 115.692C16.0527 115.611 15.891 115.503 15.7563 115.369C15.6216 115.234 15.4869 115.072 15.406 114.857C15.3252 114.668 15.2713 114.399 15.2713 114.102C15.2713 113.86 15.3252 113.644 15.406 113.402C15.5138 113.186 15.6485 112.971 15.8372 112.809C16.0258 112.647 16.2413 112.486 16.5108 112.405C16.7802 112.297 17.0766 112.243 17.4269 112.243C17.8041 112.243 18.1813 112.297 18.5047 112.432C18.828 112.54 19.1244 112.728 19.34 112.944L19.0705 113.537Z" fill="#1D1D1B"/>
<path d="M23.0848 112.351C23.5159 112.351 23.9201 112.405 24.2434 112.513C24.5667 112.621 24.8362 112.755 25.0517 112.944C25.2673 113.132 25.429 113.348 25.5098 113.591C25.6176 113.833 25.6715 114.129 25.6715 114.426C25.6715 114.749 25.6176 115.019 25.5098 115.288C25.402 115.557 25.2403 115.773 25.0248 115.962C24.8092 116.15 24.5398 116.285 24.2164 116.393C23.8931 116.501 23.5159 116.554 23.0848 116.554H22.1687V118.818H20.9292V112.351H23.0848ZM23.0848 115.611C23.3003 115.611 23.5159 115.584 23.6776 115.531C23.8392 115.477 23.9739 115.396 24.1087 115.288C24.2165 115.18 24.2973 115.072 24.3512 114.911C24.4051 114.776 24.432 114.587 24.432 114.426C24.432 114.264 24.4051 114.102 24.3512 113.968C24.2973 113.833 24.2165 113.698 24.1087 113.617C24.0009 113.51 23.8662 113.456 23.7045 113.402C23.5428 113.348 23.3273 113.321 23.1117 113.321H22.1956V115.638H23.0848V115.611Z" fill="#1D1D1B"/>
<path d="M28.2053 118.818H26.9658V112.351H28.2053V118.818Z" fill="#1D1D1B"/>
<path d="M34.6716 113.348H32.6777V118.818H31.4382V113.348H29.4443V112.351H34.6716V113.348Z" fill="#1D1D1B"/>
<path d="M40.9223 118.817H39.9792C39.8714 118.817 39.7906 118.791 39.7098 118.737C39.6289 118.683 39.602 118.629 39.5481 118.548L39.0631 117.228H36.3147L35.8297 118.548C35.8028 118.629 35.7489 118.683 35.695 118.737C35.6142 118.791 35.5333 118.817 35.4256 118.817H34.4556L37.0692 112.378H38.3356L40.9223 118.817ZM38.7667 116.366L37.9584 114.21C37.9314 114.102 37.8775 113.994 37.8237 113.86C37.7698 113.725 37.7428 113.59 37.6889 113.429C37.662 113.59 37.6081 113.725 37.5542 113.86C37.5003 113.994 37.4734 114.102 37.4195 114.21L36.6111 116.339H38.7667V116.366Z" fill="#1D1D1B"/>
<path d="M45.8532 117.821V118.818H41.9731V112.351H43.2126V117.821H45.8532Z" fill="#1D1D1B"/>
<path d="M48.3317 118.818H47.0923V112.351H48.3317V118.818Z" fill="#1D1D1B"/>
<path d="M54.7986 113.348H52.8047V118.818H51.5652V113.348H49.5713V112.351H54.7986V113.348Z" fill="#1D1D1B"/>
<path d="M58.8954 116.312V118.818H57.656V116.312L55.231 112.351H56.3087C56.4165 112.351 56.4974 112.378 56.5512 112.432C56.6051 112.486 56.659 112.54 56.7129 112.621L57.9254 114.776C58.0063 114.911 58.0601 115.019 58.114 115.126C58.1679 115.234 58.2218 115.342 58.2488 115.477C58.2757 115.369 58.3296 115.261 58.3835 115.126C58.4374 115.019 58.4913 114.884 58.5721 114.776L59.7846 112.621C59.8115 112.567 59.8654 112.486 59.9463 112.432C60.0002 112.378 60.1079 112.351 60.2157 112.351H61.2935L58.8954 116.312Z" fill="#1D1D1B"/>
<path d="M21.6569 125.338C21.63 125.392 21.5761 125.446 21.5492 125.473C21.4953 125.5 21.4683 125.527 21.3875 125.527C21.3336 125.527 21.2528 125.5 21.1719 125.446C21.0911 125.392 21.0103 125.338 20.9025 125.284C20.7947 125.23 20.6869 125.177 20.5522 125.123C20.4175 125.069 20.2558 125.042 20.0672 125.042C19.9055 125.042 19.7439 125.069 19.6091 125.096C19.4744 125.123 19.3666 125.203 19.2858 125.257C19.205 125.338 19.1241 125.419 19.0972 125.527C19.0433 125.635 19.0433 125.742 19.0433 125.85C19.0433 126.012 19.0972 126.12 19.178 126.227C19.2589 126.335 19.3666 126.416 19.5283 126.497C19.69 126.578 19.8247 126.632 20.0133 126.685C20.2019 126.739 20.3905 126.793 20.5791 126.874C20.7678 126.928 20.9564 127.009 21.145 127.09C21.3336 127.17 21.4953 127.278 21.63 127.413C21.7647 127.548 21.8994 127.709 21.9803 127.898C22.0611 128.087 22.115 128.302 22.115 128.572C22.115 128.868 22.0611 129.137 21.9533 129.38C21.8455 129.622 21.7108 129.865 21.4953 130.053C21.3067 130.242 21.0641 130.404 20.7678 130.512C20.4714 130.619 20.148 130.673 19.7977 130.673C19.5822 130.673 19.3666 130.646 19.178 130.619C18.9625 130.592 18.7738 130.512 18.5852 130.458C18.3966 130.377 18.235 130.296 18.0463 130.188C17.8847 130.08 17.723 129.973 17.6152 129.838L17.9655 129.272C17.9925 129.218 18.0463 129.191 18.0733 129.164C18.1272 129.137 18.1811 129.11 18.235 129.11C18.3158 129.11 18.3966 129.137 18.4775 129.191C18.5583 129.245 18.6661 129.326 18.8008 129.407C18.9355 129.488 19.0702 129.542 19.2319 129.622C19.3936 129.676 19.5822 129.703 19.8247 129.703C20.175 129.703 20.4444 129.622 20.633 129.461C20.8216 129.299 20.9294 129.057 20.9294 128.76C20.9294 128.598 20.8755 128.464 20.7947 128.356C20.7139 128.248 20.5791 128.167 20.4444 128.087C20.3097 128.006 20.148 127.952 19.9594 127.898C19.7708 127.844 19.5822 127.79 19.3936 127.736C19.205 127.682 19.0163 127.602 18.8277 127.521C18.6391 127.44 18.4775 127.332 18.3427 127.197C18.208 127.063 18.0733 126.901 17.9925 126.685C17.9116 126.497 17.8577 126.227 17.8577 125.931C17.8577 125.688 17.9116 125.473 17.9925 125.23C18.1002 125.015 18.235 124.799 18.4236 124.638C18.6122 124.476 18.8277 124.314 19.0972 124.233C19.3666 124.126 19.663 124.072 20.0133 124.072C20.3905 124.072 20.7678 124.126 21.0911 124.26C21.4144 124.368 21.7108 124.557 21.9264 124.772L21.6569 125.338Z" fill="#1D1D1B"/>
<path d="M26.1842 129.649C26.4267 129.649 26.6423 129.622 26.8309 129.541C27.0195 129.461 27.1812 129.353 27.3159 129.218C27.4506 129.083 27.5314 128.922 27.6123 128.706C27.6931 128.518 27.7201 128.275 27.7201 128.033V124.179H28.9595V128.033C28.9595 128.41 28.9056 128.76 28.7709 129.083C28.6362 129.407 28.4745 129.703 28.232 129.919C27.9895 130.161 27.7201 130.35 27.3698 130.485C27.0195 130.619 26.6423 130.673 26.2381 130.673C25.807 130.673 25.4298 130.619 25.0795 130.485C24.7292 130.35 24.4597 130.161 24.2172 129.919C23.9747 129.676 23.7861 129.407 23.6784 129.083C23.5436 128.76 23.4897 128.41 23.4897 128.033V124.179H24.7292V128.033C24.7292 128.275 24.7561 128.491 24.837 128.706C24.9178 128.895 24.9986 129.083 25.1334 129.218C25.2681 129.353 25.4298 129.461 25.6184 129.541C25.7531 129.622 25.9417 129.649 26.1842 129.649Z" fill="#1D1D1B"/>
<path d="M32.8397 124.179C33.2708 124.179 33.6749 124.233 33.9983 124.341C34.3216 124.449 34.5911 124.584 34.8066 124.772C35.0222 124.961 35.1838 125.176 35.2647 125.419C35.3725 125.661 35.4263 125.958 35.4263 126.254C35.4263 126.578 35.3725 126.847 35.2647 127.116C35.1569 127.386 34.9952 127.601 34.7797 127.79C34.5641 127.979 34.2947 128.113 33.9713 128.221C33.648 128.329 33.2708 128.383 32.8397 128.383H31.9235V130.646H30.6841V124.206H32.8397V124.179ZM32.8397 127.413C33.0552 127.413 33.2708 127.386 33.4324 127.332C33.5941 127.278 33.7288 127.197 33.8636 127.089C33.9713 126.982 34.0522 126.874 34.1061 126.712C34.1599 126.578 34.1869 126.389 34.1869 126.227C34.1869 126.066 34.1599 125.904 34.1061 125.769C34.0522 125.634 33.9713 125.5 33.8636 125.419C33.7558 125.311 33.621 125.257 33.4594 125.203C33.2977 125.149 33.0822 125.123 32.8666 125.123H31.9505V127.44H32.8397V127.413Z" fill="#1D1D1B"/>
<path d="M38.8753 124.179C39.3064 124.179 39.7106 124.233 40.0339 124.341C40.3573 124.449 40.6267 124.584 40.8423 124.772C41.0578 124.961 41.2195 125.176 41.3003 125.419C41.4081 125.661 41.462 125.958 41.462 126.254C41.462 126.578 41.4081 126.847 41.3003 127.116C41.1925 127.386 41.0309 127.601 40.8153 127.79C40.5998 127.979 40.3303 128.113 40.007 128.221C39.6836 128.329 39.3064 128.383 38.8753 128.383H37.9592V130.646H36.7197V124.206H38.8753V124.179ZM38.8753 127.413C39.0909 127.413 39.3064 127.386 39.4681 127.332C39.6297 127.278 39.7645 127.197 39.8992 127.089C40.007 126.982 40.0878 126.874 40.1417 126.712C40.1956 126.551 40.2225 126.389 40.2225 126.227C40.2225 126.066 40.1956 125.904 40.1417 125.769C40.0878 125.634 40.007 125.5 39.8992 125.419C39.7914 125.311 39.6567 125.257 39.495 125.203C39.3334 125.149 39.1178 125.123 38.9022 125.123H37.9861V127.44H38.8753V127.413Z" fill="#1D1D1B"/>
<path d="M46.6349 129.622V130.619H42.7549V124.179H43.9943V129.649H46.6349V129.622Z" fill="#1D1D1B"/>
<path d="M49.1135 130.619H47.874V124.179H49.1135V130.619Z" fill="#1D1D1B"/>
<path d="M52.1853 125.123V126.901H54.5025V127.817H52.1853V129.649H55.1222V130.619H50.9458V124.179H55.1222V125.123H52.1853Z" fill="#1D1D1B"/>
<path d="M60.1071 125.338C60.0802 125.392 60.0263 125.446 59.9994 125.473C59.9455 125.5 59.9185 125.527 59.8377 125.527C59.7838 125.527 59.703 125.5 59.6221 125.446C59.5413 125.392 59.4605 125.338 59.3527 125.284C59.2449 125.23 59.1371 125.177 59.0024 125.123C58.8677 125.069 58.706 125.042 58.5174 125.042C58.3557 125.042 58.1941 125.069 58.0593 125.096C57.9246 125.123 57.8168 125.203 57.736 125.257C57.6552 125.338 57.5743 125.419 57.5474 125.527C57.4935 125.635 57.4935 125.742 57.4935 125.85C57.4935 126.012 57.5474 126.12 57.6282 126.227C57.709 126.335 57.8168 126.416 57.9785 126.497C58.1132 126.578 58.2749 126.632 58.4635 126.685C58.6521 126.739 58.8407 126.793 59.0293 126.874C59.218 126.928 59.4066 127.009 59.5952 127.09C59.7838 127.17 59.9455 127.278 60.0802 127.413C60.2149 127.548 60.3496 127.709 60.4305 127.898C60.5113 128.087 60.5652 128.302 60.5652 128.572C60.5652 128.868 60.5113 129.137 60.4035 129.38C60.2957 129.622 60.161 129.865 59.9455 130.053C59.7568 130.242 59.5143 130.404 59.218 130.512C58.9216 130.619 58.5982 130.673 58.2479 130.673C58.0324 130.673 57.8168 130.646 57.6282 130.619C57.4127 130.592 57.224 130.512 57.0354 130.458C56.8468 130.377 56.6852 130.296 56.4965 130.188C56.3349 130.08 56.1732 129.973 56.0654 129.838L56.4157 129.272C56.4426 129.218 56.4965 129.191 56.5235 129.164C56.5774 129.137 56.6313 129.11 56.6852 129.11C56.766 129.11 56.8468 129.137 56.9277 129.191C57.0085 129.245 57.1163 129.326 57.251 129.407C57.3857 129.488 57.5204 129.542 57.6821 129.622C57.8438 129.676 58.0324 129.703 58.2749 129.703C58.6252 129.703 58.8946 129.622 59.0832 129.461C59.2718 129.299 59.3796 129.057 59.3796 128.76C59.3796 128.598 59.3257 128.464 59.2449 128.356C59.1641 128.248 59.0293 128.167 58.8946 128.087C58.7599 128.006 58.5982 127.952 58.4096 127.898C58.221 127.844 58.0324 127.79 57.8438 127.736C57.6552 127.682 57.4665 127.602 57.2779 127.521C57.0893 127.44 56.9277 127.332 56.7929 127.197C56.6582 127.063 56.5235 126.901 56.4427 126.685C56.3618 126.497 56.3079 126.227 56.3079 125.931C56.3079 125.688 56.3618 125.473 56.4427 125.23C56.5504 125.015 56.6852 124.799 56.8738 124.638C57.0624 124.476 57.2779 124.314 57.5474 124.233C57.8168 124.126 58.1132 124.072 58.4635 124.072C58.8407 124.072 59.2179 124.126 59.5413 124.26C59.8646 124.368 60.161 124.557 60.3766 124.772L60.1071 125.338Z" fill="#1D1D1B"/>
<path d="M48.2806 0.342041H47.7417V91.7115H48.2806V0.342041Z" fill="#1D1D1B"/>
<path d="M48.3342 91.7383H47.6875V0.288086H48.3342V91.7383ZM47.7953 91.6575H48.2533V0.395862H47.7953V91.6575Z" fill="#1D1D1B"/>
<path d="M77.7842 45.7708H5.51855V46.3096H77.7842V45.7708Z" fill="#1D1D1B"/>
<path d="M77.8382 46.3632H5.4917V45.7166H77.8651V46.3632H77.8382ZM5.57253 46.2824H77.7573V45.8243H5.57253V46.2824Z" fill="#1D1D1B"/>
<path d="M77.8928 26.8823H47.7417V46.3364H77.9197V27.2057C77.9197 27.0979 77.9197 26.9901 77.8928 26.8823ZM77.3808 45.7706H48.2806V27.3943H77.3808V45.7706Z" fill="#1D1D1B"/>
<path d="M77.9733 46.3633H47.6875V26.8015H77.9464V26.8554C77.9464 26.9632 77.9733 27.071 77.9733 27.1787V46.3633ZM47.7953 46.2825H77.8925V27.1787C77.8925 27.0979 77.8925 27.0171 77.8655 26.9093H47.7953V46.2825ZM77.4344 45.8245H48.2264V27.3673H77.4075V45.8245H77.4344ZM48.3342 45.7436H77.3267V27.4751H48.3342V45.7436Z" fill="#1D1D1B"/>
<path d="M47.7417 26.8823V46.3364H60.3249V26.8823H47.7417ZM59.786 45.7706H48.2806V27.3943H59.786V45.7706Z" fill="#1D1D1B"/>
<path d="M60.3784 46.3633H47.6875V26.8015H60.3784V46.3633ZM47.7953 46.2825H60.2707V26.9362H47.7953V46.2825ZM59.8395 45.8245H48.2533V27.3673H59.8395V45.8245ZM48.3342 45.7436H59.7318V27.4751H48.3342V45.7436Z" fill="#1D1D1B"/>
<path d="M55.743 32.7834C55.7969 33.3223 56.3358 33.6456 56.4436 33.6995C56.7939 33.8881 57.225 33.9959 57.5752 33.8881C57.9255 33.8073 58.2758 33.5648 58.5183 33.2684C59.6231 32.1097 58.8147 30.1697 57.6561 29.3344C57.0633 28.9303 56.3627 28.7686 55.5544 28.7956C54.7999 28.7956 54.0724 29.0111 53.4258 29.3883C52.7791 29.7656 52.1863 30.2775 51.7552 30.8703C51.3241 31.4631 51.0546 32.1367 50.9469 32.8642C50.8391 33.5648 50.8391 34.427 50.9199 35.1545C51.0007 35.9089 51.2433 36.6634 51.5396 37.364C51.6474 37.6065 52.5097 39.4926 54.3688 40.8398C56.8477 42.5912 59.65 42.3757 60.8894 42.2679C66.8173 41.8098 70.347 36.9867 70.7242 36.4748C73.4457 32.6486 73.3379 28.6339 73.311 26.6939C73.2301 22.9216 72.0176 20.1733 71.2093 18.3949C69.862 15.431 67.922 12.7096 65.5239 10.5271C64.9311 9.98817 61.9942 7.37453 57.225 5.62313C48.4679 2.41671 40.3845 4.62618 37.4745 5.46146C35.9117 5.91952 27.7744 8.37149 20.7958 15.7543C5.65286 31.7864 8.83232 57.303 14.7871 67.9192C17.0774 72.0148 20.2569 75.6254 20.2569 75.6254C23.4363 79.2091 27.0739 82.2538 31.0886 84.598C31.0886 84.598 33.1095 85.7836 35.3189 86.7805C45.6118 91.3881 67.5178 90.0408 69.2962 89.9061V61.5333C69.2962 61.21 69.2693 60.8867 69.2693 60.5364C69.0806 59.6742 68.7573 58.8389 68.3262 58.0844C67.1406 55.9558 65.3084 54.7972 63.9611 54.1774C63.557 54.0158 63.072 53.8541 62.587 53.6655C62.4522 53.6385 62.3175 53.5847 62.2367 53.5847C62.0481 53.5308 61.9403 53.3691 61.9672 53.1805C61.9942 52.9919 62.1558 52.8572 62.3445 52.8572H75.8168C76.2479 53.1805 76.9485 53.8002 77.4874 54.8241C78.1071 55.9827 78.161 57.0336 78.161 57.5725V94.7831H69.1884H46.5279C46.0429 94.7831 45.5849 94.7831 45.1537 94.7831C43.9143 94.7831 42.8904 94.7292 42.109 94.6753C40.169 94.5945 38.0673 94.4867 35.6692 94.0825C34.4298 93.8939 33.1095 93.5975 31.7084 93.2203C30.0917 92.7622 28.5289 92.2233 27.02 91.6036H26.993C26.4811 91.3881 25.9961 91.1725 25.5111 90.93C20.4185 88.5319 15.9457 85.1908 12.2004 80.9605C10.934 79.5324 6.54202 74.4668 3.44338 66.5989C-2.32278 51.941 0.748921 38.7112 1.39559 36.2053C3.65895 27.125 7.91621 21.0624 9.34428 19.1224C11.6885 15.9699 20.3646 4.59923 36.1273 1.2042C38.9834 0.584475 58.4914 -3.6189 70.1584 8.50621C71.2901 9.69178 78.8616 17.8291 78.2149 28.8225C78.0802 30.9511 77.676 32.7025 77.3257 33.915C77.3257 33.942 77.2987 33.9959 77.2718 34.0498C77.0024 34.8312 76.1401 37.0406 74.3079 39.304C73.3379 40.5165 70.0237 44.2349 64.9042 45.6629C63.7456 45.9863 62.5061 46.1749 61.1858 46.2018C60.2967 46.2288 58.4375 46.2557 56.3897 45.6629C55.0694 45.2857 53.6952 44.639 52.4019 43.5612C52.2941 43.4535 49.8691 41.4326 48.8721 38.4956C48.7643 38.1723 48.6566 37.822 48.5757 37.4987C48.4141 36.8251 48.3063 36.1515 48.2793 35.4509C48.2524 34.9389 48.2793 34.3731 48.3332 33.915C48.3871 33.43 48.441 32.9181 48.6027 32.4061V32.3792C48.8721 31.3553 49.3841 30.3314 50.1116 29.55C50.8121 28.7417 51.7013 28.1219 52.6444 27.6908H52.6713C53.6144 27.2867 54.6922 27.0711 55.7161 27.1789C56.3358 27.2328 57.0364 27.3944 57.6561 27.6908C58.0064 27.8525 58.3297 28.0681 58.6261 28.3375C59.4344 29.065 59.9194 30.0081 60.0811 31.032C60.1619 31.5439 60.135 32.0828 60.0003 32.5948C59.8386 33.1067 59.5153 33.5648 59.138 33.8881C58.7608 34.2114 58.2758 34.4809 57.7369 34.5348C57.198 34.5887 56.6861 34.3731 56.3088 34.0767C56.1202 33.915 55.9316 33.7534 55.7969 33.5378C55.6622 33.3223 55.5813 33.0798 55.6083 32.8103C55.6622 32.4331 55.9316 32.1636 55.9586 32.1906C55.9316 32.1636 55.7161 32.4331 55.743 32.7834Z" fill="#1D1D1B"/>
<path d="M140 145.978H124.803C124.668 145.978 124.561 145.924 124.48 145.789L99.2596 105.776L97.8046 103.459H78.0541V136.493C78.0541 137.167 78.108 138.056 78.3775 139.026C78.5391 139.646 78.8086 140.293 79.1858 140.939C81.045 144.146 84.4131 145.062 85.41 145.25C85.5986 145.277 85.7334 145.466 85.7064 145.655C85.6795 145.843 85.5178 145.978 85.3292 145.978H62.2376C62.049 145.978 61.8873 145.843 61.8604 145.655C61.8334 145.466 61.9681 145.304 62.1568 145.25C63.1268 145.035 66.441 144.119 68.2463 140.939C68.4349 140.589 68.5965 140.239 68.7582 139.888C69.2702 138.595 69.4049 137.383 69.3779 136.52V98.717H78.0541V98.7709H96.5651C101.253 98.7709 105.268 98.205 108.475 97.1542C111.654 96.0764 114.295 94.5944 116.262 92.7352C118.229 90.903 119.684 88.6666 120.6 86.1607C121.516 83.6279 121.947 80.8257 121.947 77.9157C121.947 74.9787 121.489 72.2303 120.6 69.7784C119.711 67.3534 118.256 65.1978 116.289 63.3925C114.322 61.5872 111.681 60.1591 108.502 59.1083C106.4 58.4347 103.948 57.9497 101.173 57.7072C99.7446 57.5724 98.2088 57.5185 96.5921 57.5185H83.7125C83.7125 56.818 83.6047 55.6594 82.985 54.393C82.6617 53.7193 82.2575 53.1804 81.9342 52.8032H101.2C110.576 52.8032 117.905 55.0935 122.971 59.6202C128.037 64.1739 130.623 70.2903 130.623 77.8618C130.623 81.3646 130.084 84.571 128.98 87.481C127.956 90.2024 126.474 92.6275 124.534 94.81C120.6 99.175 114.914 101.923 107.666 102.974L108.987 105.103L128.602 136.305C129.195 137.221 129.788 138.029 130.354 138.757C130.866 139.403 131.378 139.969 131.89 140.454C133.102 141.613 134.207 142.34 134.88 142.745L134.907 142.798C135.689 143.176 136.524 143.634 137.413 144.2C138.41 144.792 139.246 145.412 140 145.978Z" fill="#1D1D1B"/>
</svg>
