<svg width="100" height="103" viewBox="0 0 100 103" fill="none" xmlns="http://www.w3.org/2000/svg">
<path d="M89.3157 77.6711C89.4358 77.551 89.5558 77.3109 89.6759 77.1909C90.036 76.5906 90.3962 76.1104 90.6363 75.5102C90.7563 75.2701 90.8764 75.1501 90.9964 74.91C91.3565 74.3097 91.5966 73.7095 91.9568 73.1092C92.0768 72.9892 92.0768 72.7491 92.1969 72.629C92.557 71.9088 92.9172 71.1885 93.1573 70.4682C93.1573 70.4682 93.1573 70.3481 93.2773 70.3481C93.6375 69.5078 93.8776 68.7875 94.2377 67.9472C94.2377 67.8271 94.3577 67.7071 94.3577 67.467C94.5978 66.8667 94.8379 66.1464 94.958 65.5462C95.078 65.3061 95.078 64.946 95.1981 64.7059C95.3181 64.2257 95.5582 63.6254 95.6783 63.0252C95.7983 62.6651 95.7983 62.425 95.9184 62.0648C96.0384 61.5846 96.1585 60.9844 96.2785 60.5042C96.3986 60.1441 96.3986 59.904 96.3986 59.5438C96.5186 59.0636 96.5186 58.4634 96.6387 57.9832C96.6387 57.623 96.7587 57.3829 96.7587 57.0228C96.8788 56.4226 96.8787 55.8223 96.8787 55.2221C96.8787 54.982 96.8788 54.6218 96.9988 54.3817C96.9988 53.5414 97.1189 52.581 97.1189 51.7407C97.1189 51.3805 97.1189 50.9004 97.1189 50.5402C96.2785 25.2101 75.3902 4.68187 49.6999 4.68187C48.9796 4.68187 48.1393 4.68187 47.419 4.80191H47.2989C46.9388 4.80191 46.5786 4.80191 46.2185 4.92196C45.7383 4.92196 45.2581 5.04201 44.6579 5.04201C44.5378 5.04201 44.4178 5.04201 44.2977 5.04201C42.7371 5.28211 41.1765 5.5222 39.6158 5.7623C37.455 6.12244 35.2941 6.60263 33.2533 7.32292C28.9316 8.7635 24.97 10.8043 21.4886 13.4454C18.0072 16.0864 14.886 19.2077 12.2449 22.8091C10.2041 25.4502 8.64346 28.3313 7.20288 31.3325C6.36254 33.0132 5.64226 34.8139 5.04202 36.7347C5.04202 36.8547 4.92197 36.9748 4.92197 36.9748C4.68187 37.575 4.44178 38.2953 4.32173 39.0156C4.32173 39.1356 4.20168 39.3757 4.20168 39.4958C4.08163 40.096 3.84154 40.6963 3.72149 41.2965C3.72149 41.5366 3.60144 41.7767 3.60144 41.8968C3.48139 42.497 3.36134 43.0972 3.2413 43.5774C3.2413 43.8175 3.12125 44.0576 3.12125 44.2977C3.0012 44.898 3.0012 45.3781 2.88115 45.9784C2.88115 46.2185 2.7611 46.4586 2.7611 46.8187C2.64106 47.419 2.64106 48.0192 2.64106 48.6194C2.64106 48.8595 2.64106 49.0996 2.64106 49.3397C2.40096 50.3001 2.40096 51.1404 2.40096 51.9808V99.2797H49.0996H49.2197C49.3397 99.2797 49.5798 99.2797 49.6999 99.2797C49.8199 99.2797 50.06 99.2797 50.1801 99.2797H50.3001H78.3914H78.9916V89.0756C82.3529 86.4346 85.3541 83.3133 87.9952 79.7119C88.1153 79.5918 88.1152 79.4718 88.2353 79.3517C88.5954 78.8715 88.9556 78.2713 89.3157 77.6711ZM12.2449 36.8547C12.8451 33.2533 14.1657 29.892 15.9664 26.5306C17.7671 23.1693 19.928 20.1681 22.569 17.527C25.2101 14.8859 28.2113 12.605 31.4526 10.8043C34.6939 9.00359 38.1753 7.92316 41.7767 7.56302C44.1777 7.32292 46.5786 7.32292 48.9796 7.80311V51.1404H11.4046C11.1645 46.4586 11.4046 41.5366 12.2449 36.8547ZM95.5582 51.2605H50.4202V8.28331C50.9004 8.40335 51.3806 8.40335 51.8607 8.64345C55.2221 9.60383 58.2233 11.2845 60.9844 13.4454C63.7455 15.7263 65.9064 18.4874 67.587 21.9688C69.2677 25.4502 70.108 29.4118 70.108 33.8535C71.5486 33.9736 72.9892 33.8535 74.1897 33.6134C75.1501 33.2533 76.1104 32.6531 77.0708 31.8127C77.9112 30.9724 78.5114 29.892 78.6315 28.2113C78.8715 25.4502 78.3914 23.0492 77.1909 20.6483C75.9904 18.3673 74.1897 16.0864 71.6687 13.6855C68.4274 10.8043 64.7059 8.64345 60.3842 7.20287C60.2641 7.20287 60.1441 7.20287 60.1441 7.08283C80.072 11.8847 95.1981 29.7719 95.5582 51.2605ZM48.9796 52.7011V94.5978C48.2593 94.4778 47.419 94.3577 46.5786 94.2377C41.8968 93.3974 37.575 91.7167 33.4934 89.1957C29.4118 86.7947 25.8103 83.6735 22.569 80.072C19.3277 76.3505 16.8067 72.2689 14.886 67.8271C13.2053 63.3853 12.0048 58.4634 11.5246 53.0612C11.5246 52.9412 11.5246 52.8211 11.5246 52.7011H48.9796ZM3.84154 63.3853C3.96158 63.7455 3.96158 63.9856 4.08163 64.3457C4.08163 64.4658 4.20168 64.5858 4.20168 64.7059C4.44178 65.6663 4.80192 66.6266 5.04202 67.467C5.04202 67.467 5.04202 67.467 5.04202 67.587C5.7623 69.6278 6.60264 71.6687 7.68307 73.5894C9.60384 77.7911 12.0048 81.6326 15.006 84.994C18.7275 89.1957 23.1693 92.557 28.2113 94.958C30.7323 96.1585 33.0132 96.8787 34.3337 97.2389C34.6939 97.3589 35.5342 97.599 36.6146 97.7191H3.84154V63.3853ZM50.4202 66.8667C51.1405 68.1873 52.3409 69.2677 53.7815 69.8679C54.7419 70.2281 55.7023 70.3481 56.7827 70.2281C57.7431 70.108 58.8235 69.7479 59.5438 69.0276C60.2641 68.3073 60.7443 67.3469 60.8643 66.3865C60.9844 65.4262 60.5042 64.3457 59.6639 63.7455C58.8235 63.0252 57.6231 63.2653 56.9028 64.1056C56.1825 64.8259 56.3025 66.0264 56.9028 66.7467C56.3025 66.0264 56.3025 64.8259 57.0228 64.2257C57.623 63.5054 58.8235 63.3853 59.5438 63.9856C60.2641 64.5858 60.6243 65.4262 60.5042 66.3865C60.3842 67.2269 59.904 68.1873 59.3037 68.7875C57.9832 69.988 55.8223 70.108 54.1417 69.3877C52.461 68.6675 51.1405 67.1068 50.6603 65.4262C50.4202 64.946 50.4202 64.5858 50.4202 64.2257V61.8247C50.7803 59.3037 52.1008 56.9028 54.0216 55.3421C56.6627 53.3013 60.2641 52.8211 63.5054 53.4214C63.8655 53.4214 64.1056 53.5414 64.4658 53.6615C65.3061 53.9016 66.5066 54.1416 67.8271 54.982C70.8283 57.0228 71.5486 60.2641 71.7887 61.3445V87.395C71.0684 88.3553 69.8679 89.5558 68.3073 90.7563C67.467 91.3565 65.3061 93.0372 61.9448 93.9976C58.2233 94.958 54.3818 94.8379 51.7407 94.7179C51.2605 94.7179 50.7803 94.7179 50.1801 94.5978V66.8667H50.4202ZM53.3013 54.6218C51.9808 55.7023 51.0204 57.0228 50.4202 58.5834V52.7011H56.7827C55.4622 53.0612 54.2617 53.6615 53.3013 54.6218ZM78.0312 56.0624C77.0708 54.0216 75.6303 53.0612 74.91 52.7011H95.5582C95.3181 66.6266 88.9556 78.9916 78.9916 87.2749V60.144C78.9916 58.2233 78.3914 56.7827 78.0312 56.0624ZM72.1489 93.9976C72.9892 94.5978 73.8295 95.1981 74.6699 95.9184C75.3902 96.5186 76.1104 97.2389 76.8307 97.8391H61.2245C61.5846 97.7191 61.9448 97.599 62.3049 97.599C62.545 97.599 62.6651 97.479 62.9052 97.479C63.8655 97.2389 64.8259 96.8787 65.7863 96.5186C66.7467 96.1585 67.7071 95.7983 68.7875 95.3181C68.9076 95.3181 69.0276 95.1981 69.1477 95.1981C70.108 94.7179 71.0684 94.3577 71.9088 93.8775C71.9088 93.7575 72.0288 93.8775 72.1489 93.9976Z" fill="#9EA08A"/>
</svg>
