<svg width="100" height="105" viewBox="0 0 100 105" fill="none" xmlns="http://www.w3.org/2000/svg">
<path d="M4.24913 80.2512V84.8511H3.3638V82.8302H1.15047V84.8511H0.265137V80.2512H1.15047V82.2336H3.3638V80.2512H4.24913Z" fill="#1D1D1B"/>
<path d="M10.0807 82.5608C10.0807 82.9072 10.023 83.2152 9.90749 83.5039C9.79201 83.7925 9.63804 84.0427 9.42633 84.2545C9.21462 84.4662 8.96442 84.6201 8.67573 84.7549C8.38703 84.8703 8.05985 84.9281 7.69417 84.9281C7.32849 84.9281 7.00129 84.8703 6.7126 84.7549C6.4239 84.6394 6.1737 84.4662 5.96199 84.2545C5.75028 84.0427 5.59631 83.7925 5.48083 83.5039C5.36536 83.2152 5.30762 82.9072 5.30762 82.5608C5.30762 82.2144 5.36536 81.9064 5.48083 81.6177C5.59631 81.329 5.75028 81.0788 5.96199 80.8671C6.1737 80.6554 6.4239 80.5014 6.7126 80.3667C7.00129 80.2512 7.32849 80.1935 7.69417 80.1935C7.92512 80.1935 8.15607 80.2127 8.36778 80.2705C8.57949 80.3282 8.77196 80.4052 8.94517 80.5014C9.11839 80.5977 9.27236 80.7131 9.42633 80.8671C9.56106 81.0018 9.69578 81.175 9.79202 81.3483C9.88825 81.5215 9.96523 81.7139 10.023 81.9064C10.0422 82.1181 10.0807 82.3298 10.0807 82.5608ZM9.17613 82.5608C9.17613 82.3106 9.13764 82.0796 9.0799 81.8872C9.00292 81.6947 8.90668 81.5215 8.79121 81.3675C8.65648 81.2328 8.50251 81.1173 8.32929 81.0403C8.13683 80.9633 7.94436 80.9248 7.71341 80.9248C7.48245 80.9248 7.27074 80.9633 7.09753 81.0403C6.90506 81.1173 6.7511 81.2135 6.63562 81.3675C6.50089 81.5022 6.40466 81.6755 6.32768 81.8872C6.25069 82.0796 6.23144 82.3106 6.23144 82.5608C6.23144 82.811 6.26994 83.0419 6.32768 83.2344C6.40466 83.4269 6.50089 83.6001 6.63562 83.7348C6.77034 83.8695 6.92431 83.985 7.09753 84.062C7.28999 84.139 7.48245 84.1775 7.71341 84.1775C7.94436 84.1775 8.15607 84.139 8.32929 84.062C8.52175 83.985 8.67573 83.8888 8.79121 83.7348C8.92593 83.6001 9.02216 83.4269 9.0799 83.2344C9.13764 83.0419 9.17613 82.811 9.17613 82.5608Z" fill="#1D1D1B"/>
<path d="M13.6218 81.098C13.6026 81.1365 13.5641 81.175 13.5448 81.1942C13.5256 81.2135 13.4871 81.2135 13.4294 81.2135C13.3909 81.2135 13.3331 81.1942 13.2754 81.1558C13.2176 81.1173 13.1599 81.0788 13.0829 81.0403C13.0059 81.0018 12.9289 80.9633 12.8327 80.9248C12.7365 80.8863 12.621 80.8671 12.4863 80.8671C12.3708 80.8671 12.2553 80.8863 12.1591 80.9056C12.0629 80.9248 11.9859 80.9825 11.9281 81.021C11.8704 81.0788 11.8127 81.1365 11.7934 81.2135C11.7549 81.2905 11.7549 81.3675 11.7549 81.4445C11.7549 81.5599 11.7934 81.6369 11.8512 81.7139C11.9089 81.7909 11.9859 81.8486 12.1014 81.9064C12.1976 81.9641 12.3131 82.0026 12.4478 82.0411C12.5825 82.0796 12.7172 82.1181 12.852 82.1758C12.9867 82.2143 13.1214 82.272 13.2561 82.3298C13.3909 82.3875 13.5063 82.4645 13.6026 82.5607C13.6988 82.657 13.795 82.7725 13.8528 82.9072C13.9105 83.0419 13.949 83.1959 13.949 83.3883C13.949 83.6 13.9105 83.7925 13.8335 83.9657C13.7565 84.1389 13.6603 84.3122 13.5063 84.4469C13.3716 84.5816 13.1984 84.6971 12.9867 84.7741C12.775 84.8511 12.544 84.8895 12.2938 84.8895C12.1398 84.8895 11.9859 84.8703 11.8512 84.851C11.6972 84.8318 11.5625 84.7741 11.4277 84.7356C11.293 84.6778 11.1775 84.6201 11.0428 84.5431C10.9273 84.4661 10.8118 84.3891 10.7349 84.2929L10.9851 83.8887C11.0043 83.8502 11.0428 83.831 11.0621 83.8118C11.1005 83.7925 11.139 83.7733 11.1775 83.7733C11.2353 83.7733 11.293 83.7925 11.3507 83.831C11.4085 83.8695 11.4855 83.9272 11.5817 83.985C11.6779 84.0427 11.7742 84.0812 11.8896 84.1389C12.0051 84.1774 12.1398 84.1967 12.3131 84.1967C12.5633 84.1967 12.7557 84.1389 12.8905 84.0235C13.0252 83.908 13.1022 83.7348 13.1022 83.5231C13.1022 83.4076 13.0637 83.3113 13.0059 83.2344C12.9482 83.1574 12.852 83.0996 12.7557 83.0419C12.6595 82.9842 12.544 82.9457 12.4093 82.9072C12.2746 82.8687 12.1398 82.8302 12.0051 82.7917C11.8704 82.7532 11.7357 82.6955 11.6009 82.6377C11.4662 82.58 11.3507 82.503 11.2545 82.4068C11.1583 82.3105 11.0621 82.1951 11.0043 82.0411C10.9466 81.9064 10.9081 81.7139 10.9081 81.5022C10.9081 81.329 10.9466 81.175 11.0043 81.0018C11.0813 80.8478 11.1775 80.6938 11.3123 80.5784C11.447 80.4629 11.601 80.3474 11.7934 80.2897C11.9859 80.2127 12.1976 80.1742 12.4478 80.1742C12.7172 80.1742 12.9867 80.2127 13.2176 80.3089C13.4486 80.3859 13.6603 80.5206 13.8143 80.6746L13.6218 81.098Z" fill="#1D1D1B"/>
<path d="M16.4894 80.2512C16.7974 80.2512 17.086 80.2897 17.317 80.3667C17.548 80.4437 17.7404 80.5399 17.8944 80.6746C18.0484 80.8094 18.1638 80.9633 18.2216 81.1366C18.2986 81.3098 18.3371 81.5215 18.3371 81.7332C18.3371 81.9641 18.2986 82.1566 18.2216 82.3491C18.1446 82.5415 18.0291 82.6955 17.8752 82.8302C17.7212 82.965 17.5287 83.0612 17.2978 83.1382C17.0668 83.2151 16.7974 83.2537 16.4894 83.2537H15.835V84.8703H14.9497V80.2512H16.4894ZM16.4894 82.58C16.6434 82.58 16.7974 82.5608 16.9128 82.5223C17.0283 82.4838 17.1245 82.4261 17.2208 82.3491C17.2978 82.2721 17.3555 82.1951 17.394 82.0796C17.4325 81.9834 17.4517 81.8487 17.4517 81.7332C17.4517 81.6177 17.4325 81.5022 17.394 81.406C17.3555 81.3098 17.2978 81.2135 17.2208 81.1558C17.1438 81.0788 17.0476 81.0403 16.9321 81.0018C16.8166 80.9633 16.6626 80.9441 16.5087 80.9441H15.8543V82.5993H16.4894V82.58Z" fill="#1D1D1B"/>
<path d="M20.1466 84.8703H19.2612V80.2512H20.1466V84.8703Z" fill="#1D1D1B"/>
<path d="M24.7655 80.9633H23.3413V84.8703H22.456V80.9633H21.0317V80.2512H24.7655V80.9633Z" fill="#1D1D1B"/>
<path d="M29.2304 84.8704H28.5568C28.4798 84.8704 28.4221 84.8511 28.3644 84.8126C28.3066 84.7742 28.2874 84.7357 28.2489 84.6779L27.9024 83.7349H25.9393L25.5929 84.6779C25.5736 84.7357 25.5352 84.7742 25.4967 84.8126C25.4389 84.8511 25.3812 84.8704 25.3042 84.8704H24.6113L26.4782 80.2705H27.3828L29.2304 84.8704ZM27.6907 83.119L27.1133 81.5793C27.0941 81.5023 27.0556 81.4253 27.0171 81.3291C26.9786 81.2328 26.9594 81.1366 26.9209 81.0211C26.9016 81.1366 26.8631 81.2328 26.8247 81.3291C26.7862 81.4253 26.7669 81.5023 26.7284 81.5793L26.151 83.0997H27.6907V83.119Z" fill="#1D1D1B"/>
<path d="M32.7529 84.1582V84.8703H29.9814V80.2512H30.8668V84.1582H32.7529Z" fill="#1D1D1B"/>
<path d="M34.523 84.8703H33.6377V80.2512H34.523V84.8703Z" fill="#1D1D1B"/>
<path d="M39.142 80.9633H37.7178V84.8703H36.8324V80.9633H35.4082V80.2512H39.142V80.9633Z" fill="#1D1D1B"/>
<path d="M42.0687 83.0804V84.8703H41.1833V83.0804L39.4512 80.2512H40.221C40.298 80.2512 40.3557 80.2705 40.3942 80.309C40.4327 80.3475 40.4712 80.3859 40.5097 80.4437L41.3758 81.9834C41.4335 82.0796 41.472 82.1566 41.5105 82.2336C41.549 82.3106 41.5875 82.3876 41.6068 82.4838C41.626 82.4068 41.6645 82.3298 41.703 82.2336C41.7415 82.1566 41.78 82.0604 41.8377 81.9834L42.7038 80.4437C42.723 80.4052 42.7615 80.3475 42.8193 80.309C42.8578 80.2705 42.9348 80.2512 43.0117 80.2512H43.7816L42.0687 83.0804Z" fill="#1D1D1B"/>
<path d="M15.4695 89.5279C15.4502 89.5663 15.4117 89.6048 15.3925 89.6241C15.354 89.6433 15.3347 89.6626 15.277 89.6626C15.2385 89.6626 15.1808 89.6433 15.123 89.6048C15.0653 89.5664 15.0076 89.5279 14.9306 89.4894C14.8536 89.4509 14.7766 89.4124 14.6804 89.3739C14.5841 89.3354 14.4687 89.3162 14.3339 89.3162C14.2185 89.3162 14.103 89.3354 14.0067 89.3546C13.9105 89.3739 13.8335 89.4316 13.7758 89.4701C13.7181 89.5279 13.6603 89.5856 13.6411 89.6626C13.6026 89.7396 13.6026 89.8166 13.6026 89.8935C13.6026 90.009 13.6411 90.086 13.6988 90.163C13.7565 90.24 13.8335 90.2977 13.949 90.3554C14.0645 90.4132 14.1607 90.4517 14.2954 90.4902C14.4302 90.5287 14.5649 90.5672 14.6996 90.6249C14.8343 90.6634 14.9691 90.7211 15.1038 90.7789C15.2385 90.8366 15.354 90.9136 15.4502 91.0098C15.5465 91.1061 15.6427 91.2215 15.7004 91.3563C15.7582 91.491 15.7967 91.645 15.7967 91.8374C15.7967 92.0491 15.7582 92.2416 15.6812 92.4148C15.6042 92.588 15.508 92.7612 15.354 92.896C15.2193 93.0307 15.046 93.1462 14.8343 93.2232C14.6226 93.3001 14.3917 93.3386 14.1415 93.3386C13.9875 93.3386 13.8335 93.3194 13.6988 93.3002C13.5448 93.2809 13.4101 93.2232 13.2754 93.1847C13.1407 93.1269 13.0252 93.0692 12.8905 92.9922C12.775 92.9152 12.6595 92.8382 12.5825 92.742L12.8327 92.3378C12.852 92.2993 12.8905 92.2801 12.9097 92.2608C12.9482 92.2416 12.9867 92.2223 13.0252 92.2223C13.0829 92.2223 13.1407 92.2416 13.1984 92.2801C13.2561 92.3186 13.3331 92.3763 13.4294 92.4341C13.5256 92.4918 13.6218 92.5303 13.7373 92.588C13.8528 92.6265 13.9875 92.6458 14.1607 92.6458C14.4109 92.6458 14.6034 92.588 14.7381 92.4726C14.8728 92.3571 14.9498 92.1839 14.9498 91.9721C14.9498 91.8567 14.9113 91.7604 14.8536 91.6835C14.7958 91.6065 14.6996 91.5487 14.6034 91.491C14.5072 91.4333 14.3917 91.3948 14.2569 91.3563C14.1222 91.3178 13.9875 91.2793 13.8528 91.2408C13.7181 91.2023 13.5833 91.1446 13.4486 91.0868C13.3139 91.0291 13.1984 90.9521 13.1022 90.8559C13.0059 90.7596 12.9097 90.6441 12.852 90.4902C12.7942 90.3554 12.7557 90.163 12.7557 89.9513C12.7557 89.7781 12.7942 89.6241 12.852 89.4509C12.929 89.2969 13.0252 89.1429 13.1599 89.0275C13.2946 88.912 13.4486 88.7965 13.6411 88.7388C13.8335 88.6618 14.0452 88.6233 14.2954 88.6233C14.5649 88.6233 14.8343 88.6618 15.0653 88.758C15.2962 88.835 15.508 88.9697 15.6619 89.1237L15.4695 89.5279Z" fill="#1D1D1B"/>
<path d="M18.703 92.6075C18.8762 92.6075 19.0301 92.5882 19.1649 92.5305C19.2996 92.4727 19.4151 92.3957 19.5113 92.2995C19.6075 92.2033 19.6653 92.0878 19.723 91.9338C19.7807 91.7991 19.8 91.6259 19.8 91.4527V88.7004H20.6853V91.4527C20.6853 91.7221 20.6468 91.9723 20.5506 92.2033C20.4544 92.4342 20.3389 92.6459 20.1657 92.7999C19.9925 92.9731 19.8 93.1079 19.5498 93.2041C19.2996 93.3003 19.0301 93.3388 18.7414 93.3388C18.4335 93.3388 18.1641 93.3003 17.9139 93.2041C17.6637 93.1079 17.4712 92.9731 17.298 92.7999C17.1247 92.6267 16.99 92.4342 16.913 92.2033C16.8168 91.9723 16.7783 91.7221 16.7783 91.4527V88.7004H17.6636V91.4527C17.6636 91.6259 17.6829 91.7799 17.7406 91.9338C17.7984 92.0685 17.8561 92.2033 17.9523 92.2995C18.0486 92.3957 18.1641 92.4727 18.2988 92.5305C18.395 92.5882 18.5297 92.6075 18.703 92.6075Z" fill="#1D1D1B"/>
<path d="M23.4567 88.7004C23.7646 88.7004 24.0533 88.7389 24.2843 88.8159C24.5152 88.8929 24.7077 88.9891 24.8617 89.1239C25.0156 89.2586 25.1311 89.4126 25.1889 89.5858C25.2659 89.759 25.3043 89.9707 25.3043 90.1824C25.3043 90.4134 25.2659 90.6058 25.1889 90.7983C25.1119 90.9908 24.9964 91.1447 24.8424 91.2795C24.6885 91.4142 24.496 91.5104 24.265 91.5874C24.0341 91.6644 23.7646 91.7029 23.4567 91.7029H22.8023V93.3196H21.917V88.7197H23.4567V88.7004ZM23.4567 91.01C23.6107 91.01 23.7646 90.9908 23.8801 90.9523C23.9956 90.9138 24.0918 90.856 24.1881 90.779C24.265 90.7021 24.3228 90.6251 24.3613 90.5096C24.3998 90.4134 24.419 90.2786 24.419 90.1632C24.419 90.0477 24.3998 89.9322 24.3613 89.836C24.3228 89.7397 24.265 89.6435 24.1881 89.5858C24.1111 89.5088 24.0148 89.4703 23.8994 89.4318C23.7839 89.3933 23.6299 89.3741 23.4759 89.3741H22.8216V91.0293H23.4567V91.01Z" fill="#1D1D1B"/>
<path d="M27.7687 88.7004C28.0767 88.7004 28.3653 88.7389 28.5963 88.8159C28.8273 88.8929 29.0197 88.9891 29.1737 89.1239C29.3277 89.2586 29.4431 89.4126 29.5009 89.5858C29.5779 89.759 29.6164 89.9707 29.6164 90.1824C29.6164 90.4134 29.5779 90.6058 29.5009 90.7983C29.4239 90.9908 29.3084 91.1447 29.1544 91.2795C29.0005 91.4142 28.808 91.5104 28.5771 91.5874C28.3461 91.6644 28.0767 91.7029 27.7687 91.7029H27.1143V93.3196H26.229V88.7197H27.7687V88.7004ZM27.7687 91.01C27.9227 91.01 28.0766 90.9908 28.1921 90.9523C28.3076 90.9138 28.4038 90.856 28.5001 90.779C28.5771 90.7021 28.6348 90.6251 28.6733 90.5096C28.7118 90.3941 28.731 90.2786 28.731 90.1632C28.731 90.0477 28.7118 89.9322 28.6733 89.836C28.6348 89.7397 28.5771 89.6435 28.5001 89.5858C28.4231 89.5088 28.3269 89.4703 28.2114 89.4318C28.0959 89.3933 27.9419 89.3741 27.788 89.3741H27.1336V91.0293H27.7687V91.01Z" fill="#1D1D1B"/>
<path d="M33.311 92.5882V93.3003H30.5396V88.7004H31.4249V92.6075H33.311V92.5882Z" fill="#1D1D1B"/>
<path d="M35.0816 93.3003H34.1963V88.7004H35.0816V93.3003Z" fill="#1D1D1B"/>
<path d="M37.276 89.3741V90.6443H38.9311V91.2987H37.276V92.6075H39.3738V93.3003H36.3906V88.7004H39.3738V89.3741H37.276Z" fill="#1D1D1B"/>
<path d="M42.9338 89.5279C42.9146 89.5663 42.8761 89.6048 42.8568 89.6241C42.8183 89.6433 42.7991 89.6626 42.7414 89.6626C42.7029 89.6626 42.6451 89.6433 42.5874 89.6048C42.5297 89.5664 42.4719 89.5279 42.3949 89.4894C42.3179 89.4509 42.2409 89.4124 42.1447 89.3739C42.0485 89.3354 41.933 89.3162 41.7983 89.3162C41.6828 89.3162 41.5673 89.3354 41.4711 89.3546C41.3749 89.3739 41.2979 89.4316 41.2401 89.4701C41.1824 89.5279 41.1247 89.5856 41.1054 89.6626C41.0669 89.7396 41.0669 89.8166 41.0669 89.8935C41.0669 90.009 41.1054 90.086 41.1632 90.163C41.2209 90.24 41.2979 90.2977 41.4134 90.3554C41.5096 90.4132 41.6251 90.4517 41.7598 90.4902C41.8945 90.5287 42.0292 90.5672 42.164 90.6249C42.2987 90.6634 42.4334 90.7211 42.5681 90.7789C42.7029 90.8366 42.8183 90.9136 42.9146 91.0098C43.0108 91.1061 43.107 91.2215 43.1648 91.3563C43.2225 91.491 43.261 91.645 43.261 91.8374C43.261 92.0491 43.2225 92.2416 43.1455 92.4148C43.0685 92.588 42.9723 92.7612 42.8183 92.896C42.6836 93.0307 42.5104 93.1462 42.2987 93.2232C42.087 93.3001 41.856 93.3386 41.6058 93.3386C41.4519 93.3386 41.2979 93.3194 41.1632 93.3002C41.0092 93.2809 40.8745 93.2232 40.7397 93.1847C40.605 93.1269 40.4895 93.0692 40.3548 92.9922C40.2393 92.9152 40.1239 92.8382 40.0469 92.742L40.2971 92.3378C40.3163 92.2993 40.3548 92.2801 40.3741 92.2608C40.4126 92.2416 40.451 92.2223 40.4895 92.2223C40.5473 92.2223 40.605 92.2416 40.6628 92.2801C40.7205 92.3186 40.7975 92.3763 40.8937 92.4341C40.9899 92.4918 41.0862 92.5303 41.2017 92.588C41.3171 92.6265 41.4519 92.6458 41.6251 92.6458C41.8753 92.6458 42.0677 92.588 42.2025 92.4726C42.3372 92.3571 42.4142 92.1839 42.4142 91.9721C42.4142 91.8567 42.3757 91.7604 42.3179 91.6835C42.2602 91.6065 42.164 91.5487 42.0677 91.491C41.9715 91.4333 41.856 91.3948 41.7213 91.3563C41.5866 91.3178 41.4519 91.2793 41.3171 91.2408C41.1824 91.2023 41.0477 91.1446 40.913 91.0868C40.7782 91.0291 40.6628 90.9521 40.5665 90.8559C40.4703 90.7596 40.3741 90.6441 40.3163 90.4902C40.2586 90.3554 40.2201 90.163 40.2201 89.9513C40.2201 89.7781 40.2586 89.6241 40.3163 89.4509C40.3933 89.2969 40.4895 89.1429 40.6243 89.0275C40.759 88.912 40.913 88.7965 41.1054 88.7388C41.2979 88.6618 41.5096 88.6233 41.7598 88.6233C42.0292 88.6233 42.2987 88.6618 42.5296 88.758C42.7606 88.835 42.9723 88.9697 43.1263 89.1237L42.9338 89.5279Z" fill="#1D1D1B"/>
<path d="M34.486 0.244385H34.1011V65.5087H34.486V0.244385Z" fill="#1D1D1B"/>
<path d="M34.5244 65.5279H34.0625V0.205811H34.5244V65.5279ZM34.1395 65.4701H34.4667V0.282794H34.1395V65.4701Z" fill="#1D1D1B"/>
<path d="M55.5601 32.6936H3.94141V33.0785H55.5601V32.6936Z" fill="#1D1D1B"/>
<path d="M55.5988 33.1171H3.92236V32.6552H55.618V33.1171H55.5988ZM3.9801 33.0593H55.541V32.7321H3.9801V33.0593Z" fill="#1D1D1B"/>
<path d="M55.6377 19.2019H34.1011V33.0978H55.657V19.4329C55.657 19.3559 55.657 19.2789 55.6377 19.2019ZM55.272 32.6936H34.486V19.5676H55.272V32.6936Z" fill="#1D1D1B"/>
<path d="M55.6954 33.117H34.0625V19.1442H55.6761V19.1827C55.6761 19.2596 55.6954 19.3366 55.6954 19.4136V33.117ZM34.1395 33.0593H55.6376V19.4136C55.6376 19.3559 55.6376 19.2981 55.6184 19.2211H34.1395V33.0593ZM55.3105 32.7321H34.4474V19.5483H55.2912V32.7321H55.3105ZM34.5244 32.6743H55.2335V19.6253H34.5244V32.6743Z" fill="#1D1D1B"/>
<path d="M34.1011 19.2019V33.0978H43.0891V19.2019H34.1011ZM42.7042 32.6936H34.486V19.5676H42.7042V32.6936Z" fill="#1D1D1B"/>
<path d="M43.1275 33.117H34.0625V19.1442H43.1275V33.117ZM34.1395 33.0593H43.0505V19.2404H34.1395V33.0593ZM42.7426 32.7321H34.4667V19.5483H42.7426V32.7321ZM34.5244 32.6743H42.6656V19.6253H34.5244V32.6743Z" fill="#1D1D1B"/>
<path d="M39.8167 23.4168C39.8552 23.8018 40.2401 24.0327 40.3171 24.0712C40.5673 24.2059 40.8753 24.2829 41.1255 24.206C41.3757 24.1482 41.6259 23.975 41.7991 23.7633C42.5882 22.9357 42.0108 21.55 41.1832 20.9533C40.7598 20.6646 40.2594 20.5491 39.682 20.5684C39.1431 20.5684 38.6234 20.7224 38.1615 20.9918C37.6996 21.2613 37.2762 21.6269 36.9683 22.0504C36.6603 22.4738 36.4679 22.9549 36.3909 23.4746C36.3139 23.975 36.3139 24.5909 36.3716 25.1105C36.4294 25.6494 36.6026 26.1883 36.8143 26.6887C36.8913 26.8619 37.5072 28.2092 38.8351 29.1715C40.6058 30.4225 42.6074 30.2685 43.4928 30.1916C47.727 29.8644 50.2482 26.4193 50.5177 26.0536C52.4615 23.3206 52.3846 20.4529 52.3653 19.0672C52.3076 16.3727 51.4415 14.4096 50.8641 13.1393C49.9018 11.0222 48.516 9.07833 46.8031 7.51938C46.3797 7.13445 44.2819 5.26756 40.8753 4.01655C34.6202 1.72623 28.8463 3.30444 26.7677 3.90107C25.6514 4.22826 19.839 5.97967 14.8542 11.2532C4.03778 22.7047 6.30884 40.931 10.5623 48.5141C12.1982 51.4395 14.4693 54.0185 14.4693 54.0185C16.7404 56.5783 19.3386 58.7531 22.2063 60.4276C22.2063 60.4276 23.6498 61.2744 25.228 61.9865C32.5801 65.2776 48.2274 64.3153 49.4976 64.2191V43.9527C49.4976 43.7217 49.4784 43.4908 49.4784 43.2406C49.3437 42.6247 49.1127 42.0281 48.8047 41.4892C47.9579 39.9687 46.6492 39.1411 45.6868 38.6984C45.3981 38.583 45.0517 38.4675 44.7053 38.3328C44.609 38.3135 44.5128 38.275 44.4551 38.275C44.3204 38.2365 44.2434 38.1211 44.2626 37.9863C44.2819 37.8516 44.3973 37.7554 44.5321 37.7554H54.1552C54.4632 37.9863 54.9636 38.429 55.3485 39.1603C55.7912 39.9879 55.8297 40.7385 55.8297 41.1235V67.7027H49.4206H33.2345C32.888 67.7027 32.5608 67.7027 32.2529 67.7027C31.3676 67.7027 30.6362 67.6642 30.0781 67.6257C28.6923 67.5679 27.1911 67.491 25.4782 67.2023C24.5929 67.0675 23.6498 66.8558 22.649 66.5864C21.4942 66.2592 20.3779 65.8743 19.3001 65.4316H19.2809C18.9152 65.2776 18.5688 65.1237 18.2223 64.9504C14.5848 63.2375 11.3899 60.851 8.71464 57.8293C7.81006 56.8092 4.67291 53.1909 2.45958 47.571C-1.65914 37.101 0.534947 27.651 0.996859 25.8611C2.61355 19.3751 5.65447 15.0447 6.67453 13.659C8.34896 11.4071 14.5463 3.28519 25.8054 0.860151C27.8455 0.417485 41.7798 -2.58494 50.1135 6.07591C50.9218 6.92274 56.3301 12.7351 55.8682 20.5876C55.7719 22.1081 55.4832 23.3591 55.233 24.2252C55.233 24.2444 55.2138 24.2829 55.1945 24.3214C55.0021 24.8796 54.3862 26.4578 53.0774 28.0745C52.3846 28.9405 50.0173 31.5965 46.3605 32.6166C45.5329 32.8476 44.6475 32.9823 43.7045 33.0015C43.0693 33.0208 41.7413 33.04 40.2786 32.6166C39.3356 32.3472 38.354 31.8852 37.4302 31.1154C37.3532 31.0384 35.621 29.5949 34.9089 27.4971C34.8319 27.2661 34.7549 27.0159 34.6972 26.785C34.5817 26.3038 34.5047 25.8226 34.4855 25.3222C34.4662 24.9566 34.4855 24.5524 34.524 24.2252C34.5625 23.8788 34.601 23.5131 34.7164 23.1474V23.1282C34.9089 22.3968 35.2746 21.6654 35.7942 21.1073C36.2946 20.5299 36.9298 20.0872 37.6034 19.7793H37.6226C38.2963 19.4906 39.0661 19.3366 39.7975 19.4136C40.2401 19.4521 40.7405 19.5676 41.1832 19.7793C41.4334 19.8948 41.6644 20.0487 41.8761 20.2412C42.4535 20.7609 42.7999 21.4345 42.9154 22.1658C42.9731 22.5315 42.9539 22.9164 42.8576 23.2821C42.7422 23.6478 42.5112 23.975 42.2418 24.206C41.9723 24.4369 41.6259 24.6294 41.2409 24.6679C40.856 24.7064 40.4903 24.5524 40.2209 24.3407C40.0862 24.2252 39.9514 24.1097 39.8552 23.9557C39.759 23.8018 39.7012 23.6286 39.7205 23.4361C39.759 23.1666 39.9514 22.9742 39.9707 22.9934C39.9514 22.9742 39.7975 23.1666 39.8167 23.4168Z" fill="#1D1D1B"/>
<path d="M100.001 104.271H89.146C89.0497 104.271 88.9728 104.232 88.915 104.136L70.9004 75.5552L69.8611 73.9H55.7536V97.496C55.7536 97.9772 55.7921 98.6123 55.9845 99.3052C56.1 99.7479 56.2925 100.21 56.5619 100.672C57.8899 102.962 60.2957 103.616 61.0078 103.751C61.1426 103.77 61.2388 103.905 61.2195 104.04C61.2003 104.175 61.0848 104.271 60.9501 104.271H44.456C44.3213 104.271 44.2058 104.175 44.1865 104.04C44.1673 103.905 44.2635 103.79 44.3982 103.751C45.0911 103.597 47.4584 102.943 48.7479 100.672C48.8826 100.421 48.9981 100.171 49.1136 99.9211C49.4793 98.9972 49.5755 98.1312 49.5563 97.5153V70.5127H55.7536V70.5512H68.9758C72.3247 70.5512 75.1924 70.147 77.4827 69.3964C79.7538 68.6265 81.6399 67.568 83.0449 66.24C84.4499 64.9312 85.4892 63.3338 86.1435 61.5439C86.7979 59.7347 87.1059 57.7331 87.1059 55.6545C87.1059 53.5567 86.7787 51.5935 86.1435 49.8421C85.5084 48.1099 84.4691 46.5702 83.0641 45.2807C81.6591 43.9912 79.773 42.9712 77.5019 42.2206C76.0007 41.7394 74.2493 41.393 72.2669 41.2198C71.2469 41.1235 70.1498 41.085 68.9951 41.085H59.7953C59.7953 40.5846 59.7183 39.757 59.2757 38.8525C59.0447 38.3713 58.756 37.9864 58.5251 37.7169H72.2862C78.9839 37.7169 84.2189 39.3529 87.8372 42.5862C91.4555 45.8389 93.3032 50.2078 93.3032 55.616C93.3032 58.118 92.9182 60.4084 92.1291 62.487C91.3978 64.4308 90.3392 66.163 88.9535 67.722C86.1435 70.8399 82.0826 72.803 76.9053 73.5536L77.8484 75.0741L91.8597 97.3613C92.2831 98.0157 92.7065 98.5931 93.1107 99.1127C93.4764 99.5746 93.8421 99.9788 94.2078 100.325C95.0738 101.153 95.8629 101.672 96.3441 101.961L96.3633 102C96.9215 102.269 97.5181 102.596 98.1532 103C98.8654 103.424 99.462 103.867 100.001 104.271Z" fill="#1D1D1B"/>
</svg>
