<svg width="278" height="166" viewBox="0 0 278 166" fill="none" xmlns="http://www.w3.org/2000/svg">
<g clip-path="url(#clip0_47_348)">
<path d="M88.9727 45.2343C88.9727 45.2343 91.9155 42.7732 92.5885 42.119C92.5885 42.119 94.8739 40.4211 94.5765 38.3495C94.5765 38.3495 93.4495 35.608 93.9191 32.5705L94.2008 28.9879C94.2008 28.9879 94.2947 27.6639 93.5434 25.6701C93.5434 25.6701 92.3068 23.5049 93.0738 22.1653C93.0738 22.1653 94.013 19.8133 95.3591 20.265C95.3591 20.265 97.7384 20.265 98.3019 19.7977C98.3019 19.7977 98.975 19.05 100.775 19.8912L102.293 20.4519L103.342 21.0127L104.375 20.6388C104.375 20.6388 105.8 20.156 106.082 21.2931C106.082 21.2931 107.224 24.7822 106.942 26.1997C106.942 26.1997 106.849 27.6327 107.334 29.611C107.334 29.611 108.101 30.8415 107.725 33.3961L107.819 35.1095C107.819 35.1095 108.962 34.6266 110.48 34.2528" fill="white"/>
<path d="M49.7769 67.3843L70.5642 56.1068L77.2481 54.1753L75.6672 63.9574L72.02 67.7114L54.5354 75.562L50.5282 71.8236L49.7769 67.3843Z" fill="#1D1D1B"/>
<path d="M14.9957 150.968C14.6513 149.691 13.9313 147.277 10.1276 147.277C7.92049 147.277 4.68029 148.694 4.68029 154.769C4.68029 158.616 6.22995 162.106 10.1276 162.106C12.6634 162.106 14.4479 160.688 14.9957 158.056H19.5977C18.6742 162.713 15.5592 166.015 10.0337 166.015C4.19504 166.015 0 162.137 0 154.722C0 147.23 4.42984 143.383 10.0963 143.383C16.6863 143.383 19.3473 147.822 19.5977 150.984H14.9957V150.968Z" fill="white"/>
<path d="M27.5495 161.015H35.6578L37.0666 165.455H42.06L34.3273 143.897H29.0366L21.1943 165.455H26.0312L27.5495 161.015ZM31.6037 148.757H31.6663L34.3899 157.277H28.7861L31.6037 148.757Z" fill="white"/>
<path d="M48.1334 158.819C48.1804 160.019 48.7908 162.293 52.7824 162.293C54.9582 162.293 57.3688 161.779 57.3688 159.505C57.3688 157.838 55.7252 157.371 53.3929 156.841L51.0449 156.296C47.4916 155.501 44.0636 154.723 44.0636 149.987C44.0636 147.604 45.3784 143.367 52.5006 143.367C59.2158 143.367 61.0159 147.682 61.0629 150.299H56.6487C56.5391 149.349 56.1791 147.09 52.1719 147.09C50.4188 147.09 48.3525 147.697 48.3525 149.66C48.3525 151.342 49.7457 151.701 50.6692 151.888L56.0382 153.196C59.028 153.913 61.7986 155.112 61.7986 158.975C61.7986 165.439 55.0677 166.016 53.1268 166.016C45.1123 166.016 43.7349 161.483 43.7349 158.835H48.1334V158.819Z" fill="white"/>
<path d="M69.7659 161.015H77.8742L79.2673 165.455H84.2607L76.5124 143.897H71.2216L63.3794 165.455H68.2162L69.7659 161.015ZM73.8044 148.757H73.867L76.575 157.277H70.9868L73.8044 148.757Z" fill="white"/>
<path d="M91.6963 161.529H102.607V165.455H87.0942V143.897H91.6963V161.529Z" fill="white"/>
<path d="M109.854 143.897H105.268V165.455H109.854V143.897Z" fill="white"/>
<path d="M127.385 143.897H131.69V165.455H127.088L118.134 150.096H118.087V165.455H113.783V143.897H118.62L127.338 158.913H127.385V143.897Z" fill="white"/>
<path d="M146.232 153.835H155.42V165.47H152.368L151.898 162.76C150.74 164.068 149.065 166.015 145.073 166.015C139.783 166.015 134.977 162.324 134.977 154.738C134.977 148.866 138.311 143.336 145.715 143.367C152.43 143.367 155.107 147.666 155.342 150.61H150.74C150.74 149.785 149.19 147.09 145.919 147.09C142.663 147.09 139.642 149.286 139.642 154.8C139.642 160.688 142.898 162.215 146.013 162.215C147.03 162.215 150.38 161.841 151.35 157.464H146.232V153.835Z" fill="white"/>
<path d="M164.029 155.797V165.455H159.443V143.897H164.029V152.074H172.623V143.897H177.225V165.455H172.623V155.797H164.029Z" fill="white"/>
<path d="M185.771 143.897H181.169V165.455H185.771V143.897Z" fill="white"/>
<path d="M201.534 158.819C201.566 160.019 202.176 162.293 206.183 162.293C208.359 162.293 210.754 161.779 210.754 159.505C210.754 157.838 209.126 157.371 206.794 156.841L204.43 156.296C200.893 155.501 197.464 154.723 197.464 149.987C197.464 147.604 198.779 143.367 205.902 143.367C212.617 143.367 214.417 147.682 214.464 150.299H210.05C209.94 149.349 209.564 147.09 205.573 147.09C203.835 147.09 201.753 147.697 201.753 149.66C201.753 151.342 203.147 151.701 204.054 151.888L209.423 153.196C212.429 153.913 215.184 155.112 215.184 158.975C215.184 165.439 208.437 166.016 206.512 166.016C198.513 166.016 197.12 161.483 197.12 158.835H201.534V158.819Z" fill="white"/>
<path d="M222.745 161.078H218.158V165.455H222.745V161.078Z" fill="white"/>
<path d="M236.206 165.455H231.62V147.682H224.967V143.897H242.843V147.682H236.206V165.455Z" fill="white"/>
<path d="M247.21 161.078H242.608V165.455H247.21V161.078Z" fill="white"/>
<path d="M250.388 154.691C250.388 164.785 258.026 166.015 260.922 166.015C263.834 166.015 271.472 164.785 271.472 154.691C271.472 144.613 263.834 143.367 260.922 143.367C258.026 143.352 250.388 144.598 250.388 154.691ZM254.974 154.691C254.974 148.648 258.449 147.168 260.922 147.168C263.411 147.168 266.855 148.648 266.855 154.691C266.855 160.719 263.395 162.215 260.922 162.215C258.449 162.199 254.974 160.704 254.974 154.691Z" fill="white"/>
<path d="M278.016 161.078H273.429V165.455H278.016V161.078Z" fill="white"/>
<path d="M208.312 40.3746C209.017 40.9977 211.913 43.4899 211.913 43.4899C214.949 44.4401 218.565 48.1318 218.565 48.1318L219.99 49.3623C221.132 49.3623 223.699 51.9013 223.699 51.9013C225.421 51.138 226.266 52.8515 226.266 52.8515C227.487 53.1163 230.336 57.7737 230.336 57.7737C230.54 58.3344 232.622 60.4996 232.622 60.4996C234.328 61.7301 236.034 63.6149 236.034 63.6149C236.707 64.2847 236.707 64.6585 236.707 64.6585L237.177 65.4218L236.034 65.2193C234.234 65.0324 234.797 65.967 234.797 65.967L236.707 70.0481C237.177 70.2506 238.225 72.6026 238.225 72.6026L239.556 74.207C240.699 76.7616 239.556 75.2506 239.556 75.2506L237.271 73.6463C236.425 73.4593 236.801 74.7678 236.801 74.7678C237.568 75.3441 238.992 78.4594 238.992 78.4594L240.323 80.3442C241.654 82.7118 240.417 81.8707 240.417 81.8707C239.744 81.6838 236.801 78.6464 236.801 78.6464C235.283 77.0264 234.234 76.5747 234.234 76.5747C231.291 75.8114 229.867 73.7397 229.867 73.7397C229.209 72.8986 228.16 71.559 228.16 71.559C227.018 70.9982 224.842 69.02 224.842 69.02C224.357 68.0543 219.708 65.6087 219.708 65.6087C218.471 65.4218 215.528 62.8672 215.528 62.8672C212.492 61.1694 211.74 60.0167 211.74 60.0167L207.937 56.2472C206.606 55.6708 204.133 54.3468 204.133 54.3468C203.288 53.7705 201.096 52.5555 201.096 52.5555C199.39 52.2751 196.917 50.3904 196.917 50.3904L190.828 46.4183C185.224 43.7703 180.857 39.5958 180.857 39.5958C180.105 38.8481 175.55 36.2001 175.55 36.2001C173.938 35.7172 172.216 33.6455 171.653 33.2717C171.089 32.8978 167.661 30.2498 167.661 30.2498C164.718 28.8323 164.343 27.9756 164.343 27.9756C163.294 27.0254 161.588 25.4366 161.588 25.4366L158.175 23.3494C156.939 22.9599 151.429 18.0689 151.429 18.0689C148.862 16.9318 145.919 14.7511 145.919 14.7511L142.319 12.103C141.552 12.0096 139.939 9.82886 139.939 9.82886C137.67 7.74159 138.421 5.46741 138.421 5.46741C138.327 4.25243 139.751 3.86302 139.751 3.86302C141.082 3.39572 140.315 2.44554 140.315 2.44554L139.266 0.934612C138.311 -0.0934449 139.266 1.47983e-05 139.266 1.47983e-05C139.454 0.57635 142.397 1.69787 142.397 1.69787C143.164 2.35208 143.352 1.41749 143.352 1.41749C143.352 0.48289 144.776 1.23057 144.776 1.23057L147.609 2.64804L151.116 4.26801C152.65 4.62627 153.777 6.23066 153.777 6.23066L156.532 8.89426L157.956 9.9379C159.662 10.4052 161.181 13.2401 161.181 13.2401C162.511 15.4209 164.123 15.0159 164.123 15.0159L166.784 15.4209C168.679 15.4209 169.242 16.4489 169.242 16.4489L170.776 17.7729L172.764 18.5206C174.188 18.4427 174.768 19.2683 174.768 19.2683L176.098 20.3119C177.523 21.0908 179.041 22.9599 179.041 22.9599C180.841 25.7014 184.175 27.8977 184.175 27.8977C185.49 28.552 187.681 30.7327 187.681 30.7327C188.339 31.6829 190.436 32.524 190.436 32.524C191.955 32.9134 193.097 33.3807 193.097 33.3807C193.097 33.3807 199.875 35.4212 200.752 36.8699C200.752 36.8699 203.695 39.2064 205.448 39.2064C205.463 39.2064 207.639 39.7671 208.312 40.3746Z" fill="white"/>
<path d="M70.1729 121.871C70.1729 121.871 80.2535 121.015 85.3721 121.202L97.6285 120.921C97.6285 120.921 108.367 120.438 109.885 120.532C109.885 120.532 113.595 120.812 114.158 121.015C114.158 121.015 119.183 120.921 119.574 120.921C119.95 120.921 126.227 120.158 128.982 120.828C128.982 120.828 134.867 121.388 137.81 121.108C137.81 121.108 149.018 120.438 151.585 120.625C151.585 120.625 160.319 120.719 163.653 121.108C163.653 121.108 173.155 121.108 174.094 121.015H183.877C183.877 121.015 190.154 120.438 192.44 120.532L203.835 120.064H208.5C208.5 120.064 209.721 120.438 210.112 120.921C210.112 120.921 211.349 121.965 211.443 122.899L212.397 123.367C212.397 123.367 213.634 123.102 214.01 126.202C214.01 126.202 214.777 127.713 212.21 126.856C212.21 126.856 210.018 126.762 209.736 127.152C209.736 127.152 203.851 128.086 198.341 127.043C198.341 127.043 192.925 126.404 191.876 126.762C191.876 126.762 187.603 128.102 186.366 127.713L177.334 126.591C177.334 126.591 172.404 125.999 171.449 126.295C171.449 126.295 167.849 126.591 163.575 126.404C163.575 126.404 155.686 126.482 153.698 126.669C153.698 126.669 151.319 126.949 150.661 127.339C150.661 127.339 148.658 127.713 146.952 127.043L134.601 125.999C134.601 125.999 121.202 126.28 119.402 125.812L111.607 125.921C111.607 125.921 107.333 125.812 106.379 126.108C106.379 126.108 104.578 126.965 103.624 126.015L101.636 125.174C101.636 125.174 100.399 124.426 97.2685 124.784C97.2685 124.784 90.3185 125.656 84.4485 124.13C84.4485 124.13 79.2204 123.476 77.1385 122.712C77.1228 122.712 72.4582 121.871 70.1729 121.871Z" fill="white"/>
<path d="M140.706 108.538L130.188 108.491L138.546 76.8548L126.384 76.6835L129.029 66.8235L163.216 66.8391L160.586 76.7146L149.065 76.6835L140.706 108.538Z" fill="white"/>
<path d="M192.972 89.5188C193.771 86.5436 194.991 81.3722 195.305 79.4407C195.79 76.3565 195.665 72.4156 192.08 69.3938C189.857 67.4934 187.04 66.7613 181.874 66.6367C167.849 66.2784 166.174 71.3097 164.39 76.7459C163.169 80.4843 160.805 89.3318 159.114 96.0298C158.582 98.1326 157.659 105.594 166.221 107.79C168.318 108.335 175.222 108.335 177.335 108.351C181.467 108.366 184.911 106.824 187.666 103.943C190.249 101.217 192.268 92.1824 192.972 89.5188ZM183.095 88.8957C180.497 98.8491 180.434 98.5999 174.705 98.7401C168.475 98.8959 169.79 95.8429 170.291 93.8179C171.199 90.173 172.294 85.7492 173.813 80.9516C174.47 78.7553 175.754 76.9484 180.872 77.2288C182.813 77.3378 185.866 77.3378 184.833 81.9329C183.972 85.8271 183.299 88.0857 183.095 88.8957Z" fill="white"/>
<path d="M97.9733 94.5966C98.0672 97.3848 100.697 99.8459 103.358 99.8615C106.16 99.8771 108.367 98.6621 108.289 96.201C108.21 93.7554 106.348 93.1635 102.027 90.7959C96.1575 87.5715 94.2009 83.2412 93.9661 79.238C93.7156 74.97 97.0811 65.8733 108.993 65.3281C118.776 64.892 124.239 71.4965 124.584 77.1819C124.615 77.8206 124.552 76.8081 124.505 77.4935L115.192 77.4312C115.192 77.2598 115.239 77.5869 115.176 77.4312C114.065 74.7987 112.374 74.051 109.838 74.051C107.584 74.0355 105.315 75.7177 105.393 77.6025C105.471 80.0948 108.242 81.3253 112.922 84.5964C116.256 86.9173 120.436 89.098 120.389 95.391C120.342 101.949 116.225 109.628 102.873 109.472C92.1816 109.332 88.2996 102.915 88.0335 94.7524C88.0022 94.2851 88.0022 94.4097 88.0492 93.9579L97.9576 94.2072C97.9576 94.5966 97.9733 94.2383 97.9733 94.5966Z" fill="white"/>
<path d="M72.5054 66.2472L72.3332 63.864L68.7643 59.8764L70.0948 59.0664L72.1767 61.5743L71.7227 58.0695L73.0376 57.2751L73.8359 65.4528L72.5054 66.2472ZM68.686 66.4186L65.8215 59.487L67.0581 58.7393L69.9226 65.6553L68.686 66.4186ZM66.025 68.0386L65.7902 67.4778C65.7745 68.1164 65.3519 68.6772 64.8666 68.9576C63.5518 69.7676 62.2526 68.942 61.6421 67.4466C60.9377 65.7488 61.4699 64.0821 62.5656 63.4123C63.2387 62.9917 63.8022 63.1787 64.0996 63.3967L63.8648 62.836L65.1014 62.0727L67.2459 67.2753L66.025 68.0386ZM60.1707 71.6212L58.5115 67.618L57.901 67.9918L57.4157 66.808L58.0262 66.4342L57.3062 64.7052L58.5428 63.9575L59.2628 65.6865L59.8576 65.3282L60.3429 66.5121L59.7481 66.8703L61.4073 70.8891L60.1707 71.6212ZM57.2749 73.3813L55.1304 68.1943L56.3513 67.4466L58.4958 72.6492L57.2749 73.3813ZM54.4103 66.4653L55.6469 65.7021L56.1322 66.8859L54.8956 67.6491L54.4103 66.4653ZM145.653 18.9878L141.019 20.6545C141.019 20.6545 138.906 20.857 140.393 18.9878L137.231 20.2183C137.231 20.2183 132.175 20.6545 131.549 21.2776L127.542 23.1779C127.542 23.1779 123.754 26.0907 121.234 26.3088L118.291 27.5861L115.332 29.0347C115.332 29.0347 112.186 29.4553 111.544 30.717L109.854 33.6454L105.424 34.8915L102.278 36.3557L97.2217 39.0816L94.7016 40.7483L90.4909 44.1129C90.4909 44.1129 87.1254 45.5771 81.2242 47.6643C81.2242 47.6643 76.5909 49.5647 74.9003 51.87C74.9003 51.87 67.3085 55.4215 66.4789 56.2782C66.4789 56.2782 62.6752 57.9449 62.4717 59.6116C62.4717 59.6116 58.4802 61.0758 55.9443 62.7581C55.9443 62.7581 51.1075 64.8609 50.6849 65.9201C50.6849 65.9201 49.2135 67.1663 46.6933 67.5868C46.6933 67.5868 42.9053 68.833 42.4826 70.9358C42.4826 70.9358 41.0112 72.1975 40.166 71.9794C39.3207 71.7769 36.8005 74.2848 37.4423 74.9234C37.4423 74.9234 37.4423 76.3876 41.4339 76.5901C41.4339 76.5901 43.3436 78.0543 44.3923 78.0543L46.5055 77.4157C46.5055 77.4157 50.497 77.8363 50.9197 77.2132L56.3826 76.9951C56.3826 76.9951 62.91 73.6461 64.1779 72.805L73.8672 67.7738C73.8672 67.7738 78.704 65.0478 80.1754 63.5836L84.8088 61.4964C84.8088 61.4964 92.4005 58.9885 94.7172 56.6676L99.3505 53.3187L104.829 49.7516L107.788 47.4463C107.788 47.4463 112.844 44.0973 115.348 43.4742C115.348 43.4742 120.827 40.9508 121.249 40.3278L129.671 35.9352C129.671 35.9352 133.678 33.6298 133.459 32.9912C133.459 32.9912 134.93 28.583 137.247 26.4957C137.247 26.4957 141.254 24.4085 141.458 23.7854L146.513 21.0595L145.653 18.9878ZM64.6005 64.9077C64.3188 64.6429 63.8962 64.4404 63.3639 64.7519C62.6596 65.188 62.6439 66.1226 62.8943 66.7146L62.91 66.7301C63.1135 67.213 63.724 67.8672 64.4753 67.3999C64.9136 67.1351 65.0701 66.699 65.1014 66.294C65.1171 66.0136 65.0701 65.78 65.0075 65.5307C64.898 65.2815 64.7727 65.079 64.6005 64.9077Z" fill="white"/>
</g>
<defs>
<clipPath id="clip0_47_348">
<rect width="278" height="166" fill="white"/>
</clipPath>
</defs>
</svg>
