<?xml version="1.0" encoding="UTF-8"?> <!-- Generator: Adobe Illustrator 22.0.0, SVG Export Plug-In . SVG Version: 6.00 Build 0) --> <svg xmlns="http://www.w3.org/2000/svg" xmlns:xlink="http://www.w3.org/1999/xlink" id="Layer_1" x="0px" y="0px" viewBox="0 0 290.3 81.2" style="enable-background:new 0 0 290.3 81.2;" xml:space="preserve"> <style type="text/css"> .st0{fill:#FFFFFF;} .st1{fill:none;stroke:#FFFFFF;stroke-miterlimit:10;} </style> <path class="st0" d="M23.7,21.4c-0.3,3.1-1.7,6.2-3.9,8.4c-2.3,2.3-5.3,3.4-8.4,3.9c0.3-3.1,1.7-6.2,3.9-8.4 C17.5,23.1,20.6,21.7,23.7,21.4"></path> <path class="st1" d="M23.7,21.4c-0.3,3.1-1.7,6.2-3.9,8.4c-2.3,2.3-5.3,3.4-8.4,3.9c0.3-3.1,1.7-6.2,3.9-8.4 C17.5,23.1,20.6,21.7,23.7,21.4z"></path> <path class="st0" d="M148.1,45.3c0.3,3.1,1.7,6.2,3.9,8.4c2.3,2.3,5.3,3.4,8.4,3.9c-0.3-3.1-1.7-6.2-3.9-8.4S151.5,45.6,148.1,45.3"></path> <path class="st1" d="M148.1,45.3c0.3,3.1,1.7,6.2,3.9,8.4c2.3,2.3,5.3,3.4,8.4,3.9c-0.3-3.1-1.7-6.2-3.9-8.4S151.5,45.6,148.1,45.3z "></path> <polygon class="st0" points="30.1,75.4 56,18.3 58.9,18.3 31.8,78 29,78 2,18.6 4.3,18.6 "></polygon> <polygon class="st1" points="30.1,75.4 56,18.3 58.9,18.3 31.8,78 29,78 2,18.6 4.3,18.6 "></polygon> <path class="st0" d="M101.1,17.4c3.9-0.3,7.9,0.6,11.5,2.3c3.7,1.7,7,3.9,9.6,6.8c5.3,5.9,8.4,13.8,8.2,22v1.1H73.2 c0.3,7.6,3.4,14.6,8.7,19.7c2.5,2.5,5.9,4.5,9.3,5.9c3.4,1.4,7,2,10.7,1.7c5.1,0,9.9-1.1,14.4-3.4c3.9-2,7.3-5.1,9.3-9l2,1.1 c-2.5,4.2-5.9,7.6-10.4,9.6c-4.8,2.5-9.9,3.7-15.2,3.7c-3.9,0-8.2-0.6-11.8-2c-3.7-1.4-7.3-3.7-10.1-6.8c-2.8-2.8-5.3-6.5-6.8-10.1 c-1.4-3.7-2.3-7.9-2-12.1c0-3.9,0.6-8.2,2-11.8c1.4-3.7,3.7-7.3,6.5-10.1c2.8-2.8,6.2-5.1,9.9-6.5C93.2,18,97.1,17.4,101.1,17.4 M73.2,47.3h55.5c-0.3-7.6-3.1-14.9-8.4-20.3c-2.8-2.5-5.6-4.5-8.7-5.9c-3.4-1.4-6.8-2-10.1-2c-3.7,0-7.3,0.6-10.7,2 c-3.4,1.4-6.5,3.4-9,5.9c-2.5,2.5-4.8,5.9-6.2,9.3C73.8,40,72.9,43.6,73.2,47.3"></path> <path class="st1" d="M101.1,17.4c3.9-0.3,7.9,0.6,11.5,2.3c3.7,1.7,7,3.9,9.6,6.8c5.3,5.9,8.4,13.8,8.2,22v1.1H73.2 c0.3,7.6,3.4,14.6,8.7,19.7c2.5,2.5,5.9,4.5,9.3,5.9c3.4,1.4,7,2,10.7,1.7c5.1,0,9.9-1.1,14.4-3.4c3.9-2,7.3-5.1,9.3-9l2,1.1 c-2.5,4.2-5.9,7.6-10.4,9.6c-4.8,2.5-9.9,3.7-15.2,3.7c-3.9,0-8.2-0.6-11.8-2c-3.7-1.4-7.3-3.7-10.1-6.8c-2.8-2.8-5.3-6.5-6.8-10.1 c-1.4-3.7-2.3-7.9-2-12.1c0-3.9,0.6-8.2,2-11.8c1.4-3.7,3.7-7.3,6.5-10.1c2.8-2.8,6.2-5.1,9.9-6.5C93.2,18,97.1,17.4,101.1,17.4z M73.2,47.3h55.5c-0.3-7.6-3.1-14.9-8.4-20.3c-2.8-2.5-5.6-4.5-8.7-5.9c-3.4-1.4-6.8-2-10.1-2c-3.7,0-7.3,0.6-10.7,2 c-3.4,1.4-6.5,3.4-9,5.9c-2.5,2.5-4.8,5.9-6.2,9.3C73.8,40,72.9,43.6,73.2,47.3z"></path> <path class="st0" d="M181,18.6v2.3h-18.6V65c-0.3,2,0,3.9,0.6,5.6c0.8,1.7,2,3.4,3.4,4.5c4.5,2,9.6,2.3,14.4,0.8v2.3 c-5.3,1.4-11,0.8-16-1.4c-1.7-1.4-3.1-3.1-3.9-5.3c-0.8-2.3-1.1-4.5-0.8-6.8V20.8h-14.1v-2.3h14.1v-16l2.5-0.6v16.6H181z"></path> <path class="st1" d="M181,18.6v2.3h-18.6V65c-0.3,2,0,3.9,0.6,5.6c0.8,1.7,2,3.4,3.4,4.5c4.5,2,9.6,2.3,14.4,0.8v2.3 c-5.3,1.4-11,0.8-16-1.4c-1.7-1.4-3.1-3.1-3.9-5.3c-0.8-2.3-1.1-4.5-0.8-6.8V20.8h-14.1v-2.3h14.1v-16l2.5-0.6v16.6H181z"></path> <polygon class="st0" points="224.9,75.4 250.6,18.3 253.1,18.3 226.1,78 223.5,78 196.5,18.6 199,18.6 "></polygon> <polygon class="st1" points="224.9,75.4 250.6,18.3 253.1,18.3 226.1,78 223.5,78 196.5,18.6 199,18.6 "></polygon> <path class="st0" d="M279.6,32.6c-2.3,2.3-3.7,5.3-3.9,8.4c3.1-0.3,6.2-1.7,8.4-3.9s3.4-5.3,3.9-8.4C284.9,29,282.1,30.4,279.6,32.6 "></path> <path class="st1" d="M279.6,32.6c-2.3,2.3-3.7,5.3-3.9,8.4c3.1-0.3,6.2-1.7,8.4-3.9s3.4-5.3,3.9-8.4C284.9,29,282.1,30.4,279.6,32.6 z"></path> <path class="st0" d="M277,6.2c0.3-0.3,0.6-0.8,0.6-1.1V3.6c0-0.3-0.3-0.8-0.6-1.1c-0.3-0.3-0.6-0.6-1.1-0.6h-1.1 c-0.3,0-0.8,0.3-1.1,0.6c-0.3,0.3-0.6,0.6-0.6,1.1v1.4c0,0.6,0.3,0.8,0.6,1.1c0.3,0.3,0.8,0.6,1.1,0.6c0.6,0.3,0.8,0.3,1.4,0 C276.5,7,276.7,6.7,277,6.2"></path> <path class="st1" d="M277,6.2c0.3-0.3,0.6-0.8,0.6-1.1V3.6c0-0.3-0.3-0.8-0.6-1.1c-0.3-0.3-0.6-0.6-1.1-0.6h-1.1 c-0.3,0-0.8,0.3-1.1,0.6c-0.3,0.3-0.6,0.6-0.6,1.1v1.4c0,0.6,0.3,0.8,0.6,1.1c0.3,0.3,0.8,0.6,1.1,0.6c0.6,0.3,0.8,0.3,1.4,0 C276.5,7,276.7,6.7,277,6.2z"></path> <polygon class="st0" points="273.6,18.6 273.6,78.2 275.6,78.2 275.6,40.5 275.6,18.6 "></polygon> <polygon class="st1" points="273.6,18.6 273.6,78.2 275.6,78.2 275.6,40.5 275.6,18.6 "></polygon> </svg> 