<svg width="35" height="35" viewBox="0 0 35 35" fill="none" xmlns="http://www.w3.org/2000/svg">
<path d="M17.5 32.0834C25.5541 32.0834 32.0834 25.5542 32.0834 17.5001C32.0834 9.44592 25.5541 2.91675 17.5 2.91675C9.44586 2.91675 2.91669 9.44592 2.91669 17.5001C2.91669 19.833 3.46447 22.0378 4.4384 23.9933C4.69722 24.5129 4.78337 25.1069 4.63332 25.6676L3.76472 28.914C3.38766 30.3232 4.67691 31.6124 6.08616 31.2354L9.33246 30.3668C9.89325 30.2167 10.4872 30.3029 11.0068 30.5616C12.9622 31.5357 15.1671 32.0834 17.5 32.0834Z" stroke="#9EA08A" stroke-width="2"/>
<path opacity="0.5" d="M11.6667 17.5H11.6798M17.4869 17.5H17.5M23.3202 17.5H23.3333" stroke="#9EA08A" stroke-width="2" stroke-linecap="round" stroke-linejoin="round"/>
</svg>
