<svg width="35" height="35" viewBox="0 0 35 35" fill="none" xmlns="http://www.w3.org/2000/svg">
<path d="M20.026 31.7476L20.8165 30.412L18.934 29.2977L18.1434 30.6334L20.026 31.7476ZM14.1834 30.412L14.974 31.7476L16.8564 30.6334L16.0659 29.2977L14.1834 30.412ZM18.1434 30.6334C17.8624 31.1082 17.1376 31.1082 16.8564 30.6334L14.974 31.7476C16.1022 33.6536 18.8978 33.6536 20.026 31.7476L18.1434 30.6334ZM15.3125 4.0105H19.6875V1.823H15.3125V4.0105ZM30.9896 15.3126V16.7709H33.1771V15.3126H30.9896ZM4.01041 16.7709V15.3126H1.82291V16.7709H4.01041ZM1.82291 16.7709C1.82291 18.4547 1.82231 19.7723 1.89482 20.835C1.96801 21.9076 2.11928 22.8002 2.4612 23.6257L4.48219 22.7886C4.26907 22.2741 4.14284 21.6473 4.07726 20.6861C4.011 19.7151 4.01041 18.4846 4.01041 16.7709H1.82291ZM11.3786 26.6024C9.54778 26.5708 8.58845 26.4544 7.83647 26.1429L6.99936 28.1639C8.17328 28.6501 9.51034 28.758 11.341 28.7895L11.3786 26.6024ZM2.4612 23.6257C3.31227 25.6803 4.9447 27.3128 6.99936 28.1639L7.83647 26.1429C6.31781 25.5138 5.11124 24.3073 4.48219 22.7886L2.4612 23.6257ZM30.9896 16.7709C30.9896 18.4846 30.989 19.7151 30.9228 20.6861C30.8572 21.6473 30.7309 22.2741 30.5178 22.7886L32.5388 23.6257C32.8807 22.8002 33.032 21.9076 33.1052 20.835C33.1777 19.7723 33.1771 18.4547 33.1771 16.7709H30.9896ZM23.659 28.7895C25.4896 28.758 26.8268 28.6501 28.0006 28.1639L27.1635 26.1429C26.4116 26.4544 25.4521 26.5708 23.6213 26.6024L23.659 28.7895ZM30.5178 22.7886C29.8887 24.3073 28.6822 25.5138 27.1635 26.1429L28.0006 28.1639C30.0552 27.3128 31.6877 25.6803 32.5388 23.6257L30.5178 22.7886ZM19.6875 4.0105C22.0955 4.0105 23.8248 4.01165 25.1736 4.1399C26.5062 4.2666 27.3541 4.50958 28.03 4.92382L29.1731 3.05867C28.0955 2.39841 26.8733 2.10415 25.3807 1.96223C23.9043 1.82185 22.0532 1.823 19.6875 1.823V4.0105ZM33.1771 15.3126C33.1771 12.9469 33.1782 11.0958 33.0378 9.61941C32.8959 8.12673 32.6016 6.90449 31.9414 5.82704L30.0762 6.97001C30.4905 7.64599 30.7335 8.49391 30.8602 9.82646C30.9884 11.1753 30.9896 12.9045 30.9896 15.3126H33.1771ZM28.03 4.92382C28.8641 5.43488 29.5652 6.13605 30.0762 6.97001L31.9414 5.82704C31.25 4.69874 30.3014 3.7501 29.1731 3.05867L28.03 4.92382ZM15.3125 1.823C12.9468 1.823 11.0957 1.82185 9.61932 1.96223C8.12664 2.10415 6.9044 2.39841 5.82695 3.05867L6.96992 4.92382C7.6459 4.50958 8.49382 4.2666 9.82637 4.1399C11.1752 4.01165 12.9044 4.0105 15.3125 4.0105V1.823ZM4.01041 15.3126C4.01041 12.9045 4.01156 11.1753 4.1398 9.82646C4.2665 8.49391 4.50949 7.64599 4.92373 6.97001L3.05858 5.82704C2.39832 6.90449 2.10406 8.12673 1.96213 9.61941C1.82175 11.0958 1.82291 12.9469 1.82291 15.3126H4.01041ZM5.82695 3.05867C4.69865 3.7501 3.75001 4.69874 3.05858 5.82704L4.92373 6.97001C5.43479 6.13605 6.13596 5.43488 6.96992 4.92382L5.82695 3.05867ZM16.0659 29.2977C15.7698 28.7975 15.5099 28.3561 15.2572 28.0093C14.9909 27.6441 14.6857 27.3152 14.2623 27.0689L13.1625 28.96C13.2316 29.0001 13.3258 29.0734 13.4894 29.2977C13.6664 29.5407 13.8663 29.8762 14.1834 30.412L16.0659 29.2977ZM11.341 28.7895C11.9813 28.8006 12.3869 28.8087 12.6961 28.8429C12.985 28.8749 13.097 28.9217 13.1625 28.96L14.2623 27.0689C13.8353 26.8206 13.3911 26.7189 12.9368 26.6686C12.5028 26.6206 11.9784 26.6128 11.3786 26.6024L11.341 28.7895ZM20.8165 30.412C21.1336 29.8762 21.3335 29.5407 21.5106 29.2977C21.674 29.0734 21.7682 29.0001 21.8374 28.96L20.7376 27.0689C20.3143 27.3152 20.0089 27.6441 19.7428 28.0093C19.49 28.3561 19.2302 28.7975 18.934 29.2977L20.8165 30.412ZM23.6213 26.6024C23.0215 26.6128 22.4971 26.6206 22.0631 26.6686C21.6088 26.7189 21.1646 26.8206 20.7376 27.0689L21.8374 28.96C21.903 28.9217 22.015 28.8749 22.3039 28.8429C22.6131 28.8087 23.0186 28.8006 23.659 28.7895L23.6213 26.6024Z" fill="#9EA08A"/>
<path opacity="0.5" d="M11.6667 16.0417H11.6798M17.4869 16.0417H17.5M23.3202 16.0417H23.3333" stroke="#9EA08A" stroke-width="2" stroke-linecap="round" stroke-linejoin="round"/>
</svg>
