<svg width="19" height="24" viewBox="0 0 19 24" fill="none" xmlns="http://www.w3.org/2000/svg">
<path d="M1.64526 1.01703C-0.0037955 2.08653 -0.327748 5.4296 0.294845 8.1543C0.779719 10.2761 1.81059 13.1224 3.5489 15.8027C5.18418 18.3241 7.46563 20.5849 9.20526 21.893C11.4392 23.5726 14.6237 24.6403 16.2728 23.5708C17.1066 23.03 18.3455 21.5524 18.402 21.2873C18.402 21.2873 17.6756 20.1672 17.5161 19.9214L15.08 16.165C14.8989 15.8859 13.7636 16.141 13.1869 16.4677C12.4089 16.9085 11.6924 18.0913 11.6924 18.0913C11.159 18.3995 10.7121 18.0924 9.77858 17.6627C8.63122 17.1348 7.34123 15.4946 6.31452 14.009C5.37679 12.4657 4.40521 10.6189 4.39115 9.35599C4.37957 8.3284 4.28142 7.79524 4.7804 7.43384C4.7804 7.43384 6.15253 7.26199 6.87229 6.73146C7.40577 6.33809 8.10173 5.40556 7.92069 5.12637L5.48451 1.37009C5.32509 1.12428 4.59862 0.00415687 4.59862 0.00415687C4.33345 -0.0523274 2.47912 0.476234 1.64526 1.01703Z" fill="black"/>
</svg>
