<?xml version="1.0" encoding="UTF-8"?> <!-- Generator: Adobe Illustrator 22.0.0, SVG Export Plug-In . SVG Version: 6.00 Build 0) --> <svg xmlns="http://www.w3.org/2000/svg" xmlns:xlink="http://www.w3.org/1999/xlink" id="Layer_1" x="0px" y="0px" viewBox="0 0 252.6 118.6" style="enable-background:new 0 0 252.6 118.6;" xml:space="preserve"> <style type="text/css"> .st0{fill:#FFFFFF;} </style> <path class="st0" d="M126.3,117.8c-36.9,0-73.8-0.1-110.7,0.1c-5.5,0-8.8-2.7-12-6.3c-2-2.3-2.6-5-2.6-8.1c0.1-29.6,0.1-59.2,0-88.8 C1,11.6,2,9,4.1,6.8c1.7-1.8,3.7-3.4,5.8-4.7c1.1-0.7,2.7-1,4.1-1c42.9,0,85.9,0,128.8,0c31.4,0,62.9,0,94.3,0 c3.1,0,5.9,0.6,8.2,2.6c3.6,3.2,6.3,6.6,6.3,12.1c-0.2,29.5-0.1,59-0.1,88.4c0,3.1-1,5.7-3.1,7.9c-1.8,1.8-3.7,3.4-5.8,4.7 c-1.2,0.8-3,1-4.5,1C200.9,117.8,163.6,117.8,126.3,117.8 M126.3,110.3c36.3,0,72.6,0,108.9,0c4.9,0,8.9-4,8.9-8.6 c0-28.2,0-56.5,0-84.7c0-1.1-0.1-2.3-0.6-3.2c-1.8-3.6-4.7-5.4-8.8-5.4c-44.4,0-88.8,0-133.2,0c-28,0-56,0-84,0 c-4.9,0-8.9,4-8.9,8.6c0,28.2,0,56.5,0,84.7c0,1.1,0.1,2.3,0.6,3.2c1.8,3.6,4.7,5.4,8.8,5.4C54.1,110.3,90.2,110.3,126.3,110.3"></path> <path class="st0" d="M160.5,92.5c4.2-9.2,8.2-18.1,12.3-27.1c5.7-12.7,11.5-25.3,17.2-38c0.6-1.4,1.3-2,2.8-1.9 c2.4,0.1,4.7,0.1,7.1,0c1,0,1.6,0.2,2,1.2c3.9,8.6,7.8,17.1,11.7,25.7c4.3,9.5,8.6,19,12.9,28.4c1.7,3.8,3.5,7.6,5.3,11.7H160.5z M218.2,84.4c-7.3-16-14.5-31.8-21.9-48c-7.3,16.2-14.5,32-21.7,48H218.2z"></path> <path class="st0" d="M90.3,92.6H80.2V25.5c3.5,0,7.1,0,10.6,0c7.2,0.1,14.3,0.8,21,3.7c13.6,5.7,14,22.1,7.9,29.6 c-3.4,4.2-8,6.6-13.1,7.7c-4.6,1-9.3,1.6-14,2.1c-1.6,0.2-2.2,0.5-2.2,2.2c0.1,6.8,0,13.6,0,20.5C90.4,91.7,90.3,92.1,90.3,92.6 M90.5,33.1v27c5.9,0.3,11.4-0.7,16.5-3.4c8.7-4.7,7.6-15.1,1.7-19.4C103.2,33.5,97,33,90.5,33.1"></path> <path class="st0" d="M153,64.6c3-6.7,5.9-13.1,8.8-19.4c2.8-6.1,5.5-12.2,8.2-18.3c0.5-1,1-1.4,2.1-1.3c2.8,0.1,5.7,0,8.8,0 c-0.8,1.8-1.4,3.4-2.1,5c-5.1,11-10.1,22.1-15.2,33.1c-4.2,9.1-8.3,18.2-12.4,27.3c-0.6,1.4-1.4,1.8-2.8,1.8c-2.7-0.1-5.4,0-8.4,0 c0.9-2,1.7-3.9,2.5-5.7c1.4-3.1,2.8-6.2,4.3-9.2c0.7-1.4,0.6-2.6,0-4c-7.1-15.5-14.1-30.9-21.2-46.4c-0.2-0.5-0.4-1.1-0.7-1.8 c3.3,0,6.4,0,9.4,0.1c0.4,0,1,0.7,1.3,1.2c4,8.7,8,17.4,12,26.2C149.4,56.7,151.1,60.5,153,64.6"></path> <polygon class="st0" points="23,25.6 74.3,25.6 74.3,33.1 53.8,33.1 53.8,92.6 43.7,92.6 43.7,33.2 23,33.2 "></polygon> </svg> 