<?xml version="1.0" encoding="UTF-8"?> <!-- Generator: Adobe Illustrator 22.0.0, SVG Export Plug-In . SVG Version: 6.00 Build 0) --> <svg xmlns="http://www.w3.org/2000/svg" xmlns:xlink="http://www.w3.org/1999/xlink" id="Layer_1" x="0px" y="0px" viewBox="0 0 252.3 84.2" style="enable-background:new 0 0 252.3 84.2;" xml:space="preserve"> <style type="text/css"> .st0{fill:#FFFFFF;} </style> <path class="st0" d="M44.6,83.4c-14.3,0-28.6,0-42.9,0c-1.2,0-1.2,0-1.2-1.2c0-12.6,0-25.1,0-37.7c0-6.2,1.2-12.1,3.8-17.8 c3.3-7.3,8.2-13.3,14.7-18c4.7-3.4,9.8-5.7,15.4-7c5.6-1.3,11.3-1.6,17-0.7c6.2,1,12,3.1,17.3,6.6c6,3.9,10.8,9,14.4,15.2 c2.3,3.9,3.9,8.1,4.8,12.6c0.5,2.6,0.9,5.3,0.9,8c0.1,13,0,25.9,0,38.9c0,1.1,0,1.1-1.1,1.1C73.3,83.4,58.9,83.4,44.6,83.4 L44.6,83.4z M8.8,55.9c0,4.1,0,8.2,0,12.3c0,1.2,0.1,1.2,1.2,0.9c7.7-2.1,15.4-4.3,23.1-6.4c8.2-2.3,16.3-4.5,24.5-6.8 c4.4-1.2,8.7-2.4,13.1-3.6c3-0.8,6-1.7,9-2.5c0.3-0.1,0.7-0.1,0.7-0.7c0-3.8,0.2-7.6-0.6-11.3c-1.3-6.5-4.1-12.2-8.6-17.1 c-5.7-6.3-12.8-10.1-21.2-11.4c-4.9-0.8-9.8-0.5-14.6,0.8c-6.8,1.8-12.6,5.3-17.4,10.6c-6.2,6.9-9.2,14.9-9.3,24.2 C8.7,48.5,8.8,52.2,8.8,55.9 M80.4,58.5c-1-0.1-59.5,16.1-60,16.7h1.4c7.5,0,14.9,0,22.4,0c11.7,0,23.5,0,35.2,0c0.8,0,1-0.2,1-1 c0-4.8,0-9.7,0-14.5V58.5z"></path> <path class="st0" d="M111.7,64c0-5.8,0-11.7,0-17.5c0-0.8,0.2-1.1,1.1-1c1.7,0.1,3.5,0.1,5.2,0c0.8,0,1,0.3,1,1c0,4.3,0,8.7,0,13 c0,1.1,0,1.1,1.1,1.1c5.4,0,10.7,0,16.1,0c1.2,0,1.2,0,1.2-1.2c0-4.3,0-8.6,0-12.9c0-0.8,0.3-1.1,1.1-1.1c1.7,0.1,3.4,0,5.1,0 c0.8,0,1,0.3,1,1c0,6.1,0,12.2,0,18.3c0,5.6,0,11.1,0,16.7c0,1.3,0,1.3-1.2,1.3c-1.6,0-3.2,0-4.9,0c-0.8,0-1.1-0.2-1.1-1 c0-4.4,0-8.8,0-13.2c0-1.2,0-1.2-1.2-1.2c-5.4,0-10.8,0-16.1,0c-1.1,0-1.1,0-1.1,1.1c0,4.5,0,8.9,0,13.4c0,0.7-0.2,1-0.9,1 c-1.8,0-3.6,0-5.4,0c-0.7,0-0.9-0.3-0.9-1C111.7,75.8,111.7,69.9,111.7,64"></path> <path class="st0" d="M187.4,82.7c-2.2,0-4.3,0-6.3,0c-0.2,0-0.4-0.4-0.5-0.7c-0.1-1-0.1-2.1-0.1-3.1c0-6.9,0-13.9,0.1-20.8 c0-1,0.1-1.1,1.1-1.1c1.5,0,3,0,4.5,0c0.7,0,0.9,0.3,0.9,0.9c0,0.6,0,1.3,0.1,2c2.2-2.7,5-3.7,8.3-3.5c3.3,0.2,6,1.6,8,4.6 c0.1-0.3,0.2-0.5,0.3-0.6c2.2-3.1,5.4-4.1,9.1-4c2.9,0.1,5.4,1.1,7.3,3.4c1.6,1.9,2.2,4.1,2.2,6.5c0,5.2,0,10.4,0,15.7 c0,0.7-0.2,0.8-0.9,0.8c-1.6,0-3.3,0-4.9,0c-0.7,0-0.9-0.2-0.9-0.9c0-4.3,0-8.7,0-13c0-1-0.1-2-0.4-2.9c-1-3.2-4.9-4.4-7.9-2.5 c-1.9,1.2-2.5,3-2.5,5.1c0,4.4,0,8.8,0,13.1c0,0.8-0.3,1.1-1.1,1c-1.6-0.1-3.1,0-4.7,0c-0.7,0-1-0.2-1-0.9c0-4.4,0-8.8,0-13.1 c0-0.9-0.2-1.9-0.4-2.8c-0.7-2.4-3-3.6-5.7-3.2c-2.8,0.5-4.6,2.5-4.6,5.4c0,4.4,0,8.9,0,13.3V82.7z"></path> <path class="st0" d="M144.1,0.7c-1,1.1-1.8,2.1-2.6,3c-4.1,4.8-8.2,9.6-12.4,14.4c-0.6,0.7-0.5,1,0,1.6c2.5,2.8,5,5.6,7.5,8.4 c2.7,3,5.4,6.1,8,9.1c0.1,0.2,0.3,0.3,0.5,0.6c-0.4,0-0.6,0.1-0.9,0.1c-2.5,0-5,0-7.5,0c-0.6,0-1-0.2-1.4-0.7 c-4.1-4.8-8.2-9.5-12.3-14.2c-0.3-0.3-0.8-0.5-1.2-0.5c-0.7-0.1-1.4,0-2,0c-0.7-0.1-0.9,0.3-0.9,0.9c0,3.9,0,7.8,0,11.7 c0,0.7,0,1.4,0,2.1c0,0.5-0.1,0.7-0.6,0.7c-2,0-4,0-6,0c-0.2,0-0.4-0.3-0.6-0.6c-0.1-0.1,0-0.3,0-0.4c0-11.8,0-23.6,0-35.4 c0-0.7,0.2-0.9,0.9-0.9c1.8,0,3.7,0,5.5,0c0.7,0,0.9,0.2,0.9,0.9c0,4.4,0,8.8,0,13.2c0,1,0,1.1,1.1,1.1c2.7,0,2.7,0,4.5-2.3 c3.3-4.1,6.7-8.2,10-12.3c0.4-0.5,0.8-0.7,1.4-0.6C138.6,0.7,141.2,0.7,144.1,0.7"></path> <path class="st0" d="M164.1,35.2c-1.3,0.9-2.3,1.9-3.6,2.4c-4.3,2-9.9,0.7-13.1-2.8c-3.2-3.5-4.2-7.7-3.5-12.3 c0.9-5.6,4.9-10,10.3-10.8c3.4-0.5,6.4,0.2,8.9,2.7c0.2,0.2,0.4,0.4,0.8,0.7c0-0.8,0.1-1.4,0.1-2c0-0.7,0.2-0.9,0.9-0.9 c1.6,0,3.1,0,4.7,0c0.7,0,0.9,0.2,0.9,0.9c0,2.9,0,5.9,0,8.8c0,5,0,9.9,0,14.9c0,0.8-0.3,1.1-1.1,1c-1.5-0.1-3.1,0-4.6,0 c-0.6,0-0.9-0.2-0.8-0.8C164.1,36.5,164.1,35.9,164.1,35.2 M157.3,32.3c2.6,0,4.6-1.1,5.9-3.3c0.9-1.5,1.1-3.2,0.9-5 c-0.5-5.7-6.2-7.6-10.2-5.3c-2.6,1.5-3.5,4-3.4,6.9C150.7,29.5,153.5,32.3,157.3,32.3"></path> <path class="st0" d="M162.4,56.3c5.3,0.1,9.3,1.9,12,5.9c2,2.9,2.6,6.2,2.2,9.7c-1,7.5-7.6,12.1-14.9,11.5c-3.2-0.3-6.1-1.3-8.5-3.6 c-3.7-3.5-4.9-7.9-3.9-12.8c1.1-5.4,4.5-8.7,9.7-10.2C160.2,56.4,161.6,56.4,162.4,56.3 M162.9,62.6c-4.1,0-7.1,3-7,7.2 c0,4.4,2.9,7.4,6.9,7.4c4.2,0,7.2-3,7.1-7.4C169.8,65.3,166.7,62.5,162.9,62.6"></path> <path class="st0" d="M221.4,30.5c1.3,1.4,2.5,2.8,3.9,4.4c-1.1,0.7-2,1.5-3.1,2c-4.4,2.1-9,2.5-13.5,0.6c-4.7-1.9-7.1-5.7-7.6-10.7 c-0.4-4.7,0.6-8.9,4.3-12.2c2.1-1.9,4.7-2.8,7.5-3c2.2-0.2,4.3,0.1,6.3,1c4.1,1.9,6.3,5.3,7,9.7c0.2,1.3,0.1,2.7,0.2,4 c0.1,0.8-0.3,1-1,1c-5.3,0-10.5,0-15.8,0h-1.6c0.1,3,2.7,5.4,5.7,5.6C216.6,33,219,32.2,221.4,30.5 M219.6,22.7c0-0.4,0-0.7-0.1-1 c-0.7-2.3-2.1-4-4.7-4.3c-3.4-0.4-5.8,1-6.7,4.4c-0.2,0.8-0.1,1,0.8,1c3.2,0,6.5,0,9.7,0C219,22.8,219.2,22.7,219.6,22.7"></path> <path class="st0" d="M250.3,79.6c-1.1,0.7-2,1.4-3,2c-4.3,2.1-8.7,2.5-13.2,0.8c-3.9-1.4-6.4-4.3-7.4-8.3c-1.3-5.1-0.7-9.9,3-14 c2.5-2.7,5.8-3.8,9.4-3.8c6.3,0,11,3.9,12.1,10.1c0.3,1.5,0.3,3,0.3,4.5c0,1.1,0,1.1-1.2,1.1c-5.4,0-10.7,0-16.1,0 c-1.3,0-1.4,0.1-1,1.4c1.1,3.1,3.6,4.3,6.7,4.3c2.1-0.1,4-0.8,5.7-2c0.5-0.4,0.8-0.3,1.1,0.1C248,77,249.1,78.2,250.3,79.6 M244.9,67.4c-0.4-1.1-0.7-2-1.2-2.8c-1.4-2.2-3.5-2.8-6-2.4c-2.5,0.4-3.9,2-4.6,4.4c-0.3,0.9-0.2,1,0.7,1c3.3,0,6.6,0,9.9,0 C244.1,67.5,244.4,67.5,244.9,67.4"></path> <path class="st0" d="M173,12.2c2.4,0,4.7,0,6.9,0c0.2,0,0.5,0.3,0.6,0.5c1.6,4.5,3.3,9,4.9,13.6c0.4,1.2,0.9,2.5,1.4,3.7 c0.1,0.2,0.2,0.3,0.4,0.7c0.5-1.2,0.9-2.3,1.3-3.4c1.8-4.8,3.5-9.6,5.3-14.5c0.1-0.3,0.5-0.7,0.8-0.7c2.1-0.1,4.1,0,6.2,0 c0.1,0,0.1,0,0.3,0.1c-0.7,1.7-1.3,3.4-2,5c-1.9,4.8-3.7,9.5-5.6,14.3c-0.7,1.9-1.5,3.8-2.2,5.6c-0.2,0.5-0.5,0.6-1,0.6 c-2.1,0-4.3,0-6.4,0c-0.5,0-0.8-0.2-1-0.7c-1-2.6-2-5.2-3-7.8c-2.1-5.2-4.1-10.3-6.2-15.5C173.4,13.5,173.2,12.9,173,12.2"></path> </svg> 