<?xml version="1.0" encoding="UTF-8"?> <!-- Generator: Adobe Illustrator 22.0.0, SVG Export Plug-In . SVG Version: 6.00 Build 0) --> <svg xmlns="http://www.w3.org/2000/svg" xmlns:xlink="http://www.w3.org/1999/xlink" id="Layer_1" x="0px" y="0px" viewBox="0 0 173.6 167.2" style="enable-background:new 0 0 173.6 167.2;" xml:space="preserve"> <style type="text/css"> .st0{fill:#FFFFFF;} </style> <path class="st0" d="M89.2,164.6c-12,0-23.4-2-33.7-6c-10-3.9-18.8-9.5-26.2-16.7C14.7,127.4,6.6,107.4,6.6,85.4 c0-17.1,9.8-35.3,27.7-51.3c16-14.4,36.4-24.8,54.5-27.8c18.2-3,35.7,1.6,50.5,13.3c18.7,14.8,30.9,39.3,32.6,65.6 c1.4,21.4-4.8,40.2-18.1,54.5C138.8,155.7,115.9,164.6,89.2,164.6 M99.5,10.7c-3.3,0-6.5,0.3-9.9,0.8c-17.2,2.8-36.6,12.8-52,26.6 C21,53,11.8,69.8,11.8,85.4c0,42.8,32.6,73.9,77.4,73.9c25.2,0,46.7-8.2,60.7-23.2c12.3-13.1,18-30.6,16.7-50.5l0,0 c-1.7-24.9-13.1-48-30.7-61.9C125.1,15.1,112.6,10.7,99.5,10.7"></path> <path class="st0" d="M83.5,157.1c-11.8,0-22.8-2-32.9-5.9c-9.7-3.8-18.3-9.2-25.5-16.3C10.8,121,2.9,101.5,2.9,80.1 c0-16.5,9.6-34.1,27-49.7C45.7,16.2,65.7,6,83.4,3c17.6-2.9,34.5,1.5,48.8,12.9c18.2,14.4,30.1,38.4,31.9,64.1 c1.4,20.8-4.7,39.1-17.6,52.9C132,148.5,109.6,157.1,83.5,157.1 M93.9,3.2c-3.4,0-6.8,0.3-10.2,0.9c-17.5,2.9-37.3,13-53,27.1 C13.4,46.5,4,63.9,4,80.1c0,44,33.5,76,79.5,76c25.8,0,47.9-8.5,62.3-23.9c12.7-13.6,18.6-31.6,17.3-52.1 c-1.7-25.4-13.5-49.1-31.5-63.4C120.3,7.8,107.4,3.2,93.9,3.2"></path> <path class="st0" d="M134.7,96.5c0,4.5-2.9,7.9-8.3,7.9c-2.5,0-5.6-1.7-5.6-4.9c0-5.3,7.4-5.8,10.4-5.8c1.2,0,2.4,0.1,3.5,0.1V96.5z M118.6,85c2.2-1.9,5.6-3.1,8.7-3.1c5.5,0,7.4,2.6,7.4,7.8c-2.2-0.1-3.7-0.1-5.9-0.1c-5.7,0-13.9,2.4-13.9,9.9c0,6.5,4.5,9.3,11,9.3 c5,0,8-2.8,9.3-4.6h0.1v3.9h5.2c-0.1-0.9-0.2-2.5-0.2-5.9V89.9c0-8.2-3.5-12.4-12-12.4c-3.8,0-7.1,1.2-9.9,2.8L118.6,85z M85.3,107.7c0.7,0.1,2.2,0.5,2.2,0.5h0.7V94.3C88.2,87,91,82,97.3,82c4.8,0.3,6.3,3.7,6.3,10.7v15.5h5.5V90.4 c0-8-3.5-12.9-11.2-12.9c-4.2,0-8.2,2.1-9.8,5.5H88v-4.8h-5.3v28.9C82.7,107.2,84.6,107.5,85.3,107.7 M55.1,90.3 c0.4-3.9,2.6-8.3,8-8.3c4.8,0,7.5,3.8,7.5,8.3H55.1z M74.2,101.4c-1.4,1.1-5.6,3-9.2,3c-5.2,0-9.9-4.1-9.9-10h21.4 c0-9.6-3.2-16.9-13.2-16.9c-8.5,0-14,6.3-14,15.2c0,5.9,1.8,10.5,5.5,13.3c0,0,5.8-0.5,10-0.5c4.9,0,9.5,0.5,9.5,0.5v-4.6H74.2z M22.1,108.2h5.5V92.8L41,108.2h0.5c0,0,2-0.5,3.4-0.8s2.8-0.5,2.8-0.5L33.3,91.5l13.9-13.3h-7.5l-12,12.2V64.1h-5.5L22.1,108.2 L22.1,108.2z M148.7,108.1h5.1V80.2l-2.3,3.3l-1.2-0.5l-1.7,2.6L148.7,108.1L148.7,108.1z"></path> <path class="st0" d="M154.9,68.4c0,2-1.7,3.7-3.7,3.7c-2.1,0-3.7-1.7-3.7-3.7c0-2.1,1.7-3.7,3.7-3.7 C153.2,64.7,154.9,66.4,154.9,68.4"></path> </svg> 