<?xml version="1.0" encoding="UTF-8"?> <!-- Generator: Adobe Illustrator 22.0.0, SVG Export Plug-In . SVG Version: 6.00 Build 0) --> <svg xmlns="http://www.w3.org/2000/svg" xmlns:xlink="http://www.w3.org/1999/xlink" id="Layer_1" x="0px" y="0px" viewBox="0 0 252.3 69.3" style="enable-background:new 0 0 252.3 69.3;" xml:space="preserve"> <style type="text/css"> .st0{fill:#FFFFFF;} </style> <path class="st0" d="M34,30c0.2-0.3,0.2-0.7-0.1-0.7c-0.4,0-0.8,0.2-1.2,0.2c-0.8-0.1-0.3-0.3-1.7-0.7c-1.1-0.3-2.6-0.9-3.7-0.4 c-1.7,0.7-2.2,3.4-2.6,4.6c-0.2,0.7-0.3,1.4-0.3,2.1c-0.1,1.4-0.4,2.7-0.8,4c-0.1,0.4-0.3,1.6,0.4,4.4c0.7,2.6,4.7,8.6,4.8,8.9 c0.7,1.4,2.2,2.9,2.1,1.4C29.7,44,28.8,38.7,34,30"></path> <path class="st0" d="M43.7,7c0-4.9-1-7.9-12-5.4c-0.5,0.1-2.6,3.1-3.9,4.4c-1.1,1.1-1.6,1.4-2,1.9c-0.2,0.3-0.5,0.7-0.6,1 c0,0.1,0,0.2,0,0.4c0,0.1,0,0.1,0.1,0.2c0.4,0.7,0.4,2.4,1.3,1.5c1-0.9,2.7-2,3.5-3.1c0.8-1,2.2-2.9,2.5-3.3 c0.3-0.4,1.5-0.9,1.1,0.1c-0.4,1-1.4,2.6-2.7,4.1c-1.1,1.3-2.6,2.2-3.5,3.5c-0.8,1.3-0.8,1.8-0.8,2.5c-0.1,0.7,0.4,0.6,1.5-0.3 c1.2-0.9,5.5-3.3,6.7-4.4c1.1-1,3.5-2.9,3.5-1.5c0,1-7.3,5.7-9.2,7.1c-1.9,1.4-2.1,1.9-2.1,2.6c0.1,0.7,4.4,0.6,4.7,0.5 c0.3-0.1,0.8,0.1,0.3,0.7c-0.5,0.6-2.6,0.9-3.6,1c-1,0.1-1.2,0-1.3,0.3c-0.1,0.2-0.3,1,0.1,1.4c0.1,0.1,0.4,0.2,0.6,0.3 c1.2,0.7,1.9,1.5,2.7,2.4c0.2,0.2,1.8,1.6,3.1,2.3c0.9,0.5,1.6-0.5,1.8-1.1c0.7-1.8,1.1-2.3,1.9-4.2C41.8,11.8,43.7,10.6,43.7,7"></path> <path class="st0" d="M11.3,36.2C21,34.6,24,22.9,24.5,21.3c0.1-0.2,0.1-0.4,0.2-0.5c0.3-1,0.2-1.6,0.2-1.6s0.1-2.9-1.3-8.3 c-0.4-1.6-1.9-4.9-1.9-6.6C14.8,7.4,9,12.9,5.4,20.1c-2.7,5.6-4.2,11.3-4.5,17.1c-0.1,1,0.8,1.4,1.8,1.2 C5.1,38.1,7.8,36.7,11.3,36.2"></path> <path class="st0" d="M26.7,4.8c0.4-0.3,2.4-2.3,3.1-3C27.6,2,25.2,3,23.6,3.5c0,0.4,0.1,0.7,0.2,1C24,5,24.3,6.8,24.9,6.3 C25.5,5.9,26.4,5,26.7,4.8"></path> <path class="st0" d="M29.2,55.7c-1.1-1-5.2-4.9-6.7-7.8C22,47,20.9,44,18.9,43c-4.2-2-14-0.7-15,9.7c-0.1,1.4-0.3,2.4,0.6,3.7 c5.3,7.7,9.8,9.5,15,11.1c7,2.1,9.6,0.6,13.5-0.8C35.6,65.8,35.9,61.6,29.2,55.7"></path> <path class="st0" d="M162.7,49.7c0,0,0.1-9.9,0.1-13.6c0-9.8-1.5-12.8,0.3-12.8c1,0,2.4-0.2,2.9,0.2c0.9,0.7,1.1,2.3,1.1,2.9 c0.1,0.9,0.9,0.4,1.9-0.5c1.1-0.8,2.5-1.6,3-1.9c0.5-0.4,3.3-1.8,4.3-1.9c1.1-0.1,2,0.7,1,1.9c-1,1.3-2.2,2.5-4.4,3.9 c-2,1.4-2.9,1.9-3.7,2.5c-0.8,0.6-2,0.9-2.1,2.1c-0.1,1.1-0.5,3.7,1.4,2.5c1.8-1.2,6.2-3.1,8-4.3c2.8-1.9,3.1-2.8,3.7-3.4 c0.7-0.6,2,1,1.2,2.5c-0.9,1.5-1.6,3.1-4,4.4c-2.4,1.3-3.3,2-5.7,3.6c-2,1.4-4.3,2.1-4.6,3.2c-0.3,1.1,0.1,3,3.4,1.4 c2.2-1.1,8.2-1.5,10-3.3c0.8-0.8,2.9,0.7,1.8,2.7c-1.1,2-4.8,2-8.3,3.3c-3.6,1.3-7,1.6-7,2.7c0,0.4,1.1,0.9,2.1,1 c2.4,0.3,6.2,0.6,8,1.3c1,0.4,0.6,2.4-0.6,2.9c-1.3,0.5-4.8-0.3-6.4-0.5c-1.1-0.1-2.2,0.2-2.9,0.4c-1,0.2-3.8,0.8-4.3-0.4 C162.5,51.4,162.7,49.7,162.7,49.7"></path> <path class="st0" d="M104.2,23.3c1.1,0,1.8,0.3,2.7,1.4c1,1.2,2.1,3.5,3.9,7.7c2.5,5.7,4.1,10,4.7,11.5c0.3,0.7,0.1-7,0.1-11.2 c0-4.2-0.7-9.1,1.4-9.2c2.1,0,3.1-1.3,2.9,5.4c-0.2,7.8,0,19,0,23.2c0,1.9-1.7,1.5-3.6,1.4c-2-0.1-2-2.3-6.2-11.6 c-1.9-4.3-2.5-5.8-3.5-8c-0.7-1.5-0.4,6-0.4,10.6c0,8.3,0.6,9-1.2,9c-2.9,0-3,0-3-5.5c0-7.1,0.1-22.1,0.2-23.3 C102.3,23.2,103,23.3,104.2,23.3"></path> <path class="st0" d="M196.6,23.3c1.2,0.1,3.8-0.3,4.3,0.2c0.9,0.9,0.9,2.7,0.3,3.5c-0.5,0.7-4.4,0.3-5.3,0.3c-0.5,0-1.5,0.1-1.5,0.9 c0.2,2.6,0,7.2,0.1,13c0.1,6.8,0.5,12.1-0.6,12c-2-0.1-3.4,1-3.4-2.9c0-3.7-0.2-14.6-0.1-19.9c0-1.9,0.3-3-0.9-3 c-2.2,0-4.9,0.2-5.6-0.2c-0.5-0.3-0.5-1.4-0.6-2c-0.1-0.4-0.3-1.8,1-1.9C187.1,23.2,194,23.2,196.6,23.3"></path> <path class="st0" d="M226.1,45.5c-1.3-1.4-4.1-5-4.6-6c-0.2-0.3-0.6-1.3,0.5-2.5c1.3-1.5,3.1-3.2,4.1-4.4c4.5-5.1,7-6.2,6.8-7.8 c-0.2-1-1.3-2-2.5-1.5c-0.6,0.3-3.2,2.6-4.3,3.8c-0.6,0.6-3.1,3.2-3.6,3.6c-1.3,1.1-1.1-1.1-1.1-2c0-0.8,0.5-5.7-1.1-5.6 c-1.5,0.1-3.3-0.1-3.3,1.3c0,0.9-0.3,4.5-0.2,6.7c0.3,5.7,0.1,8,0.2,13.1c0.2,5.2-0.5,9.2,1.1,9.2c1.4,0,3,0.1,3-1.3 c0.1-1.5-0.3-6.4,0.3-6.2c0.5,0.1,4.1,5.4,5.3,6.8c1.1,1.3,2.9,0.7,3.5-0.5C230.8,51,228.3,47.9,226.1,45.5"></path> <path class="st0" d="M205.7,24.5c0-1.5,1.2-1.2,1.9-1.2c1.9,0,2.4,0.6,2.4,3.2c0,5.2-0.1,13.1-0.1,17.9c0.1,3.9,0.7,8.7-0.5,8.8 c-2.6,0.2-3.6,0.7-3.6-3.2c0-7.1-0.3-14.4-0.3-17.3C205.6,29.8,205.7,26.5,205.7,24.5"></path> <path class="st0" d="M147.2,52.2c0,1.3-0.6,1.3-1.8,1.3c-1.2,0-2.5-0.3-2.4-1.6c0-6.2,0.1-10.1-0.1-16.6c-0.1-2-0.1-5-0.1-7 c0-2.8,0.5-5,2.3-5.1c2.6,0,5.3,0.3,7.3,1.3c3.3,1.6,4.9,4.6,5,7.3c0.1,2.6-0.5,4.4-2.1,5.9c-4.5,4.1-7.4,2-7.4,3.8 c0,1.5,5.3,5.5,6.2,6.3c1.1,0.9,2.6,2,2.8,2.8c0.3,1.2,0.2,2.7-0.9,2.7c-1.7,0-3.5-1.6-5.4-3.2c-1.5-1.3-3.4-3.3-3.4-2.5 C147.2,47.7,147.2,50.5,147.2,52.2 M149.6,27.8c-1.6-0.2-2.3-0.3-2.4,1.4c-0.1,1.5,0.1,5.8,0.1,6.7c0,1,3,1.2,4.4-0.1 c1.1-1.1,2.2-4.2,0.9-5.7C151.9,29.1,151,28.3,149.6,27.8"></path> <path class="st0" d="M96.6,38.4c-0.2,3.1,0,10.3-1.6,12.4c-1.6,2.1-2.2,2.6-7.4,2.6c-5.2,0-6.4-2.3-7.5-4.7 c-1.7-3.7-2.5-18.9,1.4-23.5c2.2-2.5,4.5-1.8,6.8-1.9c2.7-0.1,5.1,0.1,6.5,2.4C97,29.5,96.6,34.1,96.6,38.4 M83.1,37.6 c-0.2,2.9-0.1,7.5,1,9.7c1,2,2.5,2.1,4.2,2.1c2.4,0,3.9-0.9,4-3.2c0.2-3.4,0.6-14.4-0.5-17.1c-0.5-1.3-2.1-1.7-3.5-1.7 c-1.4,0-2.9,0.5-3.6,1.3C82.5,31,83.2,34.9,83.1,37.6"></path> <path class="st0" d="M131.1,52.1c-4.7-2.7-6.5-10.1-6.6-14.5c0-6.8,4.7-13.1,10.5-14.2c2-0.4,2.3,1,2.4,2.1c0.1,1.3-0.6,1.5-1.8,2.1 c-0.9,0.5-6.5,4.5-6.1,11c0.3,5,2.9,10,6.3,11c1.6,0.4,2.5,1.6,1.8,2.9C136.6,54.2,133.3,53.3,131.1,52.1"></path> <path class="st0" d="M69.1,52.1c-4.7-2.7-6.5-10.1-6.6-14.5c0-6.8,4.7-13.1,10.5-14.2c2-0.4,2.3,1,2.4,2.1c0.1,1.3-0.6,1.5-1.8,2.1 c-0.9,0.5-6.5,4.5-6.1,11c0.3,5,2.9,10,6.3,11c1.6,0.4,2.5,1.6,1.8,2.9C74.6,54.2,71.3,53.3,69.1,52.1"></path> <path class="st0" d="M248.2,29c-1-3.3-2.6-5.4-5.3-5.5c-3.3-0.1-3.8,1-5.4,4.3c-1.8,3.9-3.6,16.8-3.6,22.9c0,0,0.2,2.6,1.5,2.6 s2.9,0.1,2.9-1.9c0-0.8,0-0.9-0.1-3.2c0-0.5,0-1.4,1-1.5c1-0.1,5,0,6.3,0c1.3,0,1.3,1,1.3,1.5c0,2.8,0.1,3.1,0.1,3.5 c0,1.1,0.1,1.7,1.8,1.7c1.7,0,2.3-0.5,2.3-2.6c0-2.1-0.4-7.8-0.9-12.2C249.7,34.8,249.4,32.9,248.2,29 M239,41.8 c0-1,1.1-6.4,1.6-8.3c0.6-2.5,0.8-5.6,2-5.6c1.2,0,2.1,3,2.3,4.3c0.2,1.2,0.8,3.9,1.3,8.1c0.2,1.4,0.3,2.6-1.1,2.7 c-1.5,0.1-4.5-0.2-5.4,0C238.7,43.2,239,42.2,239,41.8"></path> </svg> 