<?xml version="1.0" encoding="UTF-8"?> <!-- Generator: Adobe Illustrator 22.0.0, SVG Export Plug-In . SVG Version: 6.00 Build 0) --> <svg xmlns="http://www.w3.org/2000/svg" xmlns:xlink="http://www.w3.org/1999/xlink" id="Layer_1" x="0px" y="0px" viewBox="0 0 261 57.9" style="enable-background:new 0 0 261 57.9;" xml:space="preserve"> <style type="text/css"> .st0{fill:#FFFFFF;} </style> <path class="st0" d="M15.2,1.5c7,0,14.1,5.1,14.1,15H23c0-5.7-3.9-8.7-7.8-8.7c-4,0-7.9,2.3-7.9,6.5v4.4c0,4.2,4.8,5.7,8.6,6.4 c6.2,1.3,13.4,3.2,13.4,12.6v5.5c0,8.6-7.2,13-14.2,13c-7.3,0-14.1-5.1-14-15.1h6.2c0,5.7,3.8,8.7,7.8,8.7c3.9,0,7.9-2.3,7.9-6.5 v-5.5c0-4.6-4.3-5.6-8.4-6.3C8,30.2,1.2,28.7,1.1,18.8v-4.4C1.1,5.8,8,1.5,15.2,1.5"></path> <path class="st0" d="M57.9,43.9c0,8.2-6.3,12.2-12.5,12.2c-6.3,0-12.4-4-12.4-12.2V30.5c0-8.3,6.2-12.1,12.4-12.1 c6.3,0,12.5,3.8,12.5,12.1V43.9z M51.6,30.5c0-3.9-3.1-6-6.3-6c-3.1,0-6.3,2.1-6.3,6v13.4c0,3.9,3.2,5.9,6.3,5.9s6.3-2,6.3-5.9V30.5 z"></path> <path class="st0" d="M75.6,49.6v6.1c-7.9,0-13.9-5.1-13.9-12.4V1.8h6.1v41.5C67.8,46.8,71.1,49.6,75.6,49.6"></path> <path class="st0" d="M86.8,7.4c0,2.2-1.9,3.8-4,3.8c-2,0-3.8-1.6-3.8-3.8c0-2.4,1.8-3.9,3.8-3.9C84.9,3.5,86.8,5,86.8,7.4 M86,55.7 h-6.1V17.9H86V55.7z"></path> <path class="st0" d="M90.5,45V30.4c0-6.2,5.5-12.3,12.3-11.8c2.1,0.2,4.5,1.1,5.9,3.6V1.8h6.2v53.9l-5.9,0.1v-3.9 c-1.4,3.2-4.1,4.3-6.4,4.3C94.3,56.2,90.5,51.4,90.5,45 M96.7,45c0,3.1,2.8,5.1,6.1,5.1c3.3,0,5.9-2.8,5.9-5.4V30 c-0.1-3.1-2.1-5.3-5.9-5.3c-3.3,0-6.1,2.5-6.1,5.6V45z"></path> <path class="st0" d="M147.4,51.4c-0.4,2.8-2.5,4.3-4.5,4.3c-1.8,0-4.4-1.5-5-4.2c-0.6-3.2-1.2-6.4-9.4-49.5h6.7 c1.8,7.7,4.1,21.5,6.4,35l1.4,12.4l1.4-11.3l2.1-16.2c0.7-5,8.4-6.5,10.7-0.2l2.2,16.9l1.2,10.5l1.3-12.2l6-34.9h7l-9.5,49.4 c-0.6,2.8-2.8,4.4-4.8,4.4c-2.1,0-3.9-1.6-4.4-4.5l-2.3-14.9l-2-13.8h-0.3l-1.9,13.3L147.4,51.4z"></path> <path class="st0" d="M172.8,43.8v-2.1c0-6.4,4.9-12,12-12c2.5,0,5.4,1.6,6.3,4.1l-0.2-3.2c0-3.2-2.7-5.9-6-5.9 c-1.5,0-3.8,0.9-5.8,2.9l-3.4-5.1c2.6-2.4,6.2-4.1,9.2-4.1c6.5,0,12.2,5.4,12.2,12.2v25.1h-5.5l-0.1-3.9c-0.8,3.2-4.7,4.4-6.6,4.4 C178.3,56,172.8,50.4,172.8,43.8 M184.9,49.8c2.9,0,6-2.4,6-5.1v-3.8c0-3.1-2.7-5.2-6-5.2c-3.2,0-5.9,2.6-5.9,5.9v2.1 C179,47.1,181.7,49.8,184.9,49.8"></path> <polygon class="st0" points="201.7,55.6 201.7,1.8 207.8,1.8 207.8,18.5 212.9,18.5 212.9,24.8 207.8,24.8 207.8,55.6 "></polygon> <path class="st0" d="M227.4,41.4h-6v2.5c0,3.2,2.7,5.9,6,5.9c1.8,0,4.4-1.1,6.4-3.8l5,3.7c-3.3,4.8-7.9,6.3-11.4,6.3 c-6.5,0-12.2-5.1-12.2-12.1V30.6c0-6.4,5.3-12.3,12.2-12.3c6.6,0,12.1,5.4,12.1,12.2C239.5,37.5,233.9,41.4,227.4,41.4 M227.4,36.6 c3.2,0,5.9-2.8,5.9-6.1c0-3.2-2.7-5.9-5.9-5.9c-3.3,0-6,2.8-6,6.1v5.9H227.4z"></path> <path class="st0" d="M241.4,55.9V19.2h5.8V23c2.2-5.4,8.1-5.5,12.2-2.2l-2.1,5.6c-3.6-2.5-9.1-1.9-9.7,3.1v26.4H241.4z"></path> </svg> 