<?xml version="1.0" encoding="UTF-8"?> <!-- Generator: Adobe Illustrator 22.0.0, SVG Export Plug-In . SVG Version: 6.00 Build 0) --> <svg xmlns="http://www.w3.org/2000/svg" xmlns:xlink="http://www.w3.org/1999/xlink" id="Layer_1" x="0px" y="0px" viewBox="0 0 361.3 119.2" style="enable-background:new 0 0 361.3 119.2;" xml:space="preserve"> <style type="text/css"> .st0{fill:#FFFFFF;} </style> <path class="st0" d="M36.7,38.7L27,25.1H8.9v13.6H2.9V2.9h28.2c3.8,0,6.8,1,8.9,3c2.1,2,3.2,4.8,3.2,8.3c0,1.6-0.2,3-0.7,4.2 c-0.5,1.2-1.1,2.3-2,3.1c-0.8,0.9-1.8,1.6-3,2.1c-1.1,0.5-2.4,0.9-3.7,1.1l9.6,13.9H36.7z M35.4,18.3c1.2-0.9,1.8-2.3,1.8-4.1 c0-3.9-2.5-5.9-7.4-5.9H8.9v11.4h21.4C32.5,19.7,34.2,19.2,35.4,18.3"></path> <polygon class="st0" points="52.8,38.7 52.8,2.9 88.9,2.9 88.9,8.3 58.7,8.3 58.7,17.5 79.7,17.5 79.7,22.9 58.7,22.9 58.7,33.3 90.3,33.3 90.3,38.7 "></polygon> <path class="st0" d="M120.9,8.3c-2.7-0.7-5.4-1-8.2-1c-3.7,0-6.5,0.4-8.5,1.3c-1.9,0.9-2.9,2.1-2.9,3.5c0,1.6,1,2.7,3.1,3.5 c1,0.4,2.1,0.6,3.3,0.8c1.2,0.1,2.5,0.3,4,0.3c1.4,0.1,3,0.2,4.6,0.3c1.7,0.1,3.4,0.3,5.2,0.5c4.5,0.6,7.8,1.6,9.9,3.3 c2.1,1.6,3.2,3.9,3.2,6.9c0,3.8-1.7,6.7-5,8.8c-3.3,2.1-8.2,3.1-14.6,3.1c-4.6,0-8.6-0.5-12.1-1.5c-3.5-1-6.6-2.5-9.2-4.6l3.3-4.3 c2.9,1.8,5.8,3.1,8.7,3.9c2.9,0.8,6.1,1.2,9.3,1.2c4.3,0,7.5-0.6,9.7-1.7c2.2-1.1,3.3-2.7,3.3-4.6c0-1.3-0.4-2.3-1.1-3 c-0.7-0.7-1.8-1.2-3.2-1.6c-1.4-0.4-3.2-0.6-5.2-0.8c-2.1-0.1-4.4-0.3-7.1-0.5c-2.8-0.2-5.2-0.5-7.2-0.8c-2.1-0.3-3.8-0.9-5.2-1.6 c-1.4-0.7-2.4-1.6-3.1-2.7c-0.7-1.1-1-2.5-1-4.3c0-3.4,1.5-6,4.6-8C102.8,3,107.3,2,113.1,2c7.7,0,14.2,1.8,19.4,5.3l-3.6,4 C126.2,10,123.5,8.9,120.9,8.3"></path> <path class="st0" d="M76.8,57.2c0.7-0.2,0.6-0.3,0.6-0.3c3.4-1.5,5.7-2.2,6.9-2.2c1.6,0,2.9,0.5,3.9,1.6c1.1,1,1.6,2.3,1.6,3.9 c0,0.9-0.2,1.5-0.5,2c0.1,0.5,0.7,0.7,1.9,0.7c0.5,0,3.8-0.9,8.6-1.8l-0.6,1.6c-4.8,1.1-7.9,2.2-9.3,2.2c-0.9,0-1.5-0.1-2-0.3 c-1.5,2.1-3.4,3.1-5.8,3.1c-4.4,0-6.6-2.5-6.6-7.5c0.8-0.3,0.8-0.3,0,0 M85.9,57.1c-1.4,0-2.1,0.1-2.3,0.2c-2.1,0.5-3.4,1.8-3.7,3.9 c0,2.7,0.9,4,2.8,4c0.2-0.1,0.6-0.2,1.3-0.3c1.4-0.3,2.2-1.2,2.4-2.6c0-1.4,0.3-2.5,0.9-3.1C87.5,58.2,87,57.5,85.9,57.1"></path> <path class="st0" d="M118.4,54.2c0,6,2.3,9,6.8,9c2.9,0,5.2-1.2,6.9-3.5c0-3.6,0.9-5.8,2.6-6.5l0.5,0.3c0.4,0.4,0.7,1.5,0.7,3.2 c0,0.4-0.4,1.5-1.2,3.4c1.5,1.5,3.2,2.3,5.1,2.3c1,0,2.6-0.2,4.7-0.5c2.1-0.4,3.7-0.6,4.6-0.7v1.7c-4.5,1-7.4,1.5-8.7,1.5 c-2.8,0-5.1-0.8-7.1-2.4c-2.8,2.4-5.5,3.6-8.4,3.6c-4.9,0-8.4-2.8-10.4-8.4c-1.4,0.7-3.4,1.6-6.1,2.9c-2.7,1.2-6,2.2-9.9,2.9 l0.3-1.3c5.3-1.8,10.5-4.1,15.6-7c-0.1-4.4,1.9-10.8,6.2-19.2c3.6-7,7.3-12.8,11.1-17.5c5.3-6.5,9.8-9.7,13.6-9.7 c1.7,0,2.5,1.2,2.5,3.6c0,6-3.6,13.8-10.8,23.3C130.6,43.4,124.5,49.7,118.4,54.2 M118.8,50.8c4.1-2.3,9.6-8,16.4-17.2 c7-9.5,10.6-16.4,10.6-20.6c0-1.3-0.3-2-0.9-2c-3.6,0-8.9,5.7-15.8,17C122.5,38.8,119.1,46.4,118.8,50.8"></path> <path class="st0" d="M181.3,54.9c-0.5,1-2.9,5-7.3,12c8.8-2.7,17.3-4.6,25.6-5.8v1.7c-9.8,1.9-18.9,4-27.3,6.5 c-2.9,5.2-8.3,13.1-16.3,23.7c-11.6,15.3-19.8,23-24.6,23c-0.9,0-1.4-1.1-1.4-3.2c0-8.3,4.7-16.9,14-25.7c4.2-4,12.4-10.2,24.5-18.5 l7.3-11.7c-4.2,1.1-13.5,3.1-28,6l0-1.7c7.1-1.4,17.6-3.7,31.6-7.1L181.3,54.9z M131.1,112.2c0,1,0.3,1.7,1,2.2 c3.6,0,7.9-3.7,12.8-11l19.9-29.7c-6.6,3.8-13.5,9.3-20.7,16.6C135.4,99.2,131.1,106.5,131.1,112.2 M193.8,26.3 c0-1.1,0.3-2.6,0.9-4.7c0.7-2.4,1.4-3.6,2.2-3.6c1.8,0,2.7,0.7,2.7,2c0,1.1-0.7,2.5-2.1,4C196.2,25.5,195,26.3,193.8,26.3"></path> <path class="st0" d="M210.8,60.9c0,1.9,2.4,2.9,7.1,2.9c3.9,0,9.4-0.7,16.4-2.3v1.7c-9.1,1.9-14.8,2.9-17.3,2.9 c-5.1,0-8.5-1.4-10.4-4.3l-8.7,1.4v-1.7l8.3-1.9c0.7-2.8,2.4-4.9,5.2-6.5c2.4-1.4,5.1-2.1,8.2-2.1c3.3,0,5,1.1,5,3.2 c0,2-1.8,3.6-5.5,4.8C216.3,59.6,213.5,60.2,210.8,60.9 M218.5,53.2c-1.3,0-3,0.6-4.9,1.8c-2.1,1.3-3.2,2.5-3.2,3.8 c1.5,0,3.6-0.4,6.3-1.3c3.2-1.1,4.7-2.2,4.7-3.4C221.4,53.5,220.4,53.2,218.5,53.2"></path> <path class="st0" d="M254.6,58.6c-2.2,0.4-4,0.8-5.4,1.1c0,2.7,2.6,4.1,7.9,4.1c2.6,0,7.5-0.9,14.8-2.6V63 c-8.3,1.9-13.7,2.8-16.3,2.8c-5,0-8.5-1.8-10.4-5.3l-11,2.5l0-1.8l10.6-2.5c0.6-2.1,1.8-3.9,3.6-5.4c1.8-1.5,3.8-2.3,6-2.3 c2.6,0,4.4,0.3,5.4,1c1.4,0.8,2.1,2.4,2.2,4.9c0.1,2.1-1.6,3.2-5,3.2c-0.4,0-0.9-0.2-1.5-0.5C254.9,59.3,254.6,59,254.6,58.6 M256.2,53.1c-4.3,0-6.7,1.6-7.2,4.7l5.3-0.9c0.8-1.6,1.6-2.4,2.5-2.4c1.4,0,2.2,0.6,2.2,1.8c0,0.5-0.2,1-0.7,1.6 c1.3,0,1.9-0.6,1.9-1.7C260.2,54.1,258.9,53.1,256.2,53.1"></path> <path class="st0" d="M317.2,19c0.4,1.2,0.7,1.8,0.7,1.9c-1.8,2.8-4.6,6.5-8.4,11.2h8.4v2h-9.8c-3.5,5.1-5.6,8.3-6.4,9.6 c-2.7,4.5-4,8-4,10.6c0,2.7,1.2,4.8,3.6,6.3c2,1.3,4.4,1.9,7.3,1.9c2.7,0,5.8-0.4,9.3-1.2V63c-4.2,1-7.8,1.5-10.6,1.5 c-8.7,0-13.1-3.8-13.1-11.5c0-1.7,0.3-3.5,0.8-5.4c-6.8,7.7-14.5,12.8-23.1,15.3v-1.7c6.8-2.8,12.7-6.4,17.8-11 c4.4-4,9-9.4,13.5-16.1h-14.6v-2h15.8c1.2-1.6,3-3.9,5.4-7.1c2.7-3.5,4.7-5.5,6-6H317.2z"></path> <path class="st0" d="M345.5,63.3c3.8,0,8-0.6,12.6-1.8v1.7c-1,0.6-3.7,1.1-8,1.5c-3.5,0.4-6.4,0.6-8.7,0.6c-2.4,1.7-4.8,2.5-7.1,2.5 c-1.4,0-2.8-0.3-4.1-0.8c-1.8-0.7-2.6-1.6-2.6-2.8c0-1.3,0.4-2.2,1.1-2.7c4.7,1.1,8.8,1.7,12.3,1.8c1.1-1.6,1.7-2.6,1.7-3.1 c0-1.8-1.4-2.8-4.2-2.8c-1.9,0-5.5,0.8-10.7,2.4l-11.1,3.4v-1.7c11.2-4.1,19.3-6.1,24.5-6.1c4.2,0,6.3,1.7,6.3,5 c0,0.4-0.3,1-0.9,1.6c-0.6,0.7-1.1,1.1-1.5,1.3H345.5z M338.7,64.7c-0.1-0.1-1.2-0.3-3.4-0.6c-2.2-0.3-3.5-0.5-3.8-0.5 c-0.4,0-0.6,0.3-0.6,0.7c0,1.3,1,2,3.1,2C335.9,66.4,337.5,65.8,338.7,64.7"></path> </svg> 