<?xml version="1.0" encoding="UTF-8"?> <!-- Generator: Adobe Illustrator 22.0.0, SVG Export Plug-In . SVG Version: 6.00 Build 0) --> <svg xmlns="http://www.w3.org/2000/svg" xmlns:xlink="http://www.w3.org/1999/xlink" id="Layer_1" x="0px" y="0px" viewBox="0 0 173.6 167.2" style="enable-background:new 0 0 173.6 167.2;" xml:space="preserve"> <style type="text/css"> .st0{fill:#FFFFFF;} </style> <path class="st0" d="M88.5,129.5c-6.8,0-13.3-1.1-19.1-3.4c-5.7-2.2-10.7-5.4-14.9-9.5c-8.3-8.2-12.9-19.6-12.9-32.1 c0-9.7,5.6-20,15.7-29.1c9.1-8.2,20.7-14.1,30.9-15.8c10.3-1.7,20.3,0.9,28.7,7.6c10.6,8.4,17.5,22.3,18.5,37.2 c0.8,12.2-2.7,22.8-10.3,30.9C116.6,124.4,103.6,129.5,88.5,129.5 M94.3,42.1c-1.9,0-3.7,0.2-5.6,0.5c-9.8,1.6-20.8,7.3-29.5,15.1 c-9.4,8.5-14.6,18-14.6,26.9c0,24.3,18.5,42,43.9,42c14.3,0,26.5-4.7,34.5-13.2c7-7.4,10.2-17.4,9.5-28.7l0,0 c-1-14.1-7.4-27.3-17.4-35.1C108.8,44.6,101.7,42.1,94.3,42.1"></path> <path class="st0" d="M85.2,125.2c-6.7,0-12.9-1.1-18.7-3.3c-5.5-2.2-10.4-5.2-14.5-9.3c-8.1-7.9-12.6-19-12.6-31.1 c0-9.4,5.5-19.4,15.3-28.2c9-8.1,20.3-13.9,30.4-15.6c10-1.6,19.6,0.9,27.7,7.3c10.3,8.2,17.1,21.8,18.1,36.4 c0.8,11.8-2.7,22.2-10,30C112.8,120.3,100,125.2,85.2,125.2 M91.1,37.8c-1.9,0-3.9,0.2-5.8,0.5c-9.9,1.6-21.2,7.4-30.1,15.4 c-9.8,8.7-15.2,18.6-15.2,27.8c0,25,19,43.2,45.1,43.2c14.6,0,27.2-4.8,35.4-13.6c7.2-7.7,10.6-17.9,9.8-29.6 c-1-14.4-7.7-27.9-17.9-36C106.1,40.5,98.8,37.8,91.1,37.8"></path> <path class="st0" d="M114.3,90.8c0,2.6-1.6,4.5-4.7,4.5c-1.4,0-3.2-1-3.2-2.8c0-3,4.2-3.3,5.9-3.3c0.7,0,1.4,0.1,2,0.1V90.8z M105.2,84.3c1.2-1.1,3.2-1.8,4.9-1.8c3.1,0,4.2,1.5,4.2,4.4c-1.2-0.1-2.1-0.1-3.3-0.1c-3.2,0-7.9,1.4-7.9,5.6 c0,3.7,2.6,5.3,6.2,5.3c2.8,0,4.5-1.6,5.3-2.6h0.1v2.2h3c-0.1-0.5-0.1-1.4-0.1-3.3v-7c0-4.7-2-7-6.8-7c-2.2,0-4,0.7-5.6,1.6 L105.2,84.3z M86.2,97.2c0.4,0.1,1.2,0.3,1.2,0.3h0.4v-7.9c0-4.1,1.6-7,5.2-7c2.7,0.2,3.6,2.1,3.6,6.1v8.8h3.1V87.4 c0-4.5-2-7.3-6.4-7.3c-2.4,0-4.7,1.2-5.6,3.1h-0.1v-2.7h-3v16.4C84.8,96.9,85.9,97.1,86.2,97.2 M69.1,87.3c0.2-2.2,1.5-4.7,4.5-4.7 c2.7,0,4.3,2.2,4.3,4.7H69.1z M79.9,93.6c-0.8,0.6-3.2,1.7-5.2,1.7c-3,0-5.6-2.3-5.6-5.7h12.2c0-5.5-1.8-9.6-7.5-9.6 c-4.8,0-7.9,3.6-7.9,8.6c0,3.3,1,6,3.1,7.6c0,0,3.3-0.3,5.7-0.3c2.8,0,5.4,0.3,5.4,0.3L79.9,93.6L79.9,93.6z M50.4,97.5h3.1v-8.7 l7.6,8.7h0.3c0,0,1.1-0.3,1.9-0.5c0.8-0.2,1.6-0.3,1.6-0.3L56.7,88l7.9-7.6h-4.3l-6.8,6.9V72.4h-3.1L50.4,97.5L50.4,97.5z M122.2,97.4h2.9V81.6l-1.3,1.9l-0.7-0.3l-1,1.5L122.2,97.4L122.2,97.4z"></path> <path class="st0" d="M125.8,74.9c0,1.1-1,2.1-2.1,2.1c-1.2,0-2.1-1-2.1-2.1c0-1.2,1-2.1,2.1-2.1C124.8,72.8,125.8,73.7,125.8,74.9"></path> </svg> 