<?xml version="1.0" encoding="UTF-8"?> <!-- Generator: Adobe Illustrator 22.0.0, SVG Export Plug-In . SVG Version: 6.00 Build 0) --> <svg xmlns="http://www.w3.org/2000/svg" xmlns:xlink="http://www.w3.org/1999/xlink" id="Layer_1" x="0px" y="0px" viewBox="0 0 316.4 50.9" style="enable-background:new 0 0 316.4 50.9;" xml:space="preserve"> <style type="text/css"> .st0{fill:#FFFFFF;} .st1{clip-path:url(#SVGID_2_);fill:none;stroke:#FFFFFF;stroke-width:0.5;stroke-miterlimit:10;} </style> <g> <path class="st0" d="M1.9,20.8h2v6.3c0.8-2,2-3.6,3.6-4.7s3.3-1.7,5.3-1.7c1.3,0,2.5,0.3,3.8,0.8v2.3c-1.2-0.9-2.5-1.3-4-1.3 c-1.5,0-2.9,0.4-4.2,1.3c-1.4,0.9-2.5,2.1-3.3,3.6c-0.8,1.5-1.3,3.1-1.3,4.8v16h-2V20.8z"></path> <path class="st0" d="M22.9,20.8h2v27.4h-2V20.8z M23.8,14.5c-0.6,0-1.1-0.2-1.5-0.6s-0.6-0.9-0.6-1.5c0-0.6,0.2-1.1,0.6-1.5 s0.9-0.6,1.5-0.6s1.1,0.2,1.5,0.6c0.4,0.4,0.6,0.9,0.6,1.5c0,0.6-0.2,1.1-0.6,1.5C24.9,14.3,24.4,14.5,23.8,14.5z"></path> <path class="st0" d="M33.9,20.8h2v6.1c0.9-2,2.4-3.7,4.6-4.9c2.2-1.2,4.5-1.9,7.1-1.9c3.4,0,6,1.1,8,3.2s3,5.1,3,8.9v16h-2v-16 c0-3.3-0.8-5.9-2.4-7.7c-1.6-1.8-3.9-2.7-6.7-2.7c-2.1,0-4.1,0.5-5.8,1.4c-1.8,1-3.2,2.3-4.2,3.9c-1,1.7-1.6,3.6-1.6,5.7v15.4h-2 V20.8z"></path> <path class="st0" d="M79.3,47.2c2.2,0,4.3-0.6,6.2-1.7c1.9-1.2,3.4-2.7,4.5-4.6c1.1-1.9,1.7-4,1.7-6.3c0-2.2-0.6-4.3-1.7-6.3 c-1.1-2-2.7-3.5-4.6-4.7c-1.9-1.2-4-1.7-6.2-1.7c-2.2,0-4.3,0.6-6.3,1.8c-1.9,1.2-3.5,2.7-4.6,4.7c-1.2,2-1.7,4-1.7,6.3 c0,2.2,0.6,4.3,1.7,6.3c1.2,1.9,2.7,3.5,4.7,4.6C75,46.6,77.1,47.2,79.3,47.2z M79.2,48.9c-2.6,0-5-0.7-7.3-2s-4-3.1-5.3-5.3 c-1.3-2.2-2-4.6-2-7.2c0-2.6,0.7-5,2-7.2s3.1-4,5.3-5.3s4.7-2,7.3-2c2.6,0,5.1,0.7,7.5,2.1c2.4,1.4,4,3.2,4.9,5.5v-6.9h2v27.4h-2 v-6.8c-1.1,2.3-2.8,4.1-5.1,5.5S81.8,48.9,79.2,48.9z"></path> <path class="st0" d="M114.7,20.8h2V25c1.9-3.2,4.9-4.8,9-4.8c2,0,3.7,0.6,5.2,1.7c1.5,1.1,2.5,2.8,3.1,5c0.5-2,1.7-3.6,3.5-4.8 c1.8-1.2,3.9-1.9,6.1-1.9c3,0,5.3,0.9,6.9,2.6c1.6,1.7,2.4,4.2,2.4,7.4v18.2h-2V30.1c0-2.6-0.7-4.6-2-6c-1.3-1.5-3.1-2.2-5.2-2.2 c-1.6,0-3.1,0.4-4.5,1.2c-1.4,0.8-2.5,1.9-3.3,3.2c-0.8,1.3-1.2,2.8-1.2,4.5v17.6h-2V31.2c0-2.9-0.7-5.2-2.1-6.9 c-1.4-1.6-3.2-2.5-5.4-2.5c-1.5,0-2.9,0.4-4.2,1.1c-1.3,0.7-2.4,1.7-3.2,3c-0.8,1.2-1.3,2.6-1.3,4.1v18.3h-2V20.8z"></path> <path class="st0" d="M161.2,34.3c0,3.4,1.1,6.3,3.4,8.7l17.9-17.8c-1.3-1.2-2.6-2-3.9-2.5c-1.3-0.5-2.8-0.8-4.5-0.8 c-2.5,0-4.7,0.5-6.6,1.6c-1.9,1.1-3.4,2.6-4.5,4.4C161.8,29.8,161.2,31.9,161.2,34.3z M173.9,47.3c2.1,0,4.1-0.5,6-1.6 c1.9-1.1,3.5-2.6,4.8-4.5v3.1c-1.5,1.7-3.2,2.9-4.9,3.6c-1.8,0.8-3.8,1.1-6.1,1.1c-2.5,0-4.9-0.7-7.1-2c-2.2-1.3-4-3.1-5.3-5.4 c-1.3-2.2-2-4.6-2-7.1c0-2.7,0.7-5.2,2-7.4c1.3-2.2,3.1-3.9,5.3-5.1c2.3-1.2,4.8-1.8,7.5-1.8c4.2,0,7.8,1.7,10.8,5l-19.2,18.9 c1.3,1.1,2.6,1.9,3.9,2.4S172.3,47.3,173.9,47.3z"></path> <path class="st0" d="M191,20.8h2v6.1c0.9-2,2.4-3.7,4.6-4.9s4.5-1.9,7.1-1.9c3.4,0,6,1.1,8,3.2c2,2.1,3,5.1,3,8.9v16h-2v-16 c0-3.3-0.8-5.9-2.4-7.7s-3.9-2.7-6.7-2.7c-2.1,0-4.1,0.5-5.8,1.4c-1.8,1-3.2,2.3-4.2,3.9c-1,1.7-1.6,3.6-1.6,5.7v15.4h-2V20.8z"></path> <path class="st0" d="M236.4,47.2c2.2,0,4.3-0.6,6.2-1.7c1.9-1.2,3.4-2.7,4.5-4.6c1.1-1.9,1.7-4,1.7-6.3c0-2.2-0.6-4.3-1.7-6.3 c-1.1-2-2.7-3.5-4.6-4.7c-1.9-1.2-4-1.7-6.2-1.7c-2.2,0-4.3,0.6-6.3,1.8c-1.9,1.2-3.5,2.7-4.6,4.7c-1.2,2-1.7,4-1.7,6.3 c0,2.2,0.6,4.3,1.7,6.3c1.2,1.9,2.7,3.5,4.7,4.6C232,46.6,234.1,47.2,236.4,47.2z M236.2,48.9c-2.6,0-5-0.7-7.3-2 c-2.2-1.3-4-3.1-5.3-5.3c-1.3-2.2-2-4.6-2-7.2c0-2.6,0.7-5,2-7.2s3.1-4,5.3-5.3c2.2-1.3,4.7-2,7.3-2c2.6,0,5.1,0.7,7.5,2.1 c2.4,1.4,4,3.2,4.9,5.5v-6.9h2v27.4h-2v-6.8c-1.1,2.3-2.8,4.1-5.1,5.5S238.9,48.9,236.2,48.9z"></path> <path class="st0" d="M258.3,20.8h2v6.3c0.8-2,2-3.6,3.6-4.7s3.3-1.7,5.3-1.7c1.3,0,2.5,0.3,3.8,0.8v2.3c-1.2-0.9-2.5-1.3-4-1.3 c-1.5,0-2.9,0.4-4.2,1.3c-1.4,0.9-2.5,2.1-3.3,3.6c-0.8,1.5-1.3,3.1-1.3,4.8v16h-2V20.8z"></path> <path class="st0" d="M288.9,47.2c2.2,0,4.3-0.6,6.3-1.7c1.9-1.2,3.5-2.7,4.6-4.6c1.2-1.9,1.7-4,1.7-6.3c0-2.2-0.6-4.3-1.7-6.3 c-1.2-2-2.7-3.5-4.6-4.7c-1.9-1.2-4-1.8-6.3-1.8c-2.2,0-4.3,0.6-6.2,1.7c-1.9,1.2-3.4,2.7-4.6,4.7c-1.1,2-1.7,4-1.7,6.3 c0,2.3,0.6,4.4,1.7,6.3c1.1,1.9,2.6,3.5,4.6,4.6C284.6,46.6,286.6,47.2,288.9,47.2z M288.9,48.9c-2.6,0-5.1-0.7-7.3-2 c-2.2-1.3-4-3.1-5.3-5.2c-1.3-2.2-2-4.6-2-7.2c0-2.6,0.7-5,2-7.2c1.3-2.2,3.1-3.9,5.3-5.2c2.2-1.3,4.6-2,7.3-2c2.6,0,5,0.7,7.3,2 c2.3,1.4,4,3.1,5.1,5.3v-25h2v45.8h-2v-6.6c-1.2,2.2-3,4-5.3,5.3S291.4,48.9,288.9,48.9z"></path> <path class="st0" d="M312.4,20.8h2v27.4h-2V20.8z M313.4,14.5c-0.6,0-1.1-0.2-1.5-0.6s-0.6-0.9-0.6-1.5c0-0.6,0.2-1.1,0.6-1.5 s0.9-0.6,1.5-0.6s1.1,0.2,1.5,0.6c0.4,0.4,0.6,0.9,0.6,1.5c0,0.6-0.2,1.1-0.6,1.5C314.5,14.3,314,14.5,313.4,14.5z"></path> </g> <g> <defs> <rect id="SVGID_1_" x="-416.3" y="-1538" width="1080" height="3142"></rect> </defs> <clipPath id="SVGID_2_"> <use xlink:href="#SVGID_1_" style="overflow:visible;"></use> </clipPath> <path class="st1" d="M-33.2-1187.3h2v-16c0-1.7,0.4-3.3,1.3-4.8c0.8-1.5,1.9-2.7,3.3-3.6c1.4-0.9,2.8-1.3,4.2-1.3 c1.5,0,2.8,0.4,4,1.3v-2.3c-1.3-0.5-2.6-0.8-3.8-0.8c-2,0-3.8,0.6-5.3,1.7c-1.6,1.1-2.8,2.7-3.6,4.7v-6.3h-2V-1187.3z"></path> <path class="st1" d="M-12.3-1187.3h2v-27.4h-2V-1187.3z M-11.3-1221.1c0.6,0,1.1-0.2,1.5-0.6c0.4-0.4,0.6-0.9,0.6-1.5 c0-0.6-0.2-1.1-0.6-1.5c-0.4-0.4-0.9-0.6-1.5-0.6c-0.6,0-1.1,0.2-1.5,0.6c-0.4,0.4-0.6,0.9-0.6,1.5c0,0.6,0.2,1.1,0.6,1.5 C-12.4-1221.3-11.9-1221.1-11.3-1221.1z"></path> <path class="st1" d="M-1.3-1187.3h2v-15.4c0-2.1,0.5-4,1.6-5.7c1-1.7,2.4-3,4.2-3.9c1.8-1,3.7-1.4,5.8-1.4c2.9,0,5.1,0.9,6.7,2.7 c1.6,1.8,2.4,4.4,2.4,7.7v16h2v-16c0-3.8-1-6.8-3-8.9c-2-2.1-4.6-3.2-8-3.2c-2.6,0-5,0.6-7.1,1.9c-2.2,1.2-3.7,2.9-4.6,4.9v-6.1h-2 V-1187.3z"></path> <path class="st1" d="M44.1-1188.4c-2.2,0-4.3-0.6-6.3-1.7c-2-1.2-3.5-2.7-4.7-4.6c-1.2-1.9-1.7-4-1.7-6.3c0-2.2,0.6-4.3,1.7-6.3 c1.2-2,2.7-3.5,4.6-4.7c1.9-1.2,4-1.8,6.3-1.8c2.2,0,4.3,0.6,6.2,1.7c1.9,1.2,3.4,2.7,4.6,4.7c1.1,2,1.7,4,1.7,6.3 c0,2.3-0.6,4.4-1.7,6.3c-1.1,1.9-2.6,3.5-4.5,4.6C48.4-1189,46.4-1188.4,44.1-1188.4z M44-1186.7c2.6,0,5.1-0.7,7.4-2 c2.3-1.4,4-3.2,5.1-5.5v6.8h2v-27.4h-2v6.9c-0.9-2.2-2.6-4.1-4.9-5.5c-2.4-1.4-4.9-2.1-7.5-2.1c-2.6,0-5,0.7-7.3,2 c-2.2,1.3-4,3.1-5.3,5.3c-1.3,2.2-2,4.6-2,7.2c0,2.6,0.7,5,2,7.2c1.3,2.2,3.1,4,5.3,5.3C39-1187.3,41.4-1186.7,44-1186.7z"></path> <path class="st1" d="M79.5-1187.3h2v-18.3c0-1.5,0.4-2.8,1.3-4.1c0.8-1.2,1.9-2.2,3.2-3c1.3-0.7,2.7-1.1,4.2-1.1 c2.2,0,4,0.8,5.4,2.5c1.4,1.6,2.1,3.9,2.1,6.9v17.1h2v-17.6c0-1.6,0.4-3.1,1.2-4.5c0.8-1.3,1.9-2.4,3.3-3.2s2.9-1.2,4.5-1.2 c2.2,0,3.9,0.7,5.2,2.2c1.3,1.5,2,3.5,2,6v18.2h2v-18.2c0-3.2-0.8-5.6-2.4-7.3c-1.6-1.7-3.9-2.6-6.9-2.6c-2.3,0-4.3,0.6-6.1,1.9 c-1.8,1.2-3,2.9-3.5,4.9c-0.6-2.2-1.6-3.9-3-5c-1.5-1.1-3.2-1.7-5.2-1.7c-4.1,0-7.2,1.6-9,4.8v-4.1h-2V-1187.3z"></path> <path class="st1" d="M126-1201.3c0-2.4,0.5-4.5,1.6-6.3c1.1-1.9,2.6-3.3,4.5-4.4c1.9-1.1,4.1-1.6,6.6-1.6c1.7,0,3.3,0.3,4.5,0.8 c1.3,0.5,2.6,1.4,3.9,2.5l-17.9,17.8C127.2-1195.1,126-1197.9,126-1201.3z M138.7-1188.3c-1.6,0-3-0.3-4.3-0.8 c-1.3-0.5-2.6-1.3-3.9-2.4l19.2-18.9c-3-3.3-6.6-5-10.8-5c-2.8,0-5.3,0.6-7.5,1.8c-2.3,1.2-4,2.9-5.3,5.1c-1.3,2.2-2,4.6-2,7.4 c0,2.5,0.7,4.9,2,7.1c1.3,2.2,3.1,4,5.3,5.4s4.6,2,7.1,2c2.3,0,4.3-0.4,6.1-1.1c1.8-0.8,3.4-2,4.9-3.6v-3.1 c-1.3,1.9-2.8,3.4-4.8,4.5C142.9-1188.9,140.8-1188.3,138.7-1188.3z"></path> <path class="st1" d="M155.8-1187.3h2v-15.4c0-2.1,0.5-4,1.6-5.7c1-1.7,2.4-3,4.2-3.9c1.8-1,3.7-1.4,5.8-1.4c2.9,0,5.1,0.9,6.7,2.7 c1.6,1.8,2.4,4.4,2.4,7.7v16h2v-16c0-3.8-1-6.8-3-8.9c-2-2.1-4.6-3.2-8-3.2c-2.6,0-5,0.6-7.1,1.9c-2.2,1.2-3.7,2.9-4.6,4.9v-6.1h-2 V-1187.3z"></path> <path class="st1" d="M201.2-1188.4c-2.2,0-4.3-0.6-6.3-1.7c-2-1.2-3.5-2.7-4.7-4.6c-1.2-1.9-1.7-4-1.7-6.3c0-2.2,0.6-4.3,1.7-6.3 c1.2-2,2.7-3.5,4.6-4.7c1.9-1.2,4-1.8,6.3-1.8c2.2,0,4.3,0.6,6.2,1.7c1.9,1.2,3.4,2.7,4.6,4.7c1.1,2,1.7,4,1.7,6.3 c0,2.3-0.6,4.4-1.7,6.3c-1.1,1.9-2.6,3.5-4.5,4.6C205.5-1189,203.4-1188.4,201.2-1188.4z M201.1-1186.7c2.6,0,5.1-0.7,7.4-2 c2.3-1.4,4-3.2,5.1-5.5v6.8h2v-27.4h-2v6.9c-0.9-2.2-2.6-4.1-4.9-5.5c-2.4-1.4-4.9-2.1-7.5-2.1c-2.6,0-5,0.7-7.3,2 c-2.2,1.3-4,3.1-5.3,5.3c-1.3,2.2-2,4.6-2,7.2c0,2.6,0.7,5,2,7.2c1.3,2.2,3.1,4,5.3,5.3C196.1-1187.3,198.5-1186.7,201.1-1186.7z"></path> <path class="st1" d="M223.2-1187.3h2v-16c0-1.7,0.4-3.3,1.3-4.8c0.8-1.5,1.9-2.7,3.3-3.6c1.4-0.9,2.8-1.3,4.2-1.3s2.8,0.4,4,1.3 v-2.3c-1.3-0.5-2.6-0.8-3.8-0.8c-2,0-3.8,0.6-5.3,1.7c-1.6,1.1-2.8,2.7-3.6,4.7v-6.3h-2V-1187.3z"></path> <path class="st1" d="M253.7-1188.4c-2.2,0-4.3-0.6-6.3-1.7c-1.9-1.2-3.5-2.7-4.6-4.6c-1.1-1.9-1.7-4-1.7-6.3c0-2.2,0.6-4.3,1.7-6.3 c1.1-2,2.7-3.5,4.6-4.7c1.9-1.2,4-1.7,6.2-1.7s4.3,0.6,6.3,1.8c1.9,1.2,3.5,2.7,4.6,4.7c1.2,2,1.7,4,1.7,6.3c0,2.2-0.6,4.3-1.7,6.3 c-1.2,1.9-2.7,3.5-4.6,4.6C258-1189,256-1188.4,253.7-1188.4z M253.8-1186.7c2.5,0,4.9-0.7,7.2-2c2.3-1.3,4.1-3.1,5.3-5.3v6.6h2 v-45.8h-2v25c-1.1-2.2-2.8-4-5.1-5.3c-2.3-1.4-4.8-2-7.3-2c-2.6,0-5.1,0.7-7.3,2c-2.2,1.3-4,3.1-5.3,5.2c-1.3,2.2-2,4.6-2,7.2 c0,2.6,0.7,5,2,7.2c1.3,2.2,3.1,3.9,5.3,5.2C248.7-1187.3,251.1-1186.7,253.8-1186.7z"></path> <path class="st1" d="M277.3-1187.3h2v-27.4h-2V-1187.3z M278.2-1221.1c0.6,0,1.1-0.2,1.5-0.6c0.4-0.4,0.6-0.9,0.6-1.5 c0-0.6-0.2-1.1-0.6-1.5c-0.4-0.4-0.9-0.6-1.5-0.6c-0.6,0-1.1,0.2-1.5,0.6c-0.4,0.4-0.6,0.9-0.6,1.5c0,0.6,0.2,1.1,0.6,1.5 C277.2-1221.3,277.7-1221.1,278.2-1221.1z"></path> </g> </svg> 