<?xml version="1.0" encoding="UTF-8"?> <!-- Generator: Adobe Illustrator 22.0.0, SVG Export Plug-In . SVG Version: 6.00 Build 0) --> <svg xmlns="http://www.w3.org/2000/svg" xmlns:xlink="http://www.w3.org/1999/xlink" id="Layer_1" x="0px" y="0px" viewBox="0 0 430.8 118.2" style="enable-background:new 0 0 430.8 118.2;" xml:space="preserve"> <style type="text/css"> .st0{fill:#FFFFFF;} </style> <rect x="148.2" y="107.1" class="st0" width="1.1" height="8.7"></rect> <rect x="151.7" y="109.8" class="st0" width="1.1" height="6"></rect> <path class="st0" d="M152.8,107.4c-0.1-0.1-0.2-0.1-0.3-0.2c-0.1,0-0.2-0.1-0.3-0.1s-0.2,0-0.3,0.1c-0.1,0-0.2,0.1-0.2,0.2 c-0.1,0.1-0.1,0.2-0.2,0.2c0,0.1-0.1,0.2-0.1,0.3c0,0.1,0,0.2,0.1,0.3c0,0.1,0.1,0.2,0.2,0.2c0.1,0.1,0.2,0.1,0.2,0.2 c0.1,0,0.2,0.1,0.3,0.1s0.2,0,0.3-0.1c0.1,0,0.2-0.1,0.3-0.2c0.1-0.1,0.1-0.1,0.2-0.2c0-0.1,0.1-0.2,0.1-0.3c0-0.1,0-0.2-0.1-0.3 S152.8,107.4,152.8,107.4"></path> <path class="st0" d="M157.8,112.6c-0.1-0.1-0.1-0.1-0.2-0.2c0.1-0.1,0.2-0.2,0.4-0.3l2.3-2.4h-1c-0.1,0-0.2,0-0.3,0.1 c-0.1,0-0.1,0.1-0.2,0.2l-2,2c-0.1,0.1-0.1,0.1-0.2,0.1c-0.1,0-0.1,0-0.2,0h-0.3v-5.1h-1.1v8.7h1.1v-2.9h0.3c0.1,0,0.2,0,0.3,0 c0.1,0,0.1,0.1,0.2,0.2l2.1,2.5c0,0.1,0.1,0.1,0.2,0.2c0.1,0,0.1,0,0.2,0h1l-2.4-3C157.9,112.7,157.9,112.7,157.8,112.6"></path> <path class="st0" d="M165.9,110.4c-0.2-0.2-0.5-0.4-0.8-0.5c-0.3-0.1-0.7-0.2-1-0.2c-0.5,0-0.9,0.1-1.2,0.2 c-0.4,0.2-0.7,0.4-0.9,0.6c-0.3,0.3-0.4,0.6-0.6,0.9c-0.1,0.4-0.2,0.8-0.2,1.2c0,0.5,0.1,1,0.2,1.4c0.1,0.4,0.4,0.7,0.6,1 c0.3,0.3,0.6,0.5,0.9,0.6c0.4,0.1,0.8,0.2,1.2,0.2c0.2,0,0.5,0,0.7-0.1c0.2,0,0.5-0.1,0.7-0.2c0.2-0.1,0.4-0.2,0.6-0.3 c0.2-0.1,0.4-0.3,0.5-0.4l-0.3-0.4c0-0.1-0.1-0.1-0.2-0.1c-0.1,0-0.2,0-0.3,0.1c-0.1,0.1-0.2,0.1-0.4,0.2c-0.1,0.1-0.3,0.1-0.5,0.2 c-0.2,0.1-0.4,0.1-0.7,0.1c-0.3,0-0.6,0-0.8-0.1c-0.2-0.1-0.4-0.2-0.6-0.4c-0.2-0.2-0.3-0.4-0.4-0.7c-0.1-0.3-0.1-0.6-0.2-1h4.2 c0.1,0,0.2,0,0.2-0.1c0-0.1,0.1-0.2,0.1-0.3c0-0.4-0.1-0.8-0.2-1.1C166.3,110.9,166.2,110.6,165.9,110.4 M162.3,112.1 c0.1-0.5,0.3-0.9,0.6-1.2s0.7-0.4,1.3-0.4c0.3,0,0.5,0,0.7,0.1c0.2,0.1,0.4,0.2,0.5,0.3c0.1,0.1,0.2,0.3,0.3,0.5 c0.1,0.2,0.1,0.4,0.1,0.7H162.3z"></path> <path class="st0" d="M176.1,110.3c-0.2-0.2-0.4-0.4-0.7-0.5c-0.3-0.1-0.6-0.2-0.9-0.2c-0.5,0-0.9,0.1-1.3,0.2 c-0.4,0.2-0.8,0.4-1.1,0.7l0.2,0.3c0,0.1,0.1,0.1,0.1,0.1c0.1,0,0.1,0.1,0.2,0.1c0.1,0,0.2,0,0.3-0.1c0.1-0.1,0.2-0.1,0.3-0.2 s0.3-0.2,0.5-0.2c0.2-0.1,0.4-0.1,0.7-0.1c0.4,0,0.7,0.1,0.9,0.4c0.2,0.2,0.3,0.6,0.3,1.1v0.5c-0.7,0-1.3,0.1-1.8,0.2 c-0.5,0.1-0.9,0.2-1.2,0.4c-0.3,0.2-0.5,0.4-0.7,0.6c-0.1,0.2-0.2,0.4-0.2,0.7c0,0.3,0,0.5,0.1,0.7c0.1,0.2,0.2,0.4,0.4,0.5 c0.2,0.1,0.3,0.2,0.6,0.3c0.2,0.1,0.4,0.1,0.7,0.1c0.2,0,0.5,0,0.7-0.1c0.2,0,0.4-0.1,0.6-0.2c0.2-0.1,0.3-0.2,0.5-0.3 c0.2-0.1,0.3-0.2,0.5-0.4l0.1,0.6c0,0.1,0.1,0.2,0.1,0.2c0.1,0,0.1,0,0.2,0h0.5v-3.8c0-0.3,0-0.6-0.1-0.9 C176.4,110.7,176.2,110.5,176.1,110.3 M175.5,114.3c-0.1,0.1-0.3,0.2-0.4,0.3c-0.1,0.1-0.3,0.2-0.4,0.3c-0.1,0.1-0.3,0.1-0.5,0.2 c-0.2,0-0.3,0.1-0.5,0.1c-0.1,0-0.3,0-0.4-0.1c-0.1,0-0.2-0.1-0.3-0.2c-0.1-0.1-0.2-0.2-0.2-0.3c-0.1-0.1-0.1-0.3-0.1-0.4 c0-0.2,0.1-0.3,0.2-0.5c0.1-0.1,0.3-0.3,0.5-0.3c0.2-0.1,0.5-0.2,0.9-0.2c0.4-0.1,0.8-0.1,1.3-0.1V114.3z"></path> <path class="st0" d="M181.7,114.7c0,0-0.1,0-0.1,0c0,0-0.1,0.1-0.2,0.1c-0.1,0-0.1,0.1-0.2,0.1c-0.1,0-0.2,0-0.3,0 c-0.2,0-0.4-0.1-0.5-0.2c-0.1-0.1-0.2-0.3-0.2-0.6v-3.6h1.8v-0.8h-1.8v-2.1h-0.6c-0.1,0-0.1,0-0.2,0.1c0,0-0.1,0.1-0.1,0.1l-0.3,1.9 l-1,0.1v0.4c0,0.1,0,0.1,0.1,0.2c0,0,0.1,0.1,0.2,0.1h0.8v3.7c0,0.5,0.1,0.9,0.4,1.1c0.3,0.3,0.6,0.4,1.1,0.4c0.3,0,0.6,0,0.8-0.1 s0.5-0.2,0.7-0.4l-0.3-0.5C181.8,114.8,181.7,114.7,181.7,114.7"></path> <path class="st0" d="M192.6,108c-0.3-0.2-0.6-0.4-1-0.5c-0.4-0.1-0.9-0.2-1.5-0.2h-2.6v8.5h1.2v-3.2h1.4c0.5,0,1-0.1,1.4-0.2 c0.4-0.1,0.8-0.3,1-0.6c0.3-0.2,0.5-0.5,0.6-0.8c0.1-0.3,0.2-0.7,0.2-1.1c0-0.4-0.1-0.8-0.2-1.1C193.1,108.5,192.9,108.2,192.6,108 M192.1,110.6c-0.1,0.2-0.2,0.4-0.4,0.6c-0.2,0.2-0.4,0.3-0.7,0.4c-0.3,0.1-0.6,0.1-0.9,0.1h-1.4v-3.5h1.4c0.7,0,1.2,0.2,1.6,0.5 c0.3,0.3,0.5,0.7,0.5,1.3C192.3,110.2,192.2,110.4,192.1,110.6"></path> <polygon class="st0" points="196.7,111.9 200.1,111.9 200.1,111 196.7,111 196.7,108.2 200.9,108.2 200.9,107.3 195.5,107.3 195.5,115.8 200.9,115.8 200.9,114.8 196.7,114.8 "></polygon> <path class="st0" d="M206.6,112.1c0.3-0.1,0.6-0.2,0.9-0.3c0.3-0.1,0.5-0.3,0.7-0.5c0.2-0.2,0.3-0.4,0.4-0.7s0.1-0.5,0.1-0.8 c0-0.4-0.1-0.7-0.2-1c-0.1-0.3-0.3-0.5-0.6-0.7c-0.3-0.2-0.6-0.4-1-0.5c-0.4-0.1-0.9-0.2-1.5-0.2h-2.5v8.5h1.2v-3.5h0.9 c0.2,0,0.3,0,0.4,0.1c0.1,0,0.2,0.1,0.2,0.2l2.3,3c0.1,0.2,0.3,0.2,0.5,0.2h1.1l-2.6-3.4C206.9,112.3,206.8,112.1,206.6,112.1 M205.5,111.4h-1.3v-3.2h1.3c0.7,0,1.2,0.1,1.6,0.4c0.3,0.3,0.5,0.6,0.5,1.1c0,0.2,0,0.5-0.1,0.7c-0.1,0.2-0.2,0.4-0.4,0.5 c-0.2,0.1-0.4,0.3-0.7,0.3C206.2,111.4,205.9,111.4,205.5,111.4"></path> <polygon class="st0" points="211.3,115.8 212.5,115.8 212.5,112.1 216.1,112.1 216.1,111.2 212.5,111.2 212.5,108.2 216.8,108.2 216.8,107.3 211.3,107.3 "></polygon> <polygon class="st0" points="220,111.9 223.4,111.9 223.4,111 220,111 220,108.2 224.2,108.2 224.2,107.3 218.8,107.3 218.8,115.8 224.2,115.8 224.2,114.8 220,114.8 "></polygon> <path class="st0" d="M232.4,114c-0.1,0-0.1,0-0.2,0.1c-0.2,0.1-0.3,0.3-0.5,0.3c-0.2,0.1-0.3,0.2-0.5,0.2c-0.2,0.1-0.4,0.1-0.6,0.1 c-0.2,0-0.5,0-0.7,0c-0.4,0-0.8-0.1-1.2-0.2c-0.4-0.1-0.7-0.4-1-0.7c-0.3-0.3-0.5-0.6-0.6-1.1c-0.2-0.4-0.2-0.9-0.2-1.4 c0-0.5,0.1-1,0.2-1.4c0.2-0.4,0.4-0.8,0.6-1.1c0.3-0.3,0.6-0.5,1-0.7c0.4-0.2,0.8-0.2,1.3-0.2c0.4,0,0.7,0,1,0.1 c0.3,0.1,0.5,0.2,0.6,0.3c0.2,0.1,0.3,0.2,0.4,0.3c0.1,0.1,0.2,0.1,0.3,0.1c0.1,0,0.1,0,0.2,0c0,0,0.1-0.1,0.1-0.1l0.4-0.5 c-0.4-0.3-0.8-0.6-1.3-0.8c-0.5-0.2-1-0.3-1.7-0.3c-0.6,0-1.2,0.1-1.8,0.3c-0.5,0.2-1,0.5-1.4,0.9c-0.4,0.4-0.7,0.8-0.9,1.4 c-0.2,0.5-0.3,1.1-0.3,1.8c0,0.6,0.1,1.2,0.3,1.8c0.2,0.5,0.5,1,0.9,1.4c0.4,0.4,0.8,0.7,1.3,0.9c0.5,0.2,1.1,0.3,1.7,0.3 c0.7,0,1.4-0.1,1.9-0.3c0.5-0.2,1-0.5,1.3-0.9l-0.5-0.5C232.6,114.1,232.5,114,232.4,114"></path> <polygon class="st0" points="234,108.3 236.9,108.3 236.9,115.8 238.1,115.8 238.1,108.3 240.9,108.3 240.9,107.3 234,107.3 "></polygon> <polygon class="st0" points="252,111.1 247.2,111.1 247.2,107.3 246,107.3 246,115.8 247.2,115.8 247.2,111.9 252,111.9 252,115.8 253.2,115.8 253.2,107.3 252,107.3 "></polygon> <path class="st0" d="M262.9,108.4c-0.4-0.4-0.8-0.7-1.4-0.9c-0.5-0.2-1.1-0.3-1.8-0.3c-0.6,0-1.2,0.1-1.8,0.3 c-0.5,0.2-1,0.5-1.4,0.9c-0.4,0.4-0.7,0.8-0.9,1.4c-0.2,0.5-0.3,1.1-0.3,1.8s0.1,1.2,0.3,1.8c0.2,0.5,0.5,1,0.9,1.4 c0.4,0.4,0.8,0.7,1.4,0.9c0.5,0.2,1.1,0.3,1.8,0.3c0.7,0,1.2-0.1,1.8-0.3c0.5-0.2,1-0.5,1.4-0.9c0.4-0.4,0.7-0.8,0.9-1.4 c0.2-0.5,0.3-1.1,0.3-1.8s-0.1-1.2-0.3-1.8C263.6,109.3,263.3,108.8,262.9,108.4 M262.7,112.9c-0.1,0.4-0.4,0.8-0.6,1 c-0.3,0.3-0.6,0.5-1,0.7c-0.4,0.2-0.8,0.2-1.3,0.2c-0.5,0-0.9-0.1-1.3-0.2c-0.4-0.2-0.7-0.4-1-0.7c-0.3-0.3-0.5-0.6-0.6-1 c-0.1-0.4-0.2-0.9-0.2-1.4c0-0.5,0.1-1,0.2-1.4c0.1-0.4,0.4-0.8,0.6-1.1c0.3-0.3,0.6-0.5,1-0.7c0.4-0.2,0.8-0.2,1.3-0.2 c0.5,0,0.9,0.1,1.3,0.2c0.4,0.2,0.7,0.4,1,0.7c0.3,0.3,0.5,0.6,0.6,1.1c0.1,0.4,0.2,0.9,0.2,1.4 C262.9,112.1,262.8,112.5,262.7,112.9"></path> <path class="st0" d="M274.4,107.3c-0.1,0-0.1,0.1-0.2,0.2l-3,5.2c-0.1,0.1-0.1,0.2-0.1,0.3c0,0.1-0.1,0.2-0.1,0.3 c0-0.1-0.1-0.2-0.1-0.3c0-0.1-0.1-0.2-0.1-0.3l-3.1-5.2c-0.1-0.1-0.1-0.1-0.2-0.2c-0.1,0-0.1,0-0.2,0h-0.9v8.5h1.1v-6.2 c0-0.2,0-0.4,0-0.6l3.1,5.3c0.1,0.2,0.2,0.3,0.4,0.3h0.2c0.2,0,0.3-0.1,0.4-0.3l3-5.3c0,0.1,0,0.2,0,0.3c0,0.1,0,0.2,0,0.3v6.2h1 v-8.5h-0.9C274.6,107.3,274.5,107.3,274.4,107.3"></path> <polygon class="st0" points="279.5,111.9 282.9,111.9 282.9,111 279.5,111 279.5,108.2 283.7,108.2 283.7,107.3 278.3,107.3 278.3,115.8 283.7,115.8 283.8,114.8 279.5,114.8 "></polygon> <path class="st0" d="M177.5,91.3c-0.2-0.2-0.4-0.3-0.7-0.4c-0.3-0.1-0.5-0.2-0.8-0.3c-0.3-0.1-0.5-0.2-0.8-0.3 c-0.3-0.1-0.5-0.2-0.7-0.3c-0.2-0.1-0.4-0.2-0.5-0.4c-0.1-0.2-0.2-0.4-0.2-0.6c0-0.2,0-0.4,0.1-0.5c0.1-0.2,0.2-0.3,0.3-0.4 c0.1-0.1,0.3-0.2,0.5-0.3c0.2-0.1,0.4-0.1,0.7-0.1c0.3,0,0.5,0,0.7,0.1c0.2,0.1,0.4,0.1,0.5,0.2s0.3,0.2,0.4,0.2 c0.1,0.1,0.2,0.1,0.2,0.1c0.1,0,0.1,0,0.2,0c0,0,0.1-0.1,0.1-0.1l0.3-0.5c-0.3-0.3-0.7-0.5-1.1-0.7c-0.4-0.2-0.9-0.2-1.3-0.2 c-0.4,0-0.8,0.1-1.2,0.2c-0.3,0.1-0.6,0.3-0.9,0.5c-0.2,0.2-0.4,0.5-0.5,0.7c-0.1,0.3-0.2,0.6-0.2,0.9c0,0.4,0.1,0.7,0.2,0.9 c0.1,0.3,0.3,0.5,0.5,0.6c0.2,0.2,0.4,0.3,0.7,0.4c0.3,0.1,0.5,0.2,0.8,0.3c0.3,0.1,0.5,0.2,0.8,0.2c0.3,0.1,0.5,0.2,0.7,0.3 c0.2,0.1,0.4,0.2,0.5,0.4c0.1,0.2,0.2,0.4,0.2,0.6c0,0.2,0,0.4-0.1,0.6c-0.1,0.2-0.2,0.4-0.4,0.5c-0.2,0.1-0.3,0.2-0.6,0.3 c-0.2,0.1-0.5,0.1-0.8,0.1c-0.2,0-0.4,0-0.6-0.1c-0.2,0-0.3-0.1-0.5-0.2c-0.1-0.1-0.3-0.1-0.4-0.2c-0.1-0.1-0.2-0.1-0.3-0.2 c-0.1-0.1-0.2-0.1-0.2-0.2c-0.1,0-0.1-0.1-0.2-0.1c-0.1,0-0.1,0-0.2,0c0,0-0.1,0.1-0.1,0.1l-0.3,0.5c0.3,0.3,0.7,0.6,1.2,0.8 c0.5,0.2,1,0.3,1.6,0.3c0.5,0,0.9-0.1,1.3-0.2c0.4-0.1,0.7-0.3,0.9-0.6c0.3-0.2,0.4-0.5,0.6-0.9c0.1-0.3,0.2-0.7,0.2-1 c0-0.4-0.1-0.6-0.2-0.9C177.8,91.6,177.7,91.4,177.5,91.3"></path> <polygon class="st0" points="186.3,86.9 179.4,86.9 179.4,87.8 182.2,87.8 182.2,95.3 183.4,95.3 183.4,87.8 186.3,87.8 "></polygon> <path class="st0" d="M189.7,86.9l-3.5,8.5h0.9c0.1,0,0.2,0,0.3-0.1c0.1-0.1,0.1-0.1,0.1-0.2l0.8-2.1h4l0.8,2.1 c0,0.1,0.1,0.1,0.1,0.2c0.1,0.1,0.2,0.1,0.3,0.1h0.9l-3.5-8.5H189.7z M188.6,92.2l1.4-3.4c0.1-0.2,0.2-0.5,0.3-0.8 c0,0.2,0.1,0.3,0.1,0.4c0,0.1,0.1,0.3,0.1,0.4l1.4,3.5H188.6z"></path> <path class="st0" d="M200.5,86.9c-0.1,0.1-0.1,0.1-0.2,0.2l-2,3.3c-0.1,0.1-0.1,0.3-0.2,0.4c-0.1,0.1-0.1,0.2-0.2,0.4 c0-0.1-0.1-0.2-0.2-0.4c-0.1-0.1-0.1-0.3-0.2-0.4l-2-3.3c0-0.1-0.1-0.1-0.2-0.2c-0.1,0-0.1-0.1-0.3-0.1h-1l3.2,5.1v3.4h1.2V92 l3.2-5.1h-1.1C200.6,86.9,200.5,86.9,200.5,86.9"></path> <path class="st0" d="M216.7,86.9c-0.1,0.1-0.1,0.1-0.1,0.2l-1.8,5.9c0,0.1-0.1,0.2-0.1,0.3c0,0.1,0,0.2-0.1,0.4 c0-0.1-0.1-0.3-0.1-0.4c0-0.1-0.1-0.2-0.1-0.3l-2.1-5.9c0-0.1-0.1-0.1-0.1-0.2c-0.1-0.1-0.2-0.1-0.3-0.1h-0.3c-0.1,0-0.2,0-0.3,0.1 c-0.1,0.1-0.1,0.1-0.1,0.2l-2.1,5.9c0,0.1-0.1,0.2-0.1,0.3c0,0.1-0.1,0.3-0.1,0.4c0-0.1-0.1-0.3-0.1-0.4c0-0.1-0.1-0.2-0.1-0.3 l-1.8-5.9c0-0.1-0.1-0.1-0.1-0.2c-0.1-0.1-0.2-0.1-0.3-0.1h-1l2.8,8.5h1.1l2.3-6.5c0-0.1,0-0.1,0.1-0.2c0-0.1,0-0.1,0.1-0.2 c0,0.1,0,0.2,0.1,0.2c0,0.1,0,0.1,0.1,0.2l2.2,6.5h1.1l2.8-8.5H217C216.9,86.9,216.8,86.9,216.7,86.9"></path> <rect x="219.7" y="86.9" class="st0" width="1.2" height="8.5"></rect> <polygon class="st0" points="226.8,95.3 226.8,87.8 229.6,87.8 229.6,86.9 222.7,86.9 222.7,87.8 225.6,87.8 225.6,95.3 "></polygon> <polygon class="st0" points="231.4,86.9 231.4,95.3 232.6,95.3 232.6,91.5 237.4,91.5 237.4,95.3 238.6,95.3 238.6,86.9 237.4,86.9 237.4,90.6 232.6,90.6 232.6,86.9 "></polygon> <path class="st0" d="M248.4,95.4c0.5,0,1-0.1,1.5-0.3c0.4-0.2,0.8-0.4,1.1-0.7c0.3-0.3,0.5-0.7,0.7-1.1c0.2-0.4,0.2-0.9,0.2-1.4 v-5.2h-1.2V92c0,0.4-0.1,0.7-0.2,1c-0.1,0.3-0.3,0.6-0.5,0.8c-0.2,0.2-0.4,0.4-0.7,0.5c-0.3,0.1-0.6,0.2-1,0.2c-0.4,0-0.7-0.1-1-0.2 c-0.3-0.1-0.5-0.3-0.7-0.5c-0.2-0.2-0.4-0.5-0.5-0.8c-0.1-0.3-0.2-0.6-0.2-1v-5.2h-1.2V92c0,0.5,0.1,0.9,0.2,1.4 c0.2,0.4,0.4,0.8,0.7,1.1c0.3,0.3,0.7,0.5,1.1,0.7C247.4,95.4,247.9,95.4,248.4,95.4"></path> <path class="st0" d="M257.9,95.2c0.4-0.1,0.7-0.3,0.9-0.6c0.3-0.2,0.4-0.5,0.6-0.9c0.1-0.3,0.2-0.7,0.2-1c0-0.4-0.1-0.6-0.2-0.9 c-0.1-0.2-0.3-0.4-0.5-0.6c-0.2-0.2-0.4-0.3-0.7-0.4c-0.3-0.1-0.5-0.2-0.8-0.3c-0.3-0.1-0.5-0.2-0.8-0.3s-0.5-0.2-0.7-0.3 c-0.2-0.1-0.4-0.2-0.5-0.4c-0.1-0.2-0.2-0.4-0.2-0.6c0-0.2,0-0.4,0.1-0.5c0.1-0.2,0.2-0.3,0.3-0.4c0.1-0.1,0.3-0.2,0.5-0.3 c0.2-0.1,0.4-0.1,0.7-0.1c0.3,0,0.5,0,0.7,0.1c0.2,0.1,0.4,0.1,0.5,0.2c0.1,0.1,0.3,0.2,0.4,0.2c0.1,0.1,0.2,0.1,0.2,0.1 c0.1,0,0.1,0,0.2,0c0,0,0.1-0.1,0.1-0.1l0.3-0.5c-0.3-0.3-0.7-0.5-1.1-0.7c-0.4-0.1-0.9-0.2-1.3-0.2c-0.4,0-0.8,0.1-1.2,0.2 c-0.3,0.1-0.6,0.3-0.9,0.5c-0.2,0.2-0.4,0.5-0.5,0.7c-0.1,0.3-0.2,0.6-0.2,0.9c0,0.4,0.1,0.7,0.2,0.9c0.1,0.3,0.3,0.5,0.5,0.6 c0.2,0.2,0.4,0.3,0.7,0.4c0.3,0.1,0.5,0.2,0.8,0.3c0.3,0.1,0.5,0.2,0.8,0.2c0.3,0.1,0.5,0.2,0.7,0.3c0.2,0.1,0.4,0.2,0.5,0.4 c0.1,0.2,0.2,0.4,0.2,0.6c0,0.2,0,0.4-0.1,0.6c-0.1,0.2-0.2,0.4-0.4,0.5c-0.2,0.1-0.3,0.2-0.6,0.3c-0.2,0.1-0.5,0.1-0.8,0.1 c-0.2,0-0.4,0-0.6-0.1c-0.2,0-0.3-0.1-0.5-0.2c-0.1-0.1-0.3-0.1-0.4-0.2c-0.1-0.1-0.2-0.1-0.3-0.2c-0.1-0.1-0.2-0.1-0.2-0.2 c-0.1,0-0.1-0.1-0.2-0.1c-0.1,0-0.1,0-0.2,0c0,0-0.1,0.1-0.1,0.1l-0.3,0.5c0.3,0.3,0.7,0.6,1.2,0.8c0.5,0.2,1,0.3,1.6,0.3 C257.1,95.4,257.5,95.4,257.9,95.2"></path> <path class="st0" d="M331.4,44.6h10.4c-1.2-0.3-2.1-0.8-2.6-1.1c-0.3-0.2-0.8-0.5-1.3-1.1c-0.4-0.5-0.8-1.1-1.1-1.9l-15-38.2h-1.8 l-7.9,19.6c-0.8,0.2-1.6,0.5-2.4,0.8c-2.2,1-4.2,2.6-5.4,4.7c-0.6,1-1,2.2-1.2,3.4c-0.2,1.2,0,2.5,0.3,3.6c0.4,1.2,0.9,2.2,1.7,3.2 c0.1,0.2,0.3,0.3,0.4,0.5l-1.2,3c-0.3,0.7-0.7,1.2-1.1,1.6c-0.5,0.4-0.8,0.7-1.3,0.9c-0.5,0.3-1.4,0.7-2.5,1h8.9 c-0.2,0-1-0.2-1.6-0.8c-0.1-0.2-0.7-0.6-0.7-1.4c0-0.5,0.2-1.2,0.5-1.9l0.5-1.2c0.3,0.1,0.6,0.3,0.9,0.4c2.3,0.7,4.9,0.1,6.6-1.6 c-1.8,1.4-4.3,1.9-6.4,1.1c-0.3-0.1-0.6-0.3-0.8-0.4l2.8-6.9c0.2-0.6,0.5-1.2,0.7-1.8l2.9-7.4c0.9-0.1,1.8-0.1,2.7-0.1 c2.2,0.2,4.4,0.9,6.4,1.9c2,1,3.8,2.4,5.3,4.2c0.1,0.1,0.2,0.3,0.4,0.4l0.3,0.9c0.2,0.6,0.5,1.2,0.7,1.8l3.4,8.7 c0.3,0.7,0.4,1.3,0.4,1.8c0,0.7-0.5,1.3-0.7,1.4C332.4,44.4,331.7,44.5,331.4,44.6 M306,37.3c-0.8-0.9-1.3-2-1.6-3.2 c-0.3-1.1-0.4-2.2-0.2-3.2c0.2-1.1,0.6-2.1,1.1-3c1.1-1.9,2.9-3.3,4.9-4.2c0.5-0.2,0.9-0.4,1.4-0.5L306,37.3z M323.5,23.7 c-2-1.2-4.3-2-6.7-2.2c-0.8-0.1-1.6-0.1-2.4,0l5.7-14.3l8,20.3C326.8,26,325.3,24.7,323.5,23.7"></path> <path class="st0" d="M125.9,42.3c-0.8,0.5-1.6,0.5-2,0.5h-18.2v-2.3V7c0-0.4,0.1-1.2,0.5-2.1c0.9-1.6,2.6-2,2.9-2.1h-6.9h-3.3 c0.3,0.1,1.9,0.5,2.8,2.1c0.5,0.8,0.5,1.6,0.5,2.1v33.5c0,0.4-0.1,1.2-0.5,2.1c-0.9,1.6-2.5,2-2.8,2h6.9h18.2h3.5h0.6v-5.2 C127.9,39.7,127.5,41.4,125.9,42.3"></path> <path class="st0" d="M165.3,23.7c0-2.9-0.4-5.6-1.1-8.1c-0.7-2.5-1.9-4.8-3.5-6.6c-1.6-1.9-3.7-3.4-6.3-4.5 c-2.6-1.1-5.7-1.6-9.4-1.6h-10.7h-3.4c0.3,0.1,2,0.5,2.9,2.1c0.5,0.8,0.5,1.6,0.5,2.1v33.4c0,0.4-0.1,1.2-0.5,2.1 c-0.9,1.6-2.6,2-2.9,2h7h7.1c3.7,0,6.8-0.5,9.4-1.6c2.6-1.1,4.6-2.6,6.3-4.5c1.6-1.9,2.8-4.1,3.5-6.6 C164.9,29.3,165.3,26.6,165.3,23.7 M160.6,31c-0.6,2.3-1.5,4.3-2.8,6.1c-1.3,1.7-3.1,3.1-5.3,4.2c-2.2,1-5,1.5-8.3,1.5h-6.3v-2.3 V4.6h6.3c3.3,0,6.1,0.5,8.3,1.5c2.2,1,4,2.4,5.3,4.2c1.3,1.7,2.3,3.8,2.8,6.1c0.6,2.3,0.8,4.7,0.8,7.3 C161.4,26.2,161.2,28.7,160.6,31"></path> <path class="st0" d="M172.2,42.5c-0.9,1.6-2.6,2-2.9,2h7h19.1h3.6h0.6v-1.8v-3.5c-0.1,0.3-0.5,2-2.1,2.9c-0.8,0.5-1.6,0.5-2.1,0.5 h-19.1v-2.3V24.3v-1.8v-0.8h13c0.4,0,1,0.1,1.7,0.3c1.3,0.5,1.7,1.4,1.8,1.6v-4.8c-0.1,0.2-0.4,1.1-1.8,1.6 c-0.7,0.3-1.4,0.3-1.8,0.3h-12.9v-16h17.9c0.4,0,1.2,0.1,2.1,0.5c1.6,0.9,2,2.6,2.1,2.9V2.9h-0.6h-3.6h-21.4h-3.4 c0.3,0.1,2,0.5,2.9,2.1c0.5,0.8,0.5,1.6,0.5,2.1v33.4C172.8,40.9,172.7,41.7,172.2,42.5"></path> <path class="st0" d="M232.8,4.9c0.5,0.8,0.5,1.6,0.5,2.1v30.9l-25.4-35h-4.1h-0.1h-1.6c0.3,0.1,1.9,0.5,2.8,2c0.5,0.8,0.5,1.5,0.6,2 v33.8c0,0.4-0.1,1.2-0.6,1.9c-0.9,1.5-2.5,1.9-2.8,2h8.6c-0.3-0.1-2-0.4-2.9-2c-0.5-0.8-0.5-1.7-0.5-2.1V7.9L234,45.2h1.2V6.8 c0-0.4,0.1-1.2,0.6-1.9c0.9-1.5,2.5-1.9,2.8-2h-8.6C230.2,2.9,231.9,3.3,232.8,4.9"></path> <path class="st0" d="M294.7,42.4c-0.5-0.5-1-1.1-1.5-1.9l-9.6-15.3c3.4-0.4,6-1.7,7.8-3.7c1.8-2,2.7-4.5,2.7-7.5 c0-3.4-1.1-6.1-3.4-8.1c-2.3-2-5.5-3-9.7-3h-10.6h-7c0.3,0.1,2,0.5,2.9,2.1c0.5,0.8,0.5,1.6,0.5,2.1v33.4c0,0.4-0.1,1.2-0.5,2.1 c-0.9,1.6-2.6,2-2.9,2h7h3.5c-0.3-0.1-2-0.4-2.9-2c-0.5-0.8-0.5-1.7-0.5-2.1V25.4h9.2l12.1,19.2h6.9c-1-0.3-1.8-0.8-2.4-1.1 C295.8,43.2,295.2,42.9,294.7,42.4 M278.9,23.6h-8.5V4.6h8.5c2.1,0,4,0.2,5.4,0.7c1.5,0.5,2.7,1.1,3.6,2c0.9,0.8,1.6,1.8,2,2.9 c0.4,1.1,0.6,2.4,0.6,3.7c0,1.4-0.2,2.6-0.6,3.8c-0.4,1.2-1.1,2.2-2,3c-0.9,0.9-2.1,1.5-3.6,2C282.8,23.3,281,23.6,278.9,23.6"></path> <path class="st0" d="M368.6,2.9h-3.5h-9.2h-8.7h-5.3h-3.5h-0.6l-0.6,5.2c0.2-0.5,0.8-2.1,2.6-2.9c0.8-0.4,1.6-0.5,2.1-0.5h10.4v35.8 c0,0.4-0.1,1.2-0.5,2.1c-0.9,1.6-2.6,2-2.9,2h7h3.4c-1.4-0.5-2.5-1.3-2.9-2c-0.3-0.4-0.4-0.9-0.4-0.9c-0.1-0.3-0.1-0.7-0.1-1.2V4.6 h9.2c0.5,0,1.3,0.1,2.1,0.5c1.7,0.9,2.4,2.5,2.6,2.9l-0.6-5.2H368.6z"></path> <path class="st0" d="M379.9,5c0.9-1.6,2.6-2,2.9-2.1h-7h-3.4c0.3,0.1,2,0.5,2.9,2.1c0.5,0.8,0.5,1.6,0.5,2.1v33.4 c0,0.4-0.1,1.2-0.5,2.1c-0.9,1.6-2.6,2-2.9,2h7h3.5c-0.3-0.1-2-0.4-2.9-2c-0.5-0.8-0.5-1.7-0.5-2.1V7C379.4,6.6,379.4,5.8,379.9,5"></path> <path class="st0" d="M73,1.8c-12,0-21.8,9.7-21.8,21.8c0,12,9.7,21.8,21.8,21.8c12,0,21.7-9.7,21.7-21.8C94.7,11.6,85,1.8,73,1.8 M81.2,41.7c-8.8,4-19.7-0.8-24.3-10.8c-4.6-10-1.1-21.4,7.7-25.4c8.8-4,19.7,0.8,24.3,10.8C93.6,26.3,90.1,37.6,81.2,41.7"></path> <path class="st0" d="M407.9,1.8c-12,0-21.8,9.7-21.8,21.8c0,12,9.7,21.8,21.8,21.8c12,0,21.7-9.7,21.7-21.8 C429.7,11.6,419.9,1.8,407.9,1.8 M416.2,41.7c-8.8,4-19.7-0.8-24.3-10.8c-4.6-10-1.1-21.4,7.7-25.4c8.8-4,19.7,0.8,24.3,10.8 C428.5,26.3,425,37.6,416.2,41.7"></path> <path class="st0" d="M42.6,35.5c0-0.1,0.1-0.1,0.1-0.2c0.2-0.3,0.3-0.5,0.5-0.8c0-0.1,0.1-0.2,0.1-0.3c0.1-0.3,0.3-0.5,0.4-0.8 c0-0.1,0.1-0.2,0.1-0.2c0.2-0.3,0.3-0.7,0.5-1c0,0,0,0,0-0.1c0.2-0.4,0.3-0.7,0.4-1.1c0-0.1,0-0.1,0.1-0.2c0.1-0.3,0.2-0.6,0.3-0.9 c0-0.1,0.1-0.3,0.1-0.4c0.1-0.2,0.1-0.5,0.2-0.8c0-0.1,0.1-0.3,0.1-0.4c0.1-0.2,0.1-0.5,0.1-0.7c0-0.2,0.1-0.3,0.1-0.5 c0-0.2,0.1-0.5,0.1-0.7c0-0.1,0-0.3,0.1-0.5c0-0.3,0.1-0.5,0.1-0.8c0-0.1,0-0.3,0-0.4c0-0.4,0-0.8,0-1.2c0-0.2,0-0.4,0-0.6 c-0.3-11.8-10-21.4-21.9-21.4c-0.4,0-0.7,0-1.1,0c0,0,0,0-0.1,0c-0.2,0-0.3,0-0.5,0c-0.2,0-0.5,0-0.7,0.1c-0.1,0-0.1,0-0.2,0 c-0.7,0.1-1.4,0.2-2.1,0.4c-1,0.2-2,0.4-3,0.7c-2,0.7-3.8,1.6-5.5,2.8C9.5,7,8.1,8.4,6.8,10.1c-0.9,1.2-1.7,2.6-2.3,4 c-0.4,0.8-0.7,1.6-1,2.5c0,0,0,0.1,0,0.1c-0.1,0.3-0.2,0.6-0.3,0.9c0,0.1,0,0.2-0.1,0.2C3,18.1,3,18.4,2.9,18.7c0,0.1,0,0.2-0.1,0.3 c-0.1,0.3-0.1,0.5-0.2,0.8c0,0.1,0,0.2-0.1,0.3c0,0.3-0.1,0.5-0.1,0.8c0,0.1,0,0.2,0,0.4c0,0.3,0,0.5-0.1,0.8c0,0.1,0,0.2,0,0.3 c0,0.4,0,0.8,0,1.2v21.9v0h21.6c0,0,0,0,0.1,0c0.1,0,0.1,0,0.2,0c0.1,0,0.2,0,0.2,0c0,0,0,0,0,0h13v0h0.3v-4.7 c1.6-1.2,3-2.7,4.1-4.3c0,0,0.1-0.1,0.1-0.1C42.2,36.1,42.4,35.8,42.6,35.5 M6.9,16.6c0.3-1.6,0.9-3.2,1.7-4.8 c0.8-1.5,1.9-2.9,3.1-4.2c1.2-1.2,2.6-2.3,4.1-3.1c1.5-0.8,3.1-1.3,4.8-1.5C21.7,3,22.8,3,23.9,3.2v20.1H6.5 C6.4,21,6.5,18.8,6.9,16.6 M45.5,23.3H24.6V3.4c0.2,0,0.4,0.1,0.7,0.2c1.5,0.5,2.9,1.2,4.2,2.2c1.3,1,2.3,2.4,3.1,4 c0.8,1.6,1.2,3.4,1.2,5.5c0.7,0,1.3,0,1.9-0.1c0.5-0.2,0.9-0.4,1.3-0.8c0.4-0.4,0.7-0.9,0.7-1.7c0.1-1.3-0.1-2.4-0.6-3.5 C36.3,8.1,35.5,7,34.3,6c-1.5-1.3-3.2-2.3-5.2-3c0,0-0.1,0-0.1,0C38.3,5,45.3,13.4,45.5,23.3 M23.9,24v19.4c-0.3,0-0.7-0.1-1.1-0.2 c-2.2-0.4-4.2-1.2-6.1-2.3c-1.9-1.1-3.6-2.5-5.1-4.3C10.2,34.9,9,33,8.1,31c-0.8-2-1.3-4.3-1.6-6.9c0-0.1,0-0.1,0-0.2H23.9z M3,28.9 c0,0.2,0.1,0.3,0.1,0.4c0,0.1,0,0.1,0,0.2c0.1,0.4,0.3,0.9,0.4,1.3c0,0,0,0,0,0c0.3,1,0.7,1.9,1.2,2.8c0.9,2,2,3.7,3.4,5.3 c1.7,2,3.8,3.5,6.1,4.6c1.2,0.6,2.2,0.9,2.8,1.1c0.2,0.1,0.5,0.1,1,0.3H3V28.9z M24.6,30.5c0.4,0.6,0.9,1.1,1.5,1.4 c0.4,0.2,0.9,0.2,1.4,0.2c0.5,0,0.9-0.2,1.3-0.6c0.3-0.3,0.5-0.8,0.6-1.2c0.1-0.5-0.2-1-0.5-1.2c-0.4-0.3-1-0.2-1.3,0.1 c-0.3,0.3-0.3,0.9,0,1.2c-0.3-0.3-0.3-0.9,0-1.2c0.3-0.3,0.8-0.4,1.1-0.1c0.3,0.3,0.5,0.7,0.5,1.1c-0.1,0.4-0.3,0.8-0.6,1.1 c-0.6,0.6-1.6,0.6-2.4,0.3c-0.8-0.3-1.4-1-1.6-1.8c0-0.1-0.1-0.3-0.1-0.4v-1.1c0.2-1.2,0.8-2.3,1.7-3c1.2-1,2.9-1.2,4.4-0.9 c0.1,0,0.3,0.1,0.4,0.1c0.4,0.1,1,0.2,1.6,0.6c1.4,0.9,1.8,2.4,1.9,2.9v12.1c-0.3,0.4-0.9,1-1.6,1.6c-0.4,0.3-1.4,1.1-2.9,1.5 c-1.7,0.5-3.5,0.4-4.7,0.4c-0.2,0-0.4,0-0.7,0V30.5z M25.9,24.8c-0.6,0.5-1,1.1-1.4,1.8V24h2.9C26.9,24.2,26.4,24.4,25.9,24.8 M37.4,25.5c-0.5-1-1.1-1.4-1.4-1.6h9.5c-0.1,6.4-3.1,12.2-7.7,16V27.4C37.8,26.5,37.5,25.9,37.4,25.5 M34.6,43.1 c0.4,0.3,0.8,0.6,1.2,0.9c0.4,0.3,0.7,0.6,1,0.9h-7.3c0.2,0,0.3-0.1,0.5-0.1c0.1,0,0.2,0,0.3-0.1c0.5-0.1,0.9-0.3,1.3-0.4 c0,0,0,0,0,0c0.5-0.2,0.9-0.4,1.4-0.6c0.1,0,0.1-0.1,0.2-0.1c0.4-0.2,0.9-0.4,1.3-0.6C34.5,43,34.6,43,34.6,43.1"></path> </svg> 